{
.formatVersion = 3;
DisplayStrings = (
"vcçcocoo.",
8,
"/v.7/v.7.more"
);
axes = (
{
name = Weight;
tag = wght;
}
);
classes = (
{
code = "A.alt B.7 D.7 E.7 F.7 H.alt K.alt M.7 N.alt P.7 R.7.001 S.2 T.7 U.alt";
name = capsinit;
},
{
code = "A B D E F H K M N P R S T U";
name = decapsinit;
},
{
code = "a.7 b.44 e.8 g.77 h.44 i.7 j.7 k.7 m.7 n.7 o.77 q.2 r.7 s.7 t.7 u.005.7 v.7.001 x.002332 z.7 ampersand.77 exclam.7";
name = rulote;
},
{
code = "a b e g h i j k m n o q r s t u v x z ampersand exclam";
name = derulote;
},
{
code = "a.5 d.5 l.5 m.5 n.5 s.4 u.5 z.baja";
name = bajan;
},
{
code = "a d l m n s u z";
name = debajan;
},
{
code = "a.7.b b.4.acc e.8.acc g.77.acc h.44.acc i.7.acc j.7.acc k.7.acc m.7.acc n.7.acc o.77.acc s.7.acc t.7.acc u.005.acc v.7.acc w.7 z.7.acc";
name = rulotefat;
},
{
code = "a b e g h i j k m n o s t u v w z";
name = derulotefat;
},
{
code = "a.4 c.4 d.4 e.4 f.7 h.4 j.4 l.4 m.4 n.4 p.4 r.4 u.4 v.4 y.44 z.4";
name = encierran;
},
{
code = "a c d e f h j l m n p r u v y z";
name = deencierran;
},
{
code = "b.6 d.6 h.6 k.6 l.6 u.005 y.4";
name = encierranup;
},
{
code = "b d h k l u y";
name = deencierranup;
},
{
code = "a.7.more d.6.more g.7 h.6.more l.6.more m.7.more n.7.more o.7.001 p.4.more r.4.more t.7.more v.7.more y.1.7.more quotesingle.alt";
name = more;
},
{
code = "a d g h l m n o p r t v y quotesingle";
name = demore;
},
{
code = "a.8 g.7777 h.44 k.44 o.7 t.7.4 u.4.2 x.7 y.7";
name = otrorulote;
},
{
code = "a g h k o t u x y";
name = deotrorulote;
},
{
code = "a.9 d.9 e.999 h.9 i.9 k.9 l.9 m.9 n.9 r.sube t.9 u.9 v.sube w.sube y.1.sube";
name = gota;
},
{
code = "a d e h i k l m n r t u v w y";
name = degota;
},
{
code = "a.7.more.acc d.6.more.acc h.6.more.acc l.6.more.acc m.7.more.acc n.7.more.acc o.7.acc p.4.more.acc t.7.more.acc y.1.7.more.acc";
name = morefat;
},
{
code = "a d h l m n o p t y";
name = demorefat;
},
{
code = "a.8.acc g.777 k.44.acc r.4.4 y.4.acc b.new h.new l.new";
name = extra1;
},
{

glyphs = (
{
color = (255, 153, 153, 255);
glyphname = a;
layers = (
{
anchors = (
{
name = bottom;
position = "{217, -77}";
},
{
name = top;
position = "{233, 577}";
}
);
guides = (
{
position = "{0, -77}";
},
{
position = "{0, 294}";
}
);
layerId = "90448605-A80E-4A32-AE33-B790A1EB0DF1";
shapes = (
{
closed = 1;
nodes = (
(325,312,l),
(233,254,o),
(35,225,o),
(35,89,cs),
(35,22,o),
(88,-9,o),
(148,-9,cs),
(246,-9,o),
(293,61,o),
(321,160,c),
(325,160,l),
(323,137,o),
(322,124,o),
(322,101,cs),
(322,26,o),
(352,-9,o),
(405,-9,cs),
(447,-9,o),
(468,12,o),
(479,35,c),
(473,45,l),
(464,27,o),
(454,18,o),
(436,18,cs),
(400,18,o),
(395,52,o),
(395,106,cs),
(395,335,ls),
(395,421,o),
(356,500,o),
(238,500,cs),
(124,500,o),
(57,425,o),
(57,356,cs),
(57,326,o),
(69,306,o),
(98,306,cs),
(129,306,o),
(145,330,o),
(145,359,cs),
(145,386,o),
(131,411,o),
(119,422,c),
(140,463,o),
(177,487,o),
(227,487,cs),
(310,487,o),
(325,443,o),
(325,371,cs)
);
},
{
closed = 1;
nodes = (
(325,278,ls),
(325,190,o),
(289,26,o),
(179,26,cs),
(136,26,o),
(106,58,o),
(106,105,cs),
(106,186,o),
(201,236,o),
(275,271,c),
(294,279,o),
(311,287,o),
(325,294,c)
);
}
);
width = 478;
},
{
anchors = (
{
name = bottom;
position = "{272, -77}";
},
{
name = top;
position = "{271, 577}";
}
);
guides = (
{
position = "{0, -77}";
}
);
layerId = "97E2145D-66CE-4726-B996-40A38D9C79F6";
shapes = (
{
closed = 1;
nodes = (
(320,305,l),
(211,239,o),
(20,222,o),
(20,96,cs),
(20,35,o),
(74,-9,o),
(150,-9,cs),
(244,-9,o),
(293,51,o),
(315,149,c),
(324,149,l),
(323,137,o),
(322,125,o),
(322,115,cs),
(322,23,o),
(367,-9,o),
(440,-9,cs),
(483,-9,o),
(529,5,o),
(547,43,c),
(542,52,l),
(537,41,o),
(533,37,o),
(527,37,cs),
(514,37,o),
(510,54,o),
(510,110,cs),
(510,268,ls),
(510,396,o),
(469,500,o),
(284,500,cs),
(119,500,o),
(51,415,o),
(51,351,cs),
(51,299,o),
(79,266,o),
(127,266,cs),
(181,266,o),
(207,310,o),
(207,353,cs),
(207,388,o),
(191,422,o),
(158,437,c),
(169,461,o),
(204,485,o),
(243,485,cs),
(302,485,o),
(320,430,o),
(320,385,cs)
);
},
{
closed = 1;
nodes = (
(320,285,ls),
(320,147,o),
(281,52,o),
(241,52,cs),
(217,52,o),
(203,77,o),
(203,120,cs),
(203,182,o),
(238,231,o),
(282,265,cs),
(294,275,o),
(307,283,o),
(320,291,c)
);
}
);
width = 564;
}
);
leftKerningGroup = _kern1;
rightKerningGroup = _kern1;
unicode = 97;
},
{
color = (153, 255, 154, 255);
glyphname = a.5;
layers = (
{
background = {
shapes = (
{
closed = 1;
nodes = (
(338,309,l),
(230,237,o),
(21,226,o),
(21,96,cs),
(21,19,o),
(92,-7,o),
(146,-7,cs),
(250,-7,o),
(302,57,o),
(323,163,c),
(328,163,l),
(328,159,o),
(327,155,o),
(327,151,c),
(515,16,o),
(510,41,o),
(510,110,cs),
(510,268,ls),
(510,402,o),
(470,499,o),
(284,499,cs),
(127,499,o),
(56,418,o),
(56,350,cs),
(56,298,o),
(84,265,o),
(132,265,cs),
(186,265,o),
(212,309,o),
(212,352,cs),
(212,387,o),
(196,421,o),
(163,436,c),
(174,463,o),
(208,488,o),
(250,488,cs),
(306,488,o),
(325,433,o),
(325,385,cs),
(325,275,ls),
(325,135,o),
(283,49,o),
(238,49,cs),
(209,49,o),
(199,84,o),
(199,120,cs),
(199,208,o),
(275,268,o),
(344,299,c)
);
},
{
closed = 1;
nodes = (
(327,171,l),
(327,63,ls),
(327,-173,o),
(453,-420,o),
(764,-420,cs),
(942,-420,o),
(1024,-279,o),
(1024,-193,cs),
(1024,-123,o),
(983,-55,o),
(936,-47,c),
(935,-52,l),
(977,-62,o),
(1018,-125,o),
(1018,-193,cs),
(1018,-277,o),
(935,-411,o),
(765,-411,cs),
(515,-411,o),
(510,-168,o),
(510,63,cs),
(510,171,l)
);
}
);
};
layerId = "90448605-A80E-4A32-AE33-B790A1EB0DF1";
shapes = (
{
closed = 1;
nodes = (
(328,171,l),
(325,69,ls),
(320,-108,o),
(418,-230,o),
(578,-230,cs),
(654,-230,o),
(730,-200,o),
(761,-139,c),
(754,-132,l),
(723,-182,o),
(656,-215,o),
(592,-215,cs),
(483,-215,o),
(395,-141,o),
(395,31,cs),
(395,335,ls),
(395,421,o),
(356,500,o),
(238,500,cs),
(124,500,o),
(57,425,o),
(57,356,cs),
(57,326,o),
(69,306,o),
(98,306,cs),
(129,306,o),
(145,330,o),
(145,359,cs),
(145,386,o),
(131,411,o),
(119,422,c),
(140,463,o),
(177,487,o),
(227,487,cs),
(310,487,o),
(325,430,o),
(325,371,cs),
(325,306,l),
(232,243,o),
(35,224,o),
(35,89,cs),
(35,25,o),
(85,-9,o),
(143,-9,cs),
(255,-9,o),
(306,72,o),
(325,171,c)
);
},
{
closed = 1;
nodes = (
(325,278,ls),
(325,186,o),
(299,28,o),
(187,28,cs),
(126,28,o),
(106,74,o),
(106,109,cs),
(106,204,o),
(237,245,o),
(325,288,c)
);
}
);
width = 474;
},
{
background = {
shapes = (
{
closed = 1;
nodes = (
(322,305,l),
(213,239,o),
(22,222,o),
(22,96,cs),
(22,35,o),
(76,-9,o),
(152,-9,cs),
(246,-9,o),
(295,51,o),
(317,149,c),
(326,149,l),
(325,137,o),
(324,125,o),
(324,115,cs),
(324,23,o),
(369,-9,o),
(442,-9,cs),
(485,-9,o),
(531,5,o),
(549,43,c),
(544,52,l),
(539,41,o),
(535,37,o),
(529,37,cs),
(516,37,o),
(512,54,o),
(512,110,cs),
(512,268,ls),
(512,396,o),
(471,500,o),
(286,500,cs),
(121,500,o),
(53,415,o),
(53,351,cs),
(53,299,o),
(81,266,o),
(129,266,cs),
(183,266,o),
(209,310,o),
(209,353,cs),
(209,388,o),
(193,422,o),
(160,437,c),
(171,461,o),
(206,485,o),
(245,485,cs),
(304,485,o),
(322,430,o),
(322,385,cs)
);
},
{
closed = 1;
nodes = (
(322,285,ls),
(322,147,o),
(283,52,o),
(243,52,cs),
(219,52,o),
(205,77,o),
(205,120,cs),
(205,182,o),
(240,231,o),
(284,265,cs),
(296,275,o),
(309,283,o),
(322,291,c)
);
}
);
};
layerId = "97E2145D-66CE-4726-B996-40A38D9C79F6";
shapes = (
{
closed = 1;
nodes = (
(328,163,l),
(326,129,ls),
(315,-51,o),
(366,-239,o),
(680,-239,cs),
(768,-239,o),
(865,-208,o),
(892,-139,c),
(885,-132,l),
(862,-190,o),
(786,-220,o),
(721,-220,cs),
(613,-220,o),
(507,-145,o),
(507,31,cs),
(507,268,l),
(506,400,o),
(467,500,o),
(281,500,cs),
(124,500,o),
(53,415,o),
(53,351,cs),
(53,299,o),
(81,266,o),
(129,266,cs),
(183,266,o),
(209,310,o),
(209,353,cs),
(209,388,o),
(193,422,o),
(160,437,c),
(171,461,o),
(205,485,o),
(247,485,cs),
(303,485,o),
(322,430,o),
(322,385,cs),
(322,304,l),
(214,239,o),
(26,221,o),
(26,96,cs),
(26,15,o),
(104,-7,o),
(144,-7,cs),
(251,-7,o),
(301,55,o),
(321,163,c)
);
},
{
closed = 1;
nodes = (
(322,285,ls),
(322,145,o),
(283,49,o),
(243,49,cs),
(214,49,o),
(204,84,o),
(204,120,cs),
(204,200,o),
(263,257,o),
(322,290,c)
);
}
);
width = 566;
}
);
leftKerningGroup = _kern1;
rightKerningGroup = _kern1;
},
{
color = (153, 255, 154, 255);
glyphname = a.7;
layers = (
{
guides = (
{
angle = 90;
position = "{1019, 0}";
}
);
layerId = "90448605-A80E-4A32-AE33-B790A1EB0DF1";
shapes = (
{
closed = 1;
nodes = (
(146,386,o),
(132,411,o),
(120,422,c),
(141,463,o),
(178,487,o),
(228,487,cs),
(311,487,o),
(326,431,o),
(326,371,cs),
(326,305,l),
(244,249,o),
(36,221,o),
(36,95,cs),
(36,19,o),
(94,-9,o),
(156,-9,cs),
(260,-9,o),
(303,67,o),
(324,168,c),
(325,160,l),
(323,148,l),
(324,-177,o),
(573,-393,o),
(947,-393,cs),
(1257,-393,o),
(1592,-153,o),
(1592,201,cs),
(1592,526,o),
(1325,791,o),
(1000,791,cs),
(754,791,o),
(537,647,o),
(336,453,c),
(345,447,l),
(548,638,o),
(756,779,o),
(1000,779,cs),
(1319,779,o),
(1580,520,o),
(1580,201,cs),
(1580,-142,o),
(1255,-377,o),
(966,-377,cs),
(653,-377,o),
(396,-194,o),
(396,144,cs),
(396,335,ls),
(396,437,o),
(343,500,o),
(239,500,cs),
(125,500,o),
(58,428,o),
(58,356,cs),
(58,326,o),
(70,306,o),
(99,306,cs),
(130,306,o),
(146,330,o),
(146,359,cs)
);
},
{
closed = 1;
nodes = (
(51,137,l),
(-280,-227,o),
(-625,-610,o),
(-1108,-610,cs),
(-1581,-610,o),
(-1965,-227,o),
(-1965,247,cs),
(-1965,721,o),
(-1581,1106,o),
(-1108,1106,cs),
(-897,1106,o),
(-705,1029,o),
(-555,901,c),
(-548,911,l),
(-699,1039,o),
(-895,1118,o),
(-1108,1118,cs),
(-1588,1118,o),
(-1977,727,o),
(-1977,247,cs),
(-1977,-233,o),
(-1588,-622,o),
(-1108,-622,cs),
(-628,-622,o),
(-282,-246,o),
(47,117,c)
);
},
{
closed = 1;
nodes = (
(326,274,ls),
(326,182,o),
(294,28,o),
(188,28,cs),
(127,28,o),
(107,74,o),
(107,109,cs),
(107,204,o),
(238,245,o),
(326,288,c)
);
}
);
width = 468;
},
{
guides = (
{
angle = 90;
position = "{1019, 0}";
}
);
layerId = "97E2145D-66CE-4726-B996-40A38D9C79F6";
shapes = (
{
closed = 1;
nodes = (
(215,388,o),
(199,422,o),
(166,437,c),
(177,461,o),
(211,485,o),
(253,485,cs),
(309,485,o),
(328,431,o),
(328,385,cs),
(328,301,l),
(221,238,o),
(33,214,o),
(33,101,cs),
(33,32,o),
(97,-7,o),
(155,-7,cs),
(255,-7,o),
(306,57,o),
(326,163,c),
(335,163,l),
(333,151,l),
(333,-213,o),
(635,-386,o),
(1019,-386,cs),
(1344,-386,o),
(1609,-124,o),
(1609,201,cs),
(1609,526,o),
(1344,791,o),
(1019,791,cs),
(782,791,o),
(572,659,o),
(378,476,c),
(393,472,l),
(588,651,o),
(785,779,o),
(1019,779,cs),
(1338,779,o),
(1597,520,o),
(1597,201,cs),
(1597,-117,o),
(1338,-374,o),
(1019,-374,cs),
(747,-374,o),
(513,-269,o),
(513,134,cs),
(513,268,ls),
(513,429,o),
(451,500,o),
(287,500,cs),
(130,500,o),
(59,418,o),
(59,351,cs),
(59,299,o),
(87,266,o),
(135,266,cs),
(189,266,o),
(215,310,o),
(215,353,cs)
);
},
{
closed = 1;
nodes = (
(41,114,l),
(-286,-243,o),
(-629,-610,o),
(-1104,-610,cs),
(-1577,-610,o),
(-1961,-227,o),
(-1961,247,cs),
(-1961,721,o),
(-1577,1106,o),
(-1104,1106,cs),
(-893,1106,o),
(-701,1029,o),
(-551,900,c),
(-544,911,l),
(-695,1039,o),
(-891,1118,o),
(-1104,1118,cs),
(-1584,1118,o),
(-1973,727,o),
(-1973,247,cs),
(-1973,-233,o),
(-1584,-622,o),
(-1104,-622,cs),
(-630,-622,o),
(-285,-257,o),
(41,101,c)
);
},
{
closed = 1;
nodes = (
(328,280,ls),
(328,140,o),
(289,49,o),
(247,49,cs),
(218,49,o),
(208,84,o),
(208,120,cs),
(208,200,o),
(269,254,o),
(328,287,c)
);
}
);
width = 570;
}
);
leftKerningGroup = _kern1;
rightKerningGroup = _kern1;
},
{
color = (153, 255, 154, 255);
glyphname = a.7.b;
layers = (
{
anchors = (
{
name = top;
position = "{239, 577}";
}
);
background = {
shapes = (
{
closed = 1;
nodes = (
(337,151,l),
(337,-193,o),
(602,-388,o),
(952,-388,cs),
(1271,-388,o),
(1600,-179,o),
(1604,201,c),
(1616,550,o),
(1341,804,o),
(1016,804,cs),
(770,804,o),
(559,672,o),
(357,456,c),
(362,452,l),
(563,643,o),
(774,758,o),
(1016,758,cs),
(1337,758,o),
(1610,524,o),
(1598,201,c),
(1593,-173,o),
(1265,-382,o),
(952,-382,cs),
(674,-382,o),
(412,-217,o),
(412,144,c)
);
},
{
closed = 1;
nodes = (
(347,308,l),
(256,243,o),
(32,226,o),
(32,89,cs),
(32,19,o),
(90,-9,o),
(133,-9,cs),
(254,-9,o),
(316,82,o),
(340,188,c),
(337,202,l),
(337,200,o),
(337,173,o),
(337,151,c),
(412,144,l),
(412,335,ls),
(412,424,o),
(380,500,o),
(247,500,cs),
(133,500,o),
(60,428,o),
(60,356,cs),
(60,326,o),
(72,306,o),
(101,306,cs),
(132,306,o),
(148,330,o),
(148,359,cs),
(148,386,o),
(134,411,o),
(122,422,c),
(143,465,o),
(186,490,o),
(236,490,cs),
(323,490,o),
(342,432,o),
(342,371,cs),
(342,265,ls),
(342,173,o),
(295,28,o),
(183,28,cs),
(122,28,o),
(102,74,o),
(102,109,cs),
(102,208,o),
(266,254,o),
(353,298,c)
);
},
{
closed = 1;
nodes = (
(51,128,l),
(-278,-217,o),
(-627,-596,o),
(-1107,-596,cs),
(-1583,-596,o),
(-1970,-207,o),
(-1970,247,cs),
(-1970,723,o),
(-1583,1110,o),
(-1107,1110,cs),
(-896,1110,o),
(-702,1034,o),
(-552,907,c),
(-547,911,l),
(-698,1039,o),
(-894,1116,o),
(-1107,1116,cs),
(-1587,1116,o),
(-1976,727,o),
(-1976,247,cs),
(-1976,-255,o),
(-1587,-666,o),
(-1107,-666,cs),
(-623,-666,o),
(-275,-258,o),
(57,128,c)
);
},
{
closed = 1;
nodes = (
(329,305,l),
(238,240,o),
(32,226,o),
(32,89,cs),
(32,22,o),
(85,-9,o),
(145,-9,cs),
(256,-9,o),
(302,75,o),
(321,178,c),
(319,186,l),
(319,182,o),
(319,105,o),
(319,101,cs),
(319,26,o),
(349,-9,o),
(402,-9,cs),
(444,-9,o),
(465,12,o),
(476,35,c),
(472,38,l),
(463,20,o),
(451,11,o),
(433,11,cs),
(397,11,o),
(392,48,o),
(392,106,cs),
(392,335,ls),
(392,428,o),
(353,500,o),
(235,500,cs),
(121,500,o),
(54,431,o),
(54,356,cs),
(54,326,o),
(66,306,o),
(95,306,cs),
(126,306,o),
(142,330,o),
(142,359,cs),
(142,386,o),
(128,411,o),
(116,422,c),
(137,469,o),
(174,495,o),
(224,495,cs),
(307,495,o),
(322,435,o),
(322,371,cs),
(322,252,ls),
(322,160,o),
(296,28,o),
(184,28,cs),
(123,28,o),
(103,74,o),
(103,109,cs),
(103,208,o),
(245,253,o),
(332,297,c)
);
}
);
};
guides = (
{
position = "{0, -536}";
}
);
layerId = "90448605-A80E-4A32-AE33-B790A1EB0DF1";
shapes = (
{
closed = 1;
nodes = (
(36,20,o),
(90,-10,o),
(151,-10,cs),
(262,-10,o),
(303,69,o),
(324,162,c),
(323,148,l),
(323,143,ls),
(323,-192,o),
(587,-388,o),
(936,-388,cs),
(1255,-388,o),
(1573,-179,o),
(1588,201,cs),
(1602,550,o),
(1325,804,o),
(1000,804,cs),
(752,804,o),
(541,670,o),
(337,451,c),
(344,448,l),
(546,641,o),
(756,758,o),
(1000,758,cs),
(1320,758,o),
(1595,524,o),
(1580,201,cs),
(1563,-173,o),
(1250,-376,o),
(936,-376,cs),
(658,-376,o),
(396,-213,o),
(396,144,cs),
(396,335,ls),
(396,438,o),
(344,500,o),
(239,500,cs),
(125,500,o),
(58,428,o),
(58,356,cs),
(58,326,o),
(70,306,o),
(99,306,cs),
(130,306,o),
(146,330,o),
(146,359,cs),
(146,386,o),
(132,411,o),
(120,422,c),
(142,463,o),
(180,487,o),
(231,487,cs),
(312,487,o),
(326,430,o),
(326,371,cs),
(326,304,l),
(239,244,o),
(36,226,o),
(36,89,cs)
);
},
{
closed = 1;
nodes = (
(-544,911,l),
(-695,1039,o),
(-891,1116,o),
(-1104,1116,cs),
(-1585,1116,o),
(-1975,727,o),
(-1975,247,cs),
(-1975,-255,o),
(-1585,-666,o),
(-1104,-666,cs),
(-626,-666,o),
(-279,-269,o),
(49,113,c),
(49,122,l),
(-279,-221,o),
(-627,-596,o),
(-1104,-596,cs),
(-1578,-596,o),
(-1963,-207,o),
(-1963,247,cs),
(-1963,720,o),
(-1578,1104,o),
(-1104,1104,cs),
(-893,1104,o),
(-701,1029,o),
(-551,902,c)
);
},
{
closed = 1;
nodes = (
(326,273,ls),
(326,181,o),
(296,28,o),
(188,28,cs),
(127,28,o),
(107,74,o),
(107,109,cs),
(107,203,o),
(237,245,o),
(326,288,c)
);
}
);
width = 468;
},
{
anchors = (
{
name = top;
position = "{288, 577}";
}
);
guides = (
{
position = "{0, -536}";
}
);
layerId = "97E2145D-66CE-4726-B996-40A38D9C79F6";
shapes = (
{
closed = 1;
nodes = (
(24,30,o),
(75,-7,o),
(145,-7,cs),
(266,-7,o),
(304,57,o),
(326,163,c),
(335,163,l),
(334,151,l),
(334,-219,o),
(631,-396,o),
(1009,-396,cs),
(1340,-396,o),
(1608,-132,o),
(1611,216,c),
(1621,565,o),
(1344,820,o),
(1019,820,cs),
(781,820,o),
(576,678,o),
(380,474,c),
(389,472,l),
(583,650,o),
(785,760,o),
(1019,760,cs),
(1339,760,o),
(1610,522,o),
(1599,201,c),
(1595,-115,o),
(1350,-374,o),
(1019,-374,cs),
(747,-374,o),
(513,-269,o),
(513,134,cs),
(513,268,ls),
(513,428,o),
(451,500,o),
(287,500,cs),
(130,500,o),
(59,418,o),
(59,351,cs),
(59,299,o),
(87,266,o),
(135,266,cs),
(189,266,o),
(215,310,o),
(215,353,cs),
(215,388,o),
(199,422,o),
(166,437,c),
(178,461,o),
(213,485,o),
(256,485,cs),
(310,485,o),
(328,430,o),
(328,385,cs),
(328,304,l),
(219,239,o),
(24,223,o),
(24,102,cs)
);
},
{
closed = 1;
nodes = (
(-544,911,l),
(-695,1039,o),
(-889,1116,o),
(-1104,1116,cs),
(-1584,1116,o),
(-1975,738,o),
(-1975,237,cs),
(-1975,-264,o),
(-1585,-702,o),
(-1116,-702,cs),
(-634,-702,o),
(-266,-251,o),
(33,101,c),
(35,113,l),
(-281,-205,o),
(-629,-509,o),
(-1100,-509,cs),
(-1579,-509,o),
(-1959,-189,o),
(-1959,264,cs),
(-1959,714,o),
(-1581,1104,o),
(-1104,1104,cs),
(-889,1104,o),
(-696,1025,o),
(-551,902,c)
);
},
{
closed = 1;
nodes = (
(328,275,ls),
(328,135,o),
(286,49,o),
(241,49,cs),
(212,49,o),
(202,84,o),
(202,120,cs),
(202,199,o),
(264,257,o),
(328,290,c)
);
}
);
width = 570;
}
);
leftKerningGroup = _kern1;
rightKerningGroup = _kern1;
},
{
color = (153, 255, 154, 255);
glyphname = a.7.more;
layers = (
{
background = {
shapes = (
{
closed = 1;
nodes = (
(-623,-622,o),
(-275,-238,o),
(57,128,c),
(47,128,l),
(-282,-236,o),
(-627,-616,o),
(-1107,-616,cs),
(-1583,-616,o),
(-1970,-229,o),
(-1970,247,cs),
(-1970,723,o),
(-1583,1110,o),
(-1107,1110,cs),
(-685,1110,o),
(-414,868,o),
(-32,868,cs),
(139,868,o),
(293,933,o),
(396,1046,c),
(388,1048,l),
(286,938,o),
(136,874,o),
(-32,874,cs),
(-411,874,o),
(-677,1116,o),
(-1107,1116,cs),
(-1587,1116,o),
(-1976,727,o),
(-1976,247,cs),
(-1976,-233,o),
(-1587,-622,o),
(-1107,-622,cs)
);
}
);
};
layerId = "90448605-A80E-4A32-AE33-B790A1EB0DF1";
shapes = (
{
closed = 1;
nodes = (
(326,306,l),
(239,249,o),
(36,222,o),
(36,90,cs),
(36,22,o),
(89,-9,o),
(149,-9,cs),
(262,-9,o),
(304,70,o),
(324,163,c),
(323,151,l),
(323,140,l),
(324,-182,o),
(573,-393,o),
(947,-393,cs),
(1257,-393,o),
(1590,-153,o),
(1590,201,cs),
(1590,526,o),
(1325,789,o),
(1000,789,cs),
(753,789,o),
(539,647,o),
(336,453,c),
(343,444,l),
(546,634,o),
(756,777,o),
(1000,777,cs),
(1318,777,o),
(1578,519,o),
(1578,201,cs),
(1578,-142,o),
(1254,-377,o),
(966,-377,c),
(653,-375,o),
(396,-194,o),
(396,144,cs),
(396,335,ls),
(396,437,o),
(343,500,o),
(239,500,cs),
(125,500,o),
(58,428,o),
(58,356,cs),
(58,326,o),
(70,306,o),
(99,306,cs),
(130,306,o),
(146,330,o),
(146,359,cs),
(146,386,o),
(132,411,o),
(120,422,c),
(141,463,o),
(178,487,o),
(228,487,cs),
(311,487,o),
(326,431,o),
(326,371,cs)
);
},
{
closed = 1;
nodes = (
(50,131,l),
(-279,-232,o),
(-623,-610,o),
(-1104,-610,cs),
(-1577,-610,o),
(-1961,-226,o),
(-1961,247,cs),
(-1961,720,o),
(-1577,1104,o),
(-1104,1104,cs),
(-682,1104,o),
(-411,866,o),
(-29,866,cs),
(143,866,o),
(298,932,o),
(401,1046,c),
(389,1053,l),
(287,943,o),
(138,878,o),
(-29,878,cs),
(-408,878,o),
(-674,1116,o),
(-1104,1116,cs),
(-1584,1116,o),
(-1973,727,o),
(-1973,247,cs),
(-1973,-233,o),
(-1584,-622,o),
(-1104,-622,cs),
(-626,-622,o),
(-281,-251,o),
(47,111,c)
);
},
{
closed = 1;
nodes = (
(326,273,ls),
(326,181,o),
(295,28,o),
(188,28,cs),
(127,28,o),
(107,74,o),
(107,109,cs),
(107,204,o),
(238,245,o),
(326,288,c)
);
}
);
width = 468;
},
{
layerId = "97E2145D-66CE-4726-B996-40A38D9C79F6";
shapes = (
{
closed = 1;
nodes = (
(328,301,l),
(218,238,o),
(27,208,o),
(24,94,cs),
(22,24,o),
(93,-7,o),
(149,-7,cs),
(253,-7,o),
(305,57,o),
(326,163,c),
(335,163,l),
(334,151,l),
(334,-213,o),
(635,-386,o),
(1019,-386,cs),
(1344,-386,o),
(1607,-124,o),
(1607,201,cs),
(1607,526,o),
(1344,789,o),
(1019,789,cs),
(781,789,o),
(573,659,o),
(378,476,c),
(389,469,l),
(584,647,o),
(785,777,o),
(1019,777,cs),
(1337,777,o),
(1595,519,o),
(1595,201,cs),
(1595,-117,o),
(1337,-374,o),
(1019,-374,c),
(747,-373,o),
(513,-269,o),
(513,134,cs),
(513,268,ls),
(513,429,o),
(451,500,o),
(287,500,cs),
(130,500,o),
(59,418,o),
(59,351,cs),
(59,299,o),
(87,266,o),
(135,266,cs),
(189,266,o),
(215,310,o),
(215,353,cs),
(215,388,o),
(199,422,o),
(166,437,c),
(177,461,o),
(211,485,o),
(253,485,cs),
(309,485,o),
(328,431,o),
(328,385,cs)
);
},
{
closed = 1;
nodes = (
(35,114,l),
(-289,-243,o),
(-631,-610,o),
(-1104,-610,cs),
(-1577,-610,o),
(-1961,-226,o),
(-1961,247,cs),
(-1961,720,o),
(-1577,1104,o),
(-1104,1104,cs),
(-682,1104,o),
(-411,866,o),
(-29,866,cs),
(143,866,o),
(298,932,o),
(401,1046,c),
(389,1053,l),
(287,943,o),
(138,878,o),
(-29,878,cs),
(-408,878,o),
(-674,1116,o),
(-1104,1116,cs),
(-1584,1116,o),
(-1973,727,o),
(-1973,247,cs),
(-1973,-233,o),
(-1584,-622,o),
(-1104,-622,cs),
(-632,-622,o),
(-290,-260,o),
(34,98,c)
);
},
{
closed = 1;
nodes = (
(328,280,ls),
(328,140,o),
(286,49,o),
(241,49,cs),
(212,49,o),
(202,84,o),
(202,120,cs),
(202,200,o),
(265,254,o),
(328,287,c)
);
}
);
width = 570;
}
);
leftKerningGroup = _kern1;
rightKerningGroup = _kern1;
},
{
color = (153, 255, 154, 255);
glyphname = a.7.more.acc;
layers = (
{
background = {
shapes = (
{
closed = 1;
nodes = (
(1273,-393,o),
(1606,-153,o),
(1606,201,cs),
(1606,544,o),
(1341,822,o),
(1016,822,cs),
(770,822,o),
(559,667,o),
(357,455,c),
(365,452,l),
(566,643,o),
(774,783,o),
(1016,783,cs),
(1337,783,o),
(1600,522,o),
(1600,201,cs),
(1600,-145,o),
(1273,-383,o),
(982,-383,cs),
(669,-382,o),
(412,-198,o),
(412,144,c),
(337,151,l),
(337,-179,o),
(588,-393,o),
(963,-393,cs)
);
},
{
closed = 1;
nodes = (
(-623,-654,o),
(-275,-253,o),
(57,128,c),
(47,128,l),
(-282,-215,o),
(-627,-564,o),
(-1107,-564,cs),
(-1583,-564,o),
(-1970,-205,o),
(-1970,247,cs),
(-1970,723,o),
(-1583,1110,o),
(-1107,1110,cs),
(-685,1110,o),
(-414,868,o),
(-32,868,cs),
(139,868,o),
(293,933,o),
(396,1046,c),
(388,1048,l),
(286,938,o),
(136,874,o),
(-32,874,cs),
(-411,874,o),
(-677,1116,o),
(-1107,1116,cs),
(-1587,1116,o),
(-1976,727,o),
(-1976,247,cs),
(-1976,-250,o),
(-1586,-654,o),
(-1107,-654,cs)
);
},
{
closed = 1;
nodes = (
(347,308,l),
(256,243,o),
(32,226,o),
(32,89,cs),
(32,19,o),
(90,-9,o),
(133,-9,cs),
(254,-9,o),
(316,82,o),
(340,188,c),
(337,202,l),
(337,200,o),
(337,173,o),
(337,151,c),
(412,144,l),
(412,335,ls),
(412,424,o),
(380,500,o),
(247,500,cs),
(133,500,o),
(60,428,o),
(60,356,cs),
(60,326,o),
(72,306,o),
(101,306,cs),
(132,306,o),
(148,330,o),
(148,359,cs),
(148,386,o),
(134,411,o),
(122,422,c),
(143,465,o),
(186,490,o),
(236,490,cs),
(320,490,o),
(342,432,o),
(342,371,cs),
(342,265,ls),
(342,173,o),
(295,28,o),
(183,28,cs),
(122,28,o),
(102,74,o),
(102,109,cs),
(102,208,o),
(266,254,o),
(353,298,c)
);
}
);
};
layerId = "90448605-A80E-4A32-AE33-B790A1EB0DF1";
shapes = (
{
closed = 1;
nodes = (
(326,306,l),
(304,291,o),
(275,281,o),
(243,268,cs),
(163,234,o),
(62,195,o),
(40,121,c),
(-288,-220,o),
(-626,-564,o),
(-1104,-564,cs),
(-1577,-564,o),
(-1961,-205,o),
(-1961,247,cs),
(-1961,721,o),
(-1577,1104,o),
(-1104,1104,cs),
(-682,1104,o),
(-411,866,o),
(-29,866,cs),
(142,866,o),
(298,933,o),
(401,1046,c),
(388,1054,l),
(286,944,o),
(138,878,o),
(-29,878,cs),
(-408,878,o),
(-674,1116,o),
(-1104,1116,cs),
(-1584,1116,o),
(-1973,727,o),
(-1973,247,cs),
(-1973,-250,o),
(-1583,-654,o),
(-1104,-654,cs),
(-631,-654,o),
(-289,-273,o),
(36,100,c),
(36,38,o),
(70,-9,o),
(137,-9,cs),
(260,-9,o),
(303,59,o),
(324,159,c),
(332,158,l),
(332,153,ls),
(332,-175,o),
(573,-393,o),
(947,-393,cs),
(1257,-393,o),
(1584,-153,o),
(1590,201,cs),
(1595,547,o),
(1325,822,o),
(1000,822,cs),
(757,822,o),
(549,671,o),
(349,464,c),
(323,487,o),
(286,500,o),
(239,500,cs),
(125,500,o),
(58,428,o),
(58,356,cs),
(58,326,o),
(70,306,o),
(99,306,cs),
(130,306,o),
(146,330,o),
(146,359,cs),
(146,386,o),
(132,411,o),
(120,422,c),
(141,463,o),
(178,487,o),
(228,487,cs),
(311,487,o),
(326,431,o),
(326,371,cs)
);
},
{
closed = 1;
nodes = (
(558,645,o),
(760,783,o),
(1000,783,cs),
(1318,783,o),
(1584,525,o),
(1578,201,cs),
(1572,-142,o),
(1254,-377,o),
(966,-377,c),
(653,-375,o),
(396,-194,o),
(396,144,cs),
(396,335,ls),
(396,386,o),
(384,427,o),
(358,455,c)
);
},
{
closed = 1;
nodes = (
(326,273,ls),
(326,181,o),
(298,28,o),
(188,28,cs),
(127,28,o),
(107,74,o),
(107,109,cs),
(107,204,o),
(238,245,o),
(326,288,c)
);
}
);
width = 468;
},
{
layerId = "97E2145D-66CE-4726-B996-40A38D9C79F6";
shapes = (
{
closed = 1;
nodes = (
(328,301,l),
(298,283,o),
(265,271,o),
(233,259,cs),
(161,232,o),
(33,199,o),
(24,106,c),
(-299,-217,o),
(-635,-544,o),
(-1104,-544,cs),
(-1577,-544,o),
(-1961,-189,o),
(-1961,247,cs),
(-1961,721,o),
(-1577,1104,o),
(-1104,1104,cs),
(-682,1104,o),
(-411,866,o),
(-29,866,cs),
(142,866,o),
(298,933,o),
(401,1046,c),
(388,1054,l),
(286,944,o),
(138,878,o),
(-29,878,cs),
(-408,878,o),
(-674,1116,o),
(-1104,1116,cs),
(-1584,1116,o),
(-1973,727,o),
(-1973,247,cs),
(-1973,-262,o),
(-1584,-674,o),
(-1104,-674,cs),
(-637,-674,o),
(-298,-292,o),
(23,86,c),
(28,23,o),
(89,-7,o),
(149,-7,cs),
(253,-7,o),
(305,57,o),
(326,163,c),
(335,163,l),
(334,151,l),
(334,-213,o),
(635,-386,o),
(1019,-386,cs),
(1344,-386,o),
(1607,-124,o),
(1607,201,cs),
(1607,539,o),
(1344,823,o),
(1019,823,cs),
(785,823,o),
(583,678,o),
(390,486,c),
(361,495,o),
(327,500,o),
(287,500,cs),
(130,500,o),
(59,418,o),
(59,351,cs),
(59,299,o),
(87,266,o),
(135,266,cs),
(189,266,o),
(215,310,o),
(215,353,cs),
(215,388,o),
(199,422,o),
(166,437,c),
(177,461,o),
(211,485,o),
(253,485,cs),
(309,485,o),
(328,431,o),
(328,385,cs)
);
},
{
closed = 1;
nodes = (
(596,658,o),
(789,783,o),
(1019,783,cs),
(1337,783,o),
(1596,522,o),
(1596,201,cs),
(1596,-117,o),
(1337,-374,o),
(1019,-374,c),
(747,-373,o),
(513,-269,o),
(513,134,cs),
(513,268,ls),
(513,383,o),
(479,451,o),
(404,481,c)
);
},
{
closed = 1;
nodes = (
(328,280,ls),
(328,140,o),
(286,49,o),
(241,49,cs),
(212,49,o),
(202,84,o),
(202,120,cs),
(202,200,o),
(265,254,o),
(328,287,c)
);
}
);
width = 570;
}
);
leftKerningGroup = _kern1;
rightKerningGroup = _kern1;
},
{
color = (153, 255, 154, 255);
glyphname = a.4;
layers = (
{
background = {
shapes = (
{
closed = 1;
nodes = (
(338,309,l),
(228,237,o),
(16,226,o),
(16,96,cs),
(16,19,o),
(90,-9,o),
(146,-9,cs),
(250,-9,o),
(302,57,o),
(323,163,c),
(328,163,l),
(328,159,o),
(327,155,o),
(327,151,c),
(515,138,l),
(515,268,ls),
(515,402,o),
(474,499,o),
(284,499,cs),
(127,499,o),
(56,418,o),
(56,350,cs),
(56,298,o),
(84,265,o),
(132,265,cs),
(186,265,o),
(212,309,o),
(212,352,cs),
(212,387,o),
(196,421,o),
(163,436,c),
(174,463,o),
(208,488,o),
(250,488,cs),
(306,488,o),
(325,433,o),
(325,385,cs),
(325,275,ls),
(325,135,o),
(283,49,o),
(238,49,cs),
(209,49,o),
(199,84,o),
(199,120,cs),
(199,208,o),
(275,268,o),
(344,299,c)
);
},
{
closed = 1;
nodes = (
(342,290,l),
(337,99,l),
(337,-231,o),
(629,-413,o),
(971,-413,cs),
(1314,-413,o),
(1591,-136,o),
(1591,207,cs),
(1591,544,o),
(1318,817,o),
(981,817,cs),
(823,817,o),
(679,757,o),
(571,659,c),
(577,655,l),
(684,752,o),
(826,811,o),
(981,811,cs),
(1314,811,o),
(1585,540,o),
(1585,207,cs),
(1585,-126,o),
(1314,-397,o),
(981,-397,cs),
(684,-397,o),
(414,-231,o),
(412,138,c),
(393,258,l)
);
}
);
};
layerId = "90448605-A80E-4A32-AE33-B790A1EB0DF1";
shapes = (
{
closed = 1;
nodes = (
(325,306,l),
(232,243,o),
(35,224,o),
(35,89,cs),
(35,19,o),
(93,-9,o),
(136,-9,cs),
(253,-9,o),
(301,54,o),
(322,152,c),
(322,114,ls),
(322,-254,o),
(587,-414,o),
(913,-414,cs),
(1268,-414,o),
(1578,-161,o),
(1578,207,cs),
(1578,544,o),
(1303,817,o),
(964,817,cs),
(806,817,o),
(662,757,o),
(554,659,c),
(563,651,l),
(669,748,o),
(810,805,o),
(964,805,cs),
(1296,805,o),
(1566,537,o),
(1566,207,cs),
(1566,-154,o),
(1259,-401,o),
(924,-401,cs),
(643,-401,o),
(395,-231,o),
(395,109,cs),
(395,335,ls),
(395,424,o),
(356,500,o),
(238,500,cs),
(124,500,o),
(57,428,o),
(57,356,cs),
(57,326,o),
(69,306,o),
(98,306,cs),
(129,306,o),
(145,330,o),
(145,359,cs),
(145,386,o),
(131,411,o),
(119,422,c),
(140,463,o),
(177,487,o),
(227,487,cs),
(310,487,o),
(325,431,o),
(325,371,cs)
);
},
{
closed = 1;
nodes = (
(325,273,ls),
(325,181,o),
(299,28,o),
(187,28,cs),
(126,28,o),
(106,74,o),
(106,109,cs),
(106,204,o),
(237,245,o),
(325,288,c)
);
}
);
width = 469;
},
{
layerId = "97E2145D-66CE-4726-B996-40A38D9C79F6";
shapes = (
{
closed = 1;
nodes = (
(328,301,l),
(215,236,o),
(19,221,o),
(19,96,cs),
(19,19,o),
(93,-9,o),
(149,-9,cs),
(253,-9,o),
(305,57,o),
(326,163,c),
(335,163,l),
(329,-192,o),
(653,-413,o),
(1027,-413,cs),
(1372,-413,o),
(1651,-136,o),
(1651,207,cs),
(1651,544,o),
(1376,817,o),
(1037,817,cs),
(879,817,o),
(735,757,o),
(627,659,c),
(636,651,l),
(742,748,o),
(883,805,o),
(1037,805,cs),
(1369,805,o),
(1639,537,o),
(1639,207,cs),
(1639,-125,o),
(1362,-395,o),
(1037,-395,cs),
(766,-395,o),
(518,-230,o),
(518,138,cs),
(518,268,ls),
(518,403,o),
(477,500,o),
(287,500,cs),
(130,500,o),
(59,418,o),
(59,351,cs),
(59,299,o),
(87,266,o),
(135,266,cs),
(189,266,o),
(215,310,o),
(215,353,cs),
(215,388,o),
(199,422,o),
(166,437,c),
(177,461,o),
(211,485,o),
(253,485,cs),
(309,485,o),
(328,431,o),
(328,385,cs)
);
},
{
closed = 1;
nodes = (
(328,280,ls),
(328,140,o),
(286,49,o),
(241,49,cs),
(212,49,o),
(202,84,o),
(202,120,cs),
(202,200,o),
(265,254,o),
(328,287,c)
);
}
);
width = 575;
}
);
leftKerningGroup = _kern1;
rightKerningGroup = _kern1;
},
{
color = (153, 255, 154, 255);
glyphname = a.8;
layers = (
{
layerId = "90448605-A80E-4A32-AE33-B790A1EB0DF1";
shapes = (
{
closed = 1;
nodes = (
(-1020,628,l),
(-1134,722,o),
(-1281,779,o),
(-1440,779,cs),
(-1803,779,o),
(-2096,485,o),
(-2096,119,cs),
(-2096,-242,o),
(-1812,-536,o),
(-1418,-536,cs),
(-1040,-536,o),
(-745,-279,o),
(-476,-23,cs),
(-218,222,o),
(31,487,o),
(228,487,cs),
(311,487,o),
(333,430,o),
(333,371,cs),
(333,306,l),
(245,243,o),
(39,224,o),
(39,89,cs),
(39,19,o),
(97,-9,o),
(140,-9,cs),
(240,-9,o),
(300,55,o),
(327,155,c),
(329,156,l),
(328,114,l),
(322,24,o),
(357,-9,o),
(412,-9,cs),
(448,-9,o),
(481,5,o),
(493,30,c),
(488,39,l),
(479,25,o),
(467,18,o),
(449,18,cs),
(417,18,o),
(403,39,o),
(403,110,cs),
(403,335,ls),
(403,424,o),
(357,500,o),
(239,500,cs),
(39,500,o),
(-224,229,o),
(-490,-22,cs),
(-756,-273,o),
(-1051,-524,o),
(-1414,-524,cs),
(-1809,-524,o),
(-2084,-235,o),
(-2084,119,cs),
(-2084,481,o),
(-1798,767,o),
(-1440,767,cs),
(-1282,767,o),
(-1137,712,o),
(-1024,616,c)
);
},
{
closed = 1;
nodes = (
(333,270,ls),
(333,109,o),
(244,28,o),
(189,28,cs),
(128,28,o),
(108,74,o),
(108,109,cs),
(108,204,o),
(251,245,o),
(333,288,c)
);
},
{
closed = 1;
nodes = (
(130,296,o),
(152,323,o),
(152,356,cs),
(152,389,o),
(130,416,o),
(102,416,cs),
(74,416,o),
(53,389,o),
(53,356,cs),
(53,323,o),
(74,296,o),
(102,296,cs)
);
}
);
width = 486;
},
{
layerId = "97E2145D-66CE-4726-B996-40A38D9C79F6";
shapes = (
{
closed = 1;
nodes = (
(-1007,628,l),
(-1121,722,o),
(-1268,779,o),
(-1427,779,cs),
(-1790,779,o),
(-2083,485,o),
(-2083,119,cs),
(-2083,-242,o),
(-1799,-536,o),
(-1405,-536,cs),
(-1027,-536,o),
(-731,-280,o),
(-463,-24,cs),
(-205,222,o),
(11,486,o),
(237,486,cs),
(311,486,o),
(329,449,o),
(329,385,cs),
(329,301,l),
(216,236,o),
(20,221,o),
(20,96,cs),
(20,19,o),
(94,-9,o),
(150,-9,cs),
(254,-9,o),
(306,57,o),
(327,163,c),
(336,163,l),
(335,151,l),
(334,42,o),
(365,-9,o),
(449,-9,cs),
(492,-9,o),
(538,5,o),
(556,43,c),
(551,52,l),
(546,41,o),
(541,37,o),
(535,37,cs),
(522,37,o),
(519,54,o),
(519,110,cs),
(519,268,ls),
(519,455,o),
(422,503,o),
(264,503,cs),
(29,503,o),
(-203,238,o),
(-474,-22,cs),
(-738,-276,o),
(-1038,-526,o),
(-1401,-526,cs),
(-1796,-526,o),
(-2073,-236,o),
(-2073,118,cs),
(-2073,480,o),
(-1784,769,o),
(-1426,769,cs),
(-1268,769,o),
(-1124,711,o),
(-1011,616,c)
);
},
{
closed = 1;
nodes = (
(329,280,ls),
(329,140,o),
(287,49,o),
(242,49,cs),
(213,49,o),
(203,84,o),
(203,120,cs),
(203,200,o),
(266,254,o),
(329,287,c)
);
},
{
closed = 1;
nodes = (
(185,266,o),
(220,304,o),
(220,351,cs),
(220,398,o),
(185,437,o),
(142,437,cs),
(99,437,o),
(64,398,o),
(64,351,cs),
(64,304,o),
(99,266,o),
(142,266,cs)
);
}
);
width = 575;
}
);
leftKerningGroup = _kern1;
rightKerningGroup = _kern1;
},
{
color = (153, 255, 154, 255);
glyphname = a.8.acc;
layers = (
{
layerId = "90448605-A80E-4A32-AE33-B790A1EB0DF1";
rightMetricsKey = a;
shapes = (
{
closed = 1;
nodes = (
(56,500,o),
(-203,256,o),
(-470,-22,cs),
(-714,-276,o),
(-1034,-486,o),
(-1397,-486,cs),
(-1793,-486,o),
(-2071,-214,o),
(-2071,117,cs),
(-2071,479,o),
(-1781,767,o),
(-1421,767,cs),
(-1263,767,o),
(-1121,711,o),
(-1008,619,c),
(-1003,628,l),
(-1117,722,o),
(-1264,779,o),
(-1423,779,cs),
(-1787,779,o),
(-2081,485,o),
(-2081,119,cs),
(-2081,-285,o),
(-1773,-576,o),
(-1397,-576,cs),
(-1020,-576,o),
(-729,-299,o),
(-461,-23,cs),
(-213,232,o),
(53,487,o),
(245,487,cs),
(328,487,o),
(350,430,o),
(350,371,cs),
(350,306,l),
(262,243,o),
(56,224,o),
(56,89,cs),
(56,19,o),
(112,-9,o),
(165,-9,cs),
(263,-9,o),
(318,54,o),
(344,154,c),
(347,172,l),
(345,114,l),
(339,24,o),
(374,-9,o),
(429,-9,cs),
(465,-9,o),
(498,5,o),
(510,30,c),
(505,39,l),
(496,25,o),
(484,18,o),
(466,18,cs),
(434,18,o),
(420,39,o),
(420,110,cs),
(420,335,ls),
(420,424,o),
(374,500,o),
(256,500,cs)
);
},
{
closed = 1;
nodes = (
(350,270,ls),
(350,109,o),
(261,28,o),
(206,28,cs),
(145,28,o),
(125,74,o),
(125,109,cs),
(125,204,o),
(268,245,o),
(350,288,c)
);
},
{
closed = 1;
nodes = (
(147,296,o),
(169,323,o),
(169,356,cs),
(169,389,o),
(147,416,o),
(119,416,cs),
(91,416,o),
(70,389,o),
(70,356,cs),
(70,323,o),
(91,296,o),
(119,296,cs)
);
}
);
width = 509;
},
{
layerId = "97E2145D-66CE-4726-B996-40A38D9C79F6";
shapes = (
{
closed = 1;
nodes = (
(28,503,o),
(-197,270,o),
(-474,-22,cs),
(-713,-274,o),
(-1039,-471,o),
(-1402,-471,cs),
(-1798,-471,o),
(-2076,-205,o),
(-2076,117,cs),
(-2076,479,o),
(-1786,767,o),
(-1426,767,cs),
(-1268,767,o),
(-1126,711,o),
(-1013,619,c),
(-1008,628,l),
(-1122,722,o),
(-1269,779,o),
(-1428,779,cs),
(-1792,779,o),
(-2086,485,o),
(-2086,119,cs),
(-2086,-273,o),
(-1800,-591,o),
(-1404,-591,cs),
(-1027,-591,o),
(-728,-309,o),
(-461,-24,cs),
(-217,236,o),
(15,486,o),
(236,486,cs),
(310,486,o),
(328,449,o),
(328,385,cs),
(328,301,l),
(215,236,o),
(19,221,o),
(19,96,cs),
(19,19,o),
(93,-9,o),
(149,-9,cs),
(253,-9,o),
(305,57,o),
(326,163,c),
(331,163,l),
(330,151,l),
(330,42,o),
(364,-9,o),
(448,-9,cs),
(491,-9,o),
(537,5,o),
(555,43,c),
(549,52,l),
(544,41,o),
(539,37,o),
(533,37,cs),
(521,37,o),
(518,54,o),
(518,110,cs),
(518,268,ls),
(518,455,o),
(421,503,o),
(263,503,cs)
);
},
{
closed = 1;
nodes = (
(328,280,ls),
(328,140,o),
(286,49,o),
(241,49,cs),
(212,49,o),
(202,84,o),
(202,120,cs),
(202,200,o),
(265,254,o),
(328,287,c)
);
},
{
closed = 1;
nodes = (
(184,266,o),
(219,304,o),
(219,351,cs),
(219,398,o),
(184,437,o),
(141,437,cs),
(98,437,o),
(63,398,o),
(63,351,cs),
(63,304,o),
(98,266,o),
(141,266,cs)
);
}
);
width = 574;
}
);
leftKerningGroup = _kern1;
rightKerningGroup = _kern1;
},
{
color = (153, 255, 154, 255);
glyphname = a.9;
layers = (
{
layerId = "90448605-A80E-4A32-AE33-B790A1EB0DF1";
shapes = (
{
closed = 1;
nodes = (
(325,307,l),
(232,244,o),
(35,224,o),
(35,89,cs),
(35,19,o),
(93,-7,o),
(136,-9,cs),
(252,-14,o),
(302,65,o),
(323,172,c),
(327,-49,o),
(422,-151,o),
(611,-151,cs),
(800,-151,o),
(897,-21,o),
(897,113,cs),
(897,167,o),
(867,216,o),
(814,216,cs),
(776,216,o),
(750,190,o),
(750,159,cs),
(750,129,o),
(774,102,o),
(811,102,cs),
(840,102,o),
(864,119,o),
(873,140,c),
(878,124,o),
(880,110,o),
(880,92,cs),
(880,-25,o),
(781,-119,o),
(639,-119,cs),
(516,-119,o),
(395,-48,o),
(395,161,cs),
(395,335,ls),
(395,424,o),
(356,500,o),
(238,500,cs),
(124,500,o),
(57,428,o),
(57,356,cs),
(57,326,o),
(69,306,o),
(98,306,cs),
(129,306,o),
(145,330,o),
(145,359,cs),
(145,386,o),
(131,411,o),
(119,422,c),
(140,463,o),
(177,487,o),
(227,487,cs),
(310,487,o),
(325,431,o),
(325,371,cs)
);
},
{
closed = 1;
nodes = (
(325,275,ls),
(325,183,o),
(291,28,o),
(187,28,cs),
(126,28,o),
(106,74,o),
(106,109,cs),
(106,204,o),
(237,245,o),
(325,288,c)
);
}
);
width = 955;
},
{
layerId = "97E2145D-66CE-4726-B996-40A38D9C79F6";
shapes = (
{
closed = 1;
nodes = (
(328,301,l),
(215,236,o),
(19,221,o),
(19,96,cs),
(19,19,o),
(93,-9,o),
(149,-9,cs),
(252,-9,o),
(304,60,o),
(325,164,c),
(331,-31,o),
(469,-152,o),
(662,-152,cs),
(867,-152,o),
(984,-14,o),
(984,124,cs),
(984,216,o),
(932,301,o),
(842,301,cs),
(777,301,o),
(733,256,o),
(733,203,cs),
(733,152,o),
(774,105,o),
(837,105,cs),
(886,105,o),
(927,134,o),
(943,171,c),
(951,144,o),
(955,120,o),
(955,94,cs),
(955,-25,o),
(861,-111,o),
(734,-111,cs),
(622,-111,o),
(518,-48,o),
(518,160,cs),
(518,268,ls),
(518,399,o),
(477,500,o),
(292,500,cs),
(127,500,o),
(59,418,o),
(59,351,cs),
(59,299,o),
(87,266,o),
(135,266,cs),
(189,266,o),
(215,310,o),
(215,353,cs),
(215,388,o),
(199,422,o),
(166,437,c),
(177,461,o),
(212,485,o),
(251,485,cs),
(310,485,o),
(328,431,o),
(328,385,cs)
);
},
{
closed = 1;
nodes = (
(328,279,ls),
(328,139,o),
(286,49,o),
(241,49,cs),
(212,49,o),
(202,84,o),
(202,120,cs),
(202,200,o),
(265,254,o),
(328,287,c)
);
}
);
width = 1026;
}
);
},
{
color = (255, 153, 153, 255);
glyphname = b;
layers = (
{
layerId = "90448605-A80E-4A32-AE33-B790A1EB0DF1";
shapes = (
{
closed = 1;
nodes = (
(63,-9,ls),
(63,-13,o),
(65,-14,o),
(67,-14,c),
(77,-14,o),
(64,42,o),
(102,42,cs),
(136,42,o),
(169,-7,o),
(262,-7,cs),
(407,-7,o),
(477,122,o),
(477,258,cs),
(477,390,o),
(409,500,o),
(281,500,cs),
(205,500,o),
(148,444,o),
(133,392,c),
(130,379,o),
(128,387,o),
(128,394,cs),
(130,461,l),
(130,721,l),
(-14,692,l),
(-14,684,l),
(36,684,o),
(63,688,o),
(63,625,cs)
);
},
{
closed = 1;
nodes = (
(175,8,o),
(135,50,o),
(135,144,cs),
(135,302,ls),
(135,382,o),
(158,478,o),
(265,478,cs),
(393,478,o),
(403,341,o),
(403,258,cs),
(403,34,o),
(333,8,o),
(262,8,cs)
);
}
);
width = 508;
},
{
layerId = "97E2145D-66CE-4726-B996-40A38D9C79F6";
shapes = (
{
closed = 1;
nodes = (
(68,-9,ls),
(68,-13,o),
(70,-14,o),
(72,-14,c),
(78,-14,o),
(72,40,o),
(131,40,cs),
(187,40,o),
(214,-7,o),
(330,-7,cs),
(448,-7,o),
(595,56,o),
(595,265,cs),
(595,397,o),
(506,500,o),
(391,500,cs),
(314,500,o),
(278,460,o),
(264,404,cs),
(261,391,o),
(253,392,o),
(254,399,cs),
(259,468,l),
(259,721,l),
(-9,691,l),
(-9,682,l),
(47,682,o),
(68,686,o),
(68,634,cs)
);
},
{
closed = 1;
nodes = (
(285,5,o),
(266,47,o),
(266,111,cs),
(266,319,ls),
(266,376,o),
(278,466,o),
(336,466,cs),
(388,466,o),
(394,417,o),
(394,246,cs),
(394,32,o),
(376,5,o),
(327,5,cs)
);
}
);
width = 622;
}
);
unicode = 98;
},
{
color = (153, 255, 154, 255);
glyphname = b.6;
layers = (
{
layerId = "90448605-A80E-4A32-AE33-B790A1EB0DF1";
shapes = (
{
closed = 1;
nodes = (
(299,-192,l),
(433,-314,o),
(613,-389,o),
(810,-389,cs),
(1250,-389,o),
(1604,-29,o),
(1604,421,cs),
(1604,878,o),
(1245,1243,o),
(797,1243,cs),
(401,1243,o),
(70,923,o),
(70,517,cs),
(70,-9,ls),
(70,-13,o),
(72,-14,o),
(74,-14,c),
(79,-14,o),
(69,42,o),
(106,42,cs),
(141,42,o),
(166,-7,o),
(257,-7,cs),
(404,-7,o),
(479,122,o),
(479,258,cs),
(479,390,o),
(411,500,o),
(283,500,cs),
(218,500,o),
(162,459,o),
(138,417,cs),
(137,415,o),
(136,416,o),
(136,421,cs),
(137,549,l),
(137,617,ls),
(137,975,o),
(467,1226,o),
(799,1226,cs),
(1237,1226,o),
(1592,869,o),
(1592,421,cs),
(1592,-21,o),
(1242,-376,o),
(810,-376,cs),
(617,-376,o),
(442,-303,o),
(308,-182,c)
);
},
{
closed = 1;
nodes = (
(181,7,o),
(137,62,o),
(137,120,cs),
(137,319,ls),
(137,399,o),
(160,478,o),
(267,478,cs),
(395,478,o),
(405,341,o),
(405,258,cs),
(405,37,o),
(333,7,o),
(268,7,cs)
);
}
);
width = 510;
},
{
layerId = "97E2145D-66CE-4726-B996-40A38D9C79F6";
shapes = (
{
closed = 1;
nodes = (
(326,-192,l),
(460,-314,o),
(640,-389,o),
(837,-389,cs),
(1277,-389,o),
(1631,-29,o),
(1631,421,cs),
(1631,878,o),
(1272,1243,o),
(824,1243,cs),
(355,1243,o),
(63,923,o),
(63,517,cs),
(63,-9,ls),
(63,-13,o),
(65,-14,o),
(67,-14,c),
(73,-14,o),
(67,40,o),
(126,40,cs),
(182,40,o),
(219,-7,o),
(330,-7,cs),
(448,-7,o),
(595,56,o),
(595,265,cs),
(595,397,o),
(506,500,o),
(391,500,cs),
(314,500,o),
(278,460,o),
(264,404,cs),
(261,391,o),
(253,392,o),
(254,399,cs),
(259,468,l),
(259,617,ls),
(259,975,o),
(497,1226,o),
(826,1226,cs),
(1264,1226,o),
(1619,869,o),
(1619,421,cs),
(1619,-21,o),
(1269,-376,o),
(837,-376,cs),
(644,-376,o),
(469,-303,o),
(335,-182,c)
);
},
{
closed = 1;
nodes = (
(285,5,o),
(266,47,o),
(266,111,cs),
(266,319,ls),
(266,376,o),
(278,466,o),
(336,466,cs),
(388,466,o),
(394,417,o),
(394,246,cs),
(394,32,o),
(376,5,o),
(327,5,cs)
);
}
);
width = 621;
}
);
},
{
color = (153, 255, 154, 255);
glyphname = b.44;
layers = (
{
layerId = "90448605-A80E-4A32-AE33-B790A1EB0DF1";
shapes = (
{
closed = 1;
nodes = (
(-2060,453,l),
(-1923,730,o),
(-1640,922,o),
(-1311,922,cs),
(-381,922,o),
(-152,-389,o),
(812,-389,cs),
(1252,-389,o),
(1606,-29,o),
(1606,421,cs),
(1606,878,o),
(1247,1243,o),
(799,1243,cs),
(403,1243,o),
(72,923,o),
(72,517,cs),
(72,-9,ls),
(72,-13,o),
(74,-14,o),
(76,-14,c),
(81,-14,o),
(71,42,o),
(109,42,cs),
(143,42,o),
(169,-7,o),
(250,-7,cs),
(406,-7,o),
(481,122,o),
(481,258,cs),
(481,390,o),
(413,500,o),
(285,500,cs),
(221,500,o),
(169,459,o),
(145,417,cs),
(143,414,o),
(142,421,o),
(142,427,cs),
(143,562,l),
(143,621,ls),
(143,980,o),
(470,1229,o),
(802,1229,cs),
(1240,1229,o),
(1595,870,o),
(1595,421,cs),
(1595,-21,o),
(1244,-377,o),
(812,-377,cs),
(-150,-377,o),
(-365,934,o),
(-1311,934,cs),
(-1644,934,o),
(-1935,737,o),
(-2074,455,c)
);
},
{
closed = 1;
nodes = (
(183,7,o),
(139,62,o),
(139,120,cs),
(139,314,ls),
(139,394,o),
(163,478,o),
(269,478,cs),
(397,478,o),
(407,341,o),
(407,258,cs),
(407,37,o),
(341,7,o),
(250,7,cs)
);
}
);
width = 512;
},
{
layerId = "97E2145D-66CE-4726-B996-40A38D9C79F6";
shapes = (
{
closed = 1;
nodes = (
(-2035,453,l),
(-1898,730,o),
(-1613,922,o),
(-1284,922,cs),
(-354,922,o),
(-132,-389,o),
(839,-389,cs),
(1279,-389,o),
(1633,-29,o),
(1633,421,cs),
(1633,878,o),
(1274,1243,o),
(826,1243,cs),
(357,1243,o),
(65,923,o),
(65,517,cs),
(65,-9,ls),
(65,-13,o),
(67,-14,o),
(69,-14,c),
(75,-14,o),
(69,40,o),
(128,40,cs),
(184,40,o),
(220,-7,o),
(330,-7,cs),
(448,-7,o),
(595,56,o),
(595,265,cs),
(595,397,o),
(506,500,o),
(391,500,cs),
(314,500,o),
(278,460,o),
(264,404,cs),
(261,391,o),
(253,392,o),
(254,399,cs),
(259,468,l),
(259,619,ls),
(259,978,o),
(500,1229,o),
(829,1229,cs),
(1267,1229,o),
(1622,870,o),
(1622,421,cs),
(1622,-21,o),
(1271,-377,o),
(839,-377,cs),
(-123,-377,o),
(-338,934,o),
(-1284,934,cs),
(-1617,934,o),
(-1908,737,o),
(-2047,455,c)
);
},
{
closed = 1;
nodes = (
(285,5,o),
(266,47,o),
(266,111,cs),
(266,319,ls),
(266,376,o),
(278,466,o),
(336,466,cs),
(388,466,o),
(394,417,o),
(394,246,cs),
(394,32,o),
(376,5,o),
(327,5,cs)
);
}
);
width = 623;
}
);
},
{
color = (153, 255, 154, 255);
glyphname = b.4.acc;
layers = (
{
layerId = "90448605-A80E-4A32-AE33-B790A1EB0DF1";
shapes = (
{
closed = 1;
nodes = (
(-2060,453,l),
(-1923,730,o),
(-1638,922,o),
(-1309,922,cs),
(-316,922,o),
(-184,-410,o),
(814,-410,cs),
(1254,-410,o),
(1608,-40,o),
(1608,421,cs),
(1608,878,o),
(1249,1243,o),
(801,1243,cs),
(405,1243,o),
(74,923,o),
(74,517,cs),
(74,-9,ls),
(74,-13,o),
(76,-14,o),
(78,-14,c),
(83,-14,o),
(73,52,o),
(111,52,cs),
(145,52,o),
(167,-8,o),
(259,-8,cs),
(410,-8,o),
(483,122,o),
(483,258,cs),
(483,394,o),
(415,500,o),
(287,500,cs),
(217,500,o),
(164,454,o),
(144,403,cs),
(143,401,o),
(142,398,o),
(141,396,c),
(141,398,o),
(141,402,o),
(141,405,cs),
(141,617,ls),
(141,974,o),
(472,1226,o),
(804,1226,cs),
(1242,1226,o),
(1597,868,o),
(1597,421,cs),
(1597,11,o),
(1246,-340,o),
(814,-340,cs),
(-212,-340,o),
(-333,934,o),
(-1309,934,cs),
(-1642,934,o),
(-1934,737,o),
(-2073,455,c)
);
},
{
closed = 1;
nodes = (
(183,3,o),
(141,54,o),
(141,131,cs),
(141,314,ls),
(141,394,o),
(171,478,o),
(274,478,cs),
(399,478,o),
(409,341,o),
(409,258,cs),
(409,37,o),
(341,3,o),
(259,3,cs)
);
}
);
width = 514;
},
{
layerId = "97E2145D-66CE-4726-B996-40A38D9C79F6";
shapes = (
{
closed = 1;
nodes = (
(-2037,453,l),
(-1900,730,o),
(-1613,922,o),
(-1284,922,cs),
(-351,922,o),
(-122,-480,o),
(839,-480,cs),
(1279,-480,o),
(1633,-52,o),
(1633,421,cs),
(1633,878,o),
(1274,1243,o),
(826,1243,cs),
(357,1243,o),
(65,923,o),
(65,517,cs),
(65,-9,ls),
(65,-13,o),
(67,-14,o),
(69,-14,c),
(75,-14,o),
(69,50,o),
(128,50,cs),
(184,50,o),
(209,-7,o),
(330,-7,cs),
(448,-7,o),
(595,56,o),
(595,265,cs),
(595,397,o),
(506,500,o),
(391,500,cs),
(314,500,o),
(278,460,o),
(264,404,cs),
(261,391,o),
(253,392,o),
(254,399,cs),
(255,407,o),
(258,457,o),
(259,468,c),
(259,619,ls),
(259,976,o),
(500,1226,o),
(829,1226,cs),
(1267,1226,o),
(1622,868,o),
(1622,421,cs),
(1622,23,o),
(1271,-350,o),
(839,-350,cs),
(-264,-350,o),
(-338,934,o),
(-1284,934,cs),
(-1617,934,o),
(-1909,737,o),
(-2048,455,c)
);
},
{
closed = 1;
nodes = (
(285,5,o),
(266,47,o),
(266,111,cs),
(266,319,ls),
(266,376,o),
(278,466,o),
(336,466,cs),
(388,466,o),
(394,417,o),
(394,246,cs),
(394,32,o),
(376,5,o),
(327,5,cs)
);
}
);
width = 623;
}
);
},
{
color = (255, 153, 153, 255);
glyphname = c;
layers = (
{
anchors = (
{
name = top;
position = "{219, 577}";
}
);
layerId = "90448605-A80E-4A32-AE33-B790A1EB0DF1";
shapes = (
{
closed = 1;
nodes = (
(405,91,l),
(378,49,o),
(333,26,o),
(274,26,cs),
(152,26,o),
(105,128,o),
(105,258,cs),
(105,350,o),
(130,486,o),
(265,486,cs),
(307,486,o),
(334,468,o),
(342,449,c),
(328,432,o),
(321,407,o),
(321,386,cs),
(321,356,o),
(336,331,o),
(364,331,cs),
(394,331,o),
(409,358,o),
(409,389,cs),
(409,457,o),
(338,500,o),
(260,500,cs),
(130,500,o),
(30,394,o),
(30,237,cs),
(30,68,o),
(116,-9,o),
(237,-9,cs),
(314,-9,o),
(373,21,o),
(410,79,c)
);
}
);
width = 446;
},
{
anchors = (
{
name = top;
position = "{281, 577}";
}
);
layerId = "97E2145D-66CE-4726-B996-40A38D9C79F6";
shapes = (
{
closed = 1;
nodes = (
(470,125,l),
(448,77,o),
(410,55,o),
(360,55,cs),
(266,55,o),
(227,119,o),
(227,273,cs),
(227,451,o),
(265,489,o),
(310,489,cs),
(345,489,o),
(371,467,o),
(375,449,c),
(352,423,o),
(340,386,o),
(340,354,cs),
(340,309,o),
(364,271,o),
(412,271,cs),
(462,271,o),
(488,312,o),
(488,364,cs),
(488,453,o),
(405,500,o),
(292,500,cs),
(141,500,o),
(25,414,o),
(25,244,cs),
(25,68,o),
(138,-9,o),
(270,-9,cs),
(363,-9,o),
(440,34,o),
(478,116,c)
);
}
);
width = 506;
}
);
leftKerningGroup = _kern2;
rightKerningGroup = _kern2;
unicode = 99;
},
{
color = (153, 255, 154, 255);
glyphname = c.4;
layers = (
{
layerId = "90448605-A80E-4A32-AE33-B790A1EB0DF1";
shapes = (
{
closed = 1;
nodes = (
(310,485,o),
(337,468,o),
(345,449,c),
(331,432,o),
(324,407,o),
(324,386,cs),
(324,356,o),
(339,331,o),
(367,331,cs),
(397,331,o),
(412,358,o),
(412,389,cs),
(412,457,o),
(341,500,o),
(263,500,cs),
(124,500,o),
(37,365,o),
(37,203,cs),
(37,-133,o),
(364,-295,o),
(621,-306,cs),
(964,-320,o),
(1315,-53,o),
(1315,310,cs),
(1315,597,o),
(1078,834,o),
(775,834,cs),
(630,834,o),
(503,780,o),
(406,692,c),
(413,682,l),
(509,768,o),
(633,822,o),
(775,822,cs),
(1070,822,o),
(1303,594,o),
(1303,310,cs),
(1303,-10,o),
(1007,-291,o),
(664,-277,cs),
(362,-264,o),
(114,-99,o),
(114,231,cs),
(114,341,o),
(143,485,o),
(268,485,cs)
);
}
);
width = 454;
},
{
layerId = "97E2145D-66CE-4726-B996-40A38D9C79F6";
shapes = (
{
closed = 1;
nodes = (
(351,488,o),
(369,466,o),
(373,449,c),
(350,423,o),
(338,386,o),
(338,354,cs),
(338,309,o),
(362,271,o),
(410,271,cs),
(460,271,o),
(486,312,o),
(486,364,cs),
(486,450,o),
(413,500,o),
(306,500,cs),
(138,500,o),
(26,386,o),
(26,205,cs),
(26,-139,o),
(416,-306,o),
(695,-306,cs),
(1062,-306,o),
(1374,-14,o),
(1374,308,cs),
(1374,595,o),
(1137,834,o),
(834,834,cs),
(689,834,o),
(562,780,o),
(465,692,c),
(471,684,l),
(567,770,o),
(692,822,o),
(834,822,cs),
(1129,822,o),
(1362,595,o),
(1362,308,cs),
(1362,0,o),
(1080,-260,o),
(749,-260,cs),
(507,-260,o),
(229,-126,o),
(229,279,cs),
(229,337,o),
(236,488,o),
(312,488,cs)
);
}
);
width = 504;
}
);
leftKerningGroup = _kern2;
rightKerningGroup = _kern2;
},
{
color = (255, 153, 153, 255);
glyphname = d;
layers = (
{
layerId = "90448605-A80E-4A32-AE33-B790A1EB0DF1";
shapes = (
{
closed = 1;
nodes = (
(442,721,l),
(298,692,l),
(298,684,l),
(348,684,o),
(375,688,o),
(375,625,cs),
(375,439,l),
(357,473,o),
(304,500,o),
(256,500,cs),
(124,500,o),
(31,382,o),
(31,229,cs),
(31,88,o),
(106,-9,o),
(219,-9,cs),
(288,-9,o),
(347,30,o),
(372,92,c),
(375,112,l),
(375,32,o),
(406,-9,o),
(469,-9,cs),
(509,-9,o),
(542,7,o),
(553,26,c),
(549,31,l),
(543,24,o),
(530,17,o),
(505,17,cs),
(458,17,o),
(442,47,o),
(442,122,cs)
);
},
{
closed = 1;
nodes = (
(128,15,o),
(104,157,o),
(104,258,cs),
(104,349,o),
(125,482,o),
(262,482,cs),
(336,482,o),
(375,433,o),
(375,401,cs),
(375,213,ls),
(375,47,o),
(298,15,o),
(243,15,cs)
);
}
);
width = 547;
},
{
layerId = "97E2145D-66CE-4726-B996-40A38D9C79F6";
shapes = (
{
closed = 1;
nodes = (
(546,721,l),
(276,691,l),
(276,682,l),
(316,682,o),
(353,686,o),
(353,634,cs),
(353,455,l),
(339,491,o),
(302,500,o),
(268,500,cs),
(121,500,o),
(23,382,o),
(23,227,cs),
(23,88,o),
(99,-9,o),
(212,-9,cs),
(274,-9,o),
(346,30,o),
(355,133,c),
(366,133,l),
(357,47,o),
(397,-9,o),
(489,-9,cs),
(546,-9,o),
(593,9,o),
(609,32,c),
(603,39,l),
(601,35,o),
(589,31,o),
(576,31,cs),
(552,31,o),
(546,60,o),
(546,125,cs)
);
},
{
closed = 1;
nodes = (
(240,71,o),
(234,180,o),
(234,261,cs),
(234,346,o),
(241,476,o),
(307,476,cs),
(337,476,o),
(350,449,o),
(353,410,c),
(353,213,ls),
(353,94,o),
(318,71,o),
(293,71,cs)
);
}
);
width = 620;
}
);
unicode = 100;
},
{
color = (153, 255, 154, 255);
glyphname = d.5;
rightMetricsKey = l.5;
layers = (
{
layerId = "90448605-A80E-4A32-AE33-B790A1EB0DF1";
shapes = (
{
closed = 1;
nodes = (
(375,439,l),
(357,473,o),
(304,500,o),
(256,500,cs),
(124,500,o),
(31,382,o),
(31,229,cs),
(31,88,o),
(106,-9,o),
(219,-9,cs),
(288,-9,o),
(350,27,o),
(375,121,c),
(375,69,ls),
(375,-108,o),
(466,-230,o),
(622,-230,cs),
(698,-230,o),
(782,-202,o),
(805,-139,c),
(799,-132,l),
(776,-189,o),
(701,-219,o),
(637,-219,cs),
(528,-219,o),
(442,-144,o),
(442,31,cs),
(442,721,l),
(298,692,l),
(298,684,l),
(348,684,o),
(375,688,o),
(375,625,cs)
);
},
{
closed = 1;
nodes = (
(128,15,o),
(104,157,o),
(104,258,cs),
(104,349,o),
(125,482,o),
(262,482,cs),
(336,482,o),
(375,433,o),
(375,401,cs),
(375,213,ls),
(375,47,o),
(298,15,o),
(243,15,cs)
);
}
);
width = 527;
},
{
layerId = "97E2145D-66CE-4726-B996-40A38D9C79F6";
shapes = (
{
closed = 1;
nodes = (
(353,455,l),
(339,491,o),
(302,500,o),
(268,500,cs),
(121,500,o),
(23,382,o),
(23,227,cs),
(23,88,o),
(99,-9,o),
(212,-9,cs),
(278,-9,o),
(333,28,o),
(357,121,c),
(363,121,l),
(363,-63,o),
(395,-239,o),
(707,-239,cs),
(795,-239,o),
(892,-208,o),
(919,-139,c),
(913,-132,l),
(890,-190,o),
(814,-220,o),
(749,-220,cs),
(641,-220,o),
(547,-145,o),
(547,31,c),
(546,721,l),
(276,691,l),
(276,682,l),
(316,682,o),
(353,686,o),
(353,634,cs)
);
},
{
closed = 1;
nodes = (
(239,57,o),
(234,174,o),
(234,251,cs),
(234,345,o),
(242,473,o),
(309,473,cs),
(339,473,o),
(350,447,o),
(353,410,c),
(353,179,l),
(347,78,o),
(311,57,o),
(290,57,cs)
);
}
);
width = 609;
}
);
},
{
color = (153, 255, 154, 255);
glyphname = d.4;
layers = (
{
layerId = "90448605-A80E-4A32-AE33-B790A1EB0DF1";
shapes = (
{
closed = 1;
nodes = (
(31,88,o),
(106,-9,o),
(219,-9,cs),
(288,-9,o),
(350,27,o),
(375,121,c),
(377,-245,o),
(640,-414,o),
(960,-414,cs),
(1313,-414,o),
(1621,-161,o),
(1621,207,cs),
(1621,544,o),
(1348,817,o),
(1011,817,cs),
(853,817,o),
(709,757,o),
(601,659,c),
(610,651,l),
(716,747,o),
(857,805,o),
(1011,805,cs),
(1341,805,o),
(1609,537,o),
(1609,207,cs),
(1609,-144,o),
(1311,-396,o),
(971,-396,cs),
(690,-396,o),
(442,-227,o),
(442,109,cs),
(442,721,l),
(298,691,l),
(298,684,l),
(348,684,o),
(375,688,o),
(375,625,cs),
(375,439,l),
(357,473,o),
(304,500,o),
(256,500,cs),
(124,500,o),
(31,382,o),
(31,229,cs)
);
},
{
closed = 1;
nodes = (
(128,15,o),
(104,157,o),
(104,258,cs),
(104,349,o),
(125,482,o),
(262,482,cs),
(336,482,o),
(375,433,o),
(375,401,cs),
(375,213,ls),
(375,47,o),
(298,15,o),
(243,15,cs)
);
}
);
width = 518;
},
{
layerId = "97E2145D-66CE-4726-B996-40A38D9C79F6";
shapes = (
{
closed = 1;
nodes = (
(23,88,o),
(99,-9,o),
(212,-9,cs),
(280,-9,o),
(333,26,o),
(355,117,c),
(381,-222,o),
(690,-413,o),
(1054,-413,cs),
(1397,-413,o),
(1674,-136,o),
(1674,207,cs),
(1674,544,o),
(1401,817,o),
(1064,817,cs),
(906,817,o),
(762,757,o),
(654,659,c),
(663,651,l),
(769,747,o),
(910,805,o),
(1064,805,cs),
(1394,805,o),
(1662,537,o),
(1662,207,cs),
(1662,-122,o),
(1394,-390,o),
(1064,-390,cs),
(793,-390,o),
(546,-226,o),
(546,138,cs),
(546,721,l),
(276,691,l),
(276,682,l),
(316,682,o),
(353,686,o),
(353,634,cs),
(353,455,l),
(339,491,o),
(302,500,o),
(268,500,cs),
(121,500,o),
(23,382,o),
(23,227,cs)
);
},
{
closed = 1;
nodes = (
(239,57,o),
(234,174,o),
(234,251,cs),
(234,345,o),
(242,473,o),
(309,473,cs),
(339,473,o),
(350,447,o),
(353,410,c),
(353,179,l),
(347,78,o),
(311,57,o),
(290,57,cs)
);
}
);
width = 617;
}
);
},
{
color = (153, 255, 154, 255);
glyphname = d.6;
layers = (
{
layerId = "90448605-A80E-4A32-AE33-B790A1EB0DF1";
shapes = (
{
closed = 1;
nodes = (
(604,-192,l),
(738,-314,o),
(918,-389,o),
(1115,-389,cs),
(1555,-389,o),
(1909,-29,o),
(1909,421,cs),
(1909,878,o),
(1550,1243,o),
(1102,1243,cs),
(706,1243,o),
(378,923,o),
(378,517,cs),
(378,435,l),
(378,430,l),
(364,470,o),
(307,500,o),
(256,500,cs),
(124,500,o),
(31,382,o),
(31,229,cs),
(31,88,o),
(106,-9,o),
(219,-9,cs),
(288,-9,o),
(350,27,o),
(375,121,c),
(375,118,ls),
(375,34,o),
(404,-9,o),
(469,-9,cs),
(509,-9,o),
(542,7,o),
(553,26,c),
(549,31,l),
(546,26,o),
(530,22,o),
(505,22,cs),
(458,22,o),
(442,50,o),
(442,122,cs),
(442,617,ls),
(442,974,o),
(773,1226,o),
(1105,1226,cs),
(1543,1226,o),
(1897,868,o),
(1897,421,cs),
(1897,-21,o),
(1547,-376,o),
(1115,-376,cs),
(923,-376,o),
(746,-305,o),
(613,-187,c)
);
},
{
closed = 1;
nodes = (
(128,15,o),
(104,157,o),
(104,258,cs),
(104,349,o),
(125,482,o),
(262,482,cs),
(336,482,o),
(375,433,o),
(375,401,cs),
(375,213,ls),
(375,47,o),
(298,15,o),
(243,15,cs)
);
}
);
width = 546;
},
{
layerId = "97E2145D-66CE-4726-B996-40A38D9C79F6";
shapes = (
{
closed = 1;
nodes = (
(619,-192,l),
(753,-314,o),
(933,-389,o),
(1130,-389,cs),
(1570,-389,o),
(1924,-29,o),
(1924,421,cs),
(1924,878,o),
(1565,1243,o),
(1117,1243,cs),
(648,1243,o),
(363,923,o),
(363,517,cs),
(363,449,l),
(356,444,l),
(345,490,o),
(305,500,o),
(268,500,cs),
(121,500,o),
(23,382,o),
(23,227,cs),
(23,88,o),
(99,-9,o),
(212,-9,cs),
(278,-9,o),
(340,31,o),
(355,133,c),
(366,133,l),
(357,47,o),
(397,-9,o),
(489,-9,cs),
(546,-9,o),
(593,9,o),
(609,32,c),
(603,39,l),
(601,35,o),
(589,31,o),
(576,31,cs),
(552,31,o),
(546,60,o),
(546,125,cs),
(546,617,ls),
(546,974,o),
(791,1226,o),
(1120,1226,cs),
(1558,1226,o),
(1912,868,o),
(1912,421,cs),
(1912,-21,o),
(1562,-376,o),
(1130,-376,cs),
(938,-376,o),
(761,-305,o),
(628,-187,c)
);
},
{
closed = 1;
nodes = (
(239,57,o),
(234,174,o),
(234,251,cs),
(234,345,o),
(242,473,o),
(309,473,cs),
(339,473,o),
(350,447,o),
(353,410,c),
(353,213,ls),
(353,105,o),
(311,57,o),
(290,57,cs)
);
}
);
width = 617;
}
);
},
{
color = (153, 255, 154, 255);
glyphname = d.6.more;
layers = (
{
layerId = "90448605-A80E-4A32-AE33-B790A1EB0DF1";
shapes = (
{
closed = 1;
nodes = (
(-382,-321,l),
(-281,-210,o),
(-133,-146,o),
(33,-146,cs),
(412,-146,o),
(678,-388,o),
(1108,-388,cs),
(1548,-388,o),
(1902,-29,o),
(1902,421,cs),
(1902,878,o),
(1543,1243,o),
(1095,1243,cs),
(699,1243,o),
(371,923,o),
(371,517,cs),
(371,430,l),
(357,470,o),
(300,500,o),
(249,500,cs),
(117,500,o),
(24,382,o),
(24,229,cs),
(24,88,o),
(99,-9,o),
(212,-9,cs),
(281,-9,o),
(343,27,o),
(368,121,c),
(368,118,ls),
(368,34,o),
(397,-9,o),
(462,-9,cs),
(502,-9,o),
(535,7,o),
(546,26,c),
(542,31,l),
(539,26,o),
(523,22,o),
(498,22,cs),
(451,22,o),
(435,50,o),
(435,122,cs),
(435,617,ls),
(435,975,o),
(766,1227,o),
(1098,1227,cs),
(1536,1227,o),
(1890,869,o),
(1890,421,cs),
(1890,-21,o),
(1540,-376,o),
(1108,-376,cs),
(686,-376,o),
(415,-134,o),
(33,-134,cs),
(-138,-134,o),
(-292,-201,o),
(-395,-318,c)
);
},
{
closed = 1;
nodes = (
(121,15,o),
(97,157,o),
(97,258,cs),
(97,349,o),
(118,482,o),
(255,482,cs),
(329,482,o),
(368,433,o),
(368,401,cs),
(368,213,ls),
(368,47,o),
(291,15,o),
(236,15,cs)
);
}
);
width = 539;
},
{
layerId = "97E2145D-66CE-4726-B996-40A38D9C79F6";
shapes = (
{
closed = 1;
nodes = (
(-360,-321,l),
(-259,-210,o),
(-111,-146,o),
(55,-146,cs),
(434,-146,o),
(700,-388,o),
(1130,-388,cs),
(1568,-388,o),
(1924,-28,o),
(1924,421,cs),
(1924,878,o),
(1565,1243,o),
(1117,1243,cs),
(648,1243,o),
(363,923,o),
(363,517,cs),
(363,443,l),
(352,453,o),
(343,500,o),
(268,500,cs),
(121,500,o),
(23,382,o),
(23,227,cs),
(23,88,o),
(99,-9,o),
(212,-9,cs),
(278,-9,o),
(340,31,o),
(355,133,c),
(366,133,l),
(357,47,o),
(397,-9,o),
(489,-9,cs),
(546,-9,o),
(593,9,o),
(609,32,c),
(603,39,l),
(601,35,o),
(589,31,o),
(576,31,cs),
(552,31,o),
(546,60,o),
(546,125,cs),
(546,617,ls),
(546,975,o),
(791,1227,o),
(1120,1227,cs),
(1558,1227,o),
(1912,869,o),
(1912,421,cs),
(1912,-21,o),
(1562,-376,o),
(1130,-376,cs),
(708,-376,o),
(437,-134,o),
(55,-134,cs),
(-116,-134,o),
(-270,-201,o),
(-373,-318,c)
);
},
{
closed = 1;
nodes = (
(239,57,o),
(234,174,o),
(234,251,cs),
(234,345,o),
(242,473,o),
(309,473,cs),
(339,473,o),
(353,444,o),
(353,407,cs),
(353,213,ls),
(353,105,o),
(311,57,o),
(290,57,cs)
);
}
);
width = 617;
}
);
},
{
color = (153, 255, 154, 255);
glyphname = d.6.more.acc;
layers = (
{
layerId = "90448605-A80E-4A32-AE33-B790A1EB0DF1";
shapes = (
{
closed = 1;
nodes = (
(-385,-321,l),
(-283,-212,o),
(-134,-148,o),
(33,-148,cs),
(412,-148,o),
(678,-442,o),
(1108,-442,cs),
(1548,-442,o),
(1902,-29,o),
(1902,421,cs),
(1902,878,o),
(1543,1243,o),
(1095,1243,cs),
(699,1243,o),
(371,923,o),
(371,517,cs),
(371,430,l),
(357,470,o),
(300,500,o),
(249,500,cs),
(117,500,o),
(24,382,o),
(24,229,cs),
(24,88,o),
(99,-9,o),
(212,-9,cs),
(281,-9,o),
(343,27,o),
(368,121,c),
(368,118,ls),
(368,34,o),
(397,-9,o),
(462,-9,cs),
(502,-9,o),
(535,7,o),
(546,26,c),
(542,31,l),
(539,26,o),
(523,22,o),
(498,22,cs),
(451,22,o),
(435,50,o),
(435,122,cs),
(435,617,ls),
(435,975,o),
(766,1227,o),
(1098,1227,cs),
(1536,1227,o),
(1890,869,o),
(1890,421,cs),
(1890,-24,o),
(1540,-382,o),
(1108,-382,cs),
(686,-382,o),
(415,-136,o),
(33,-136,cs),
(-139,-136,o),
(-294,-202,o),
(-398,-318,c)
);
},
{
closed = 1;
nodes = (
(121,15,o),
(97,157,o),
(97,258,cs),
(97,349,o),
(118,482,o),
(255,482,cs),
(329,482,o),
(368,433,o),
(368,401,cs),
(368,213,ls),
(368,47,o),
(291,15,o),
(236,15,cs)
);
}
);
width = 539;
},
{
layerId = "97E2145D-66CE-4726-B996-40A38D9C79F6";
shapes = (
{
closed = 1;
nodes = (
(-363,-321,l),
(-261,-212,o),
(-112,-148,o),
(55,-148,cs),
(434,-148,o),
(700,-462,o),
(1130,-462,cs),
(1568,-462,o),
(1924,-28,o),
(1924,421,cs),
(1924,878,o),
(1565,1243,o),
(1117,1243,cs),
(648,1243,o),
(363,923,o),
(363,517,cs),
(363,442,l),
(356,454,o),
(338,500,o),
(268,500,cs),
(121,500,o),
(23,382,o),
(23,227,cs),
(23,88,o),
(99,-9,o),
(212,-9,cs),
(278,-9,o),
(340,31,o),
(355,133,c),
(366,133,l),
(357,47,o),
(397,-9,o),
(489,-9,cs),
(546,-9,o),
(593,9,o),
(609,32,c),
(603,39,l),
(601,35,o),
(589,31,o),
(576,31,cs),
(552,31,o),
(546,60,o),
(546,125,cs),
(546,617,ls),
(546,975,o),
(791,1227,o),
(1120,1227,cs),
(1558,1227,o),
(1912,869,o),
(1912,421,cs),
(1912,-24,o),
(1562,-332,o),
(1130,-332,cs),
(708,-332,o),
(437,-136,o),
(55,-136,cs),
(-117,-136,o),
(-272,-202,o),
(-376,-318,c)
);
},
{
closed = 1;
nodes = (
(239,57,o),
(234,174,o),
(234,251,cs),
(234,345,o),
(242,473,o),
(309,473,cs),
(339,473,o),
(350,447,o),
(353,410,c),
(353,213,ls),
(353,105,o),
(311,57,o),
(290,57,cs)
);
}
);
width = 617;
}
);
},
{
color = (153, 255, 154, 255);
glyphname = d.9;
layers = (
{
layerId = "90448605-A80E-4A32-AE33-B790A1EB0DF1";
shapes = (
{
closed = 1;
nodes = (
(375,439,l),
(357,473,o),
(304,500,o),
(256,500,cs),
(124,500,o),
(31,382,o),
(31,229,cs),
(31,88,o),
(106,-9,o),
(219,-9,cs),
(290,-9,o),
(355,31,o),
(378,134,c),
(395,-16,o),
(489,-125,o),
(661,-125,cs),
(850,-125,o),
(947,5,o),
(947,139,cs),
(947,193,o),
(917,242,o),
(864,242,cs),
(826,242,o),
(800,216,o),
(800,185,cs),
(800,155,o),
(824,128,o),
(861,128,cs),
(890,128,o),
(914,145,o),
(923,166,c),
(928,150,o),
(930,136,o),
(930,118,cs),
(930,1,o),
(831,-93,o),
(689,-93,cs),
(566,-93,o),
(445,-22,o),
(445,187,cs),
(445,721,l),
(301,691,l),
(301,684,l),
(322,684,o),
(375,686,o),
(375,634,cs)
);
},
{
closed = 1;
nodes = (
(128,15,o),
(104,157,o),
(104,258,cs),
(104,349,o),
(125,482,o),
(262,482,cs),
(336,482,o),
(375,433,o),
(375,401,cs),
(375,213,ls),
(375,47,o),
(298,15,o),
(243,15,cs)
);
}
);
width = 983;
},
{
layerId = "97E2145D-66CE-4726-B996-40A38D9C79F6";
shapes = (
{
closed = 1;
nodes = (
(353,455,l),
(339,491,o),
(302,500,o),
(268,500,cs),
(121,500,o),
(23,382,o),
(23,227,cs),
(23,88,o),
(99,-9,o),
(212,-9,cs),
(281,-9,o),
(335,28,o),
(356,124,c),
(378,-48,o),
(510,-152,o),
(690,-152,cs),
(895,-152,o),
(1012,-14,o),
(1012,124,cs),
(1012,216,o),
(960,301,o),
(870,301,cs),
(805,301,o),
(761,256,o),
(761,203,cs),
(761,152,o),
(802,105,o),
(865,105,cs),
(914,105,o),
(955,134,o),
(971,171,c),
(979,144,o),
(983,120,o),
(983,94,cs),
(983,-25,o),
(889,-111,o),
(762,-111,cs),
(650,-111,o),
(546,-48,o),
(546,160,cs),
(546,721,l),
(276,691,l),
(276,682,l),
(316,682,o),
(353,686,o),
(353,634,cs)
);
},
{
closed = 1;
nodes = (
(239,57,o),
(234,174,o),
(234,251,cs),
(234,345,o),
(242,473,o),
(309,473,cs),
(339,473,o),
(350,447,o),
(353,410,c),
(353,179,l),
(347,78,o),
(311,57,o),
(290,57,cs)
);
}
);
width = 1054;
}
);
},
{
color = (255, 153, 153, 255);
glyphname = e;
layers = (
{
anchors = (
{
name = bottom;
position = "{220, -77}";
},
{
name = top;
position = "{249, 577}";
}
);
guides = (
{
position = "{0, -77}";
}
);
layerId = "90448605-A80E-4A32-AE33-B790A1EB0DF1";
shapes = (
{
closed = 1;
nodes = (
(410,98,l),
(384,50,o),
(329,26,o),
(272,26,cs),
(140,26,o),
(106,151,o),
(106,258,cs),
(106,350,o),
(131,487,o),
(261,487,cs),
(330,487,o),
(362,449,o),
(362,400,cs),
(362,302,o),
(234,222,o),
(92,192,c),
(104,177,l),
(144,198,o),
(246,209,o),
(314,237,cs),
(375,262,o),
(428,308,o),
(428,375,cs),
(428,451,o),
(358,500,o),
(269,500,cs),
(119,500,o),
(31,379,o),
(31,237,cs),
(31,68,o),
(115,-9,o),
(233,-9,cs),
(309,-9,o),
(380,22,o),
(417,89,c)
);
}
);
width = 457;
},
{
anchors = (
{
name = bottom;
position = "{270, -77}";
},
{
name = top;
position = "{292, 577}";
}
);
guides = (
{
position = "{0, -77}";
}
);
layerId = "97E2145D-66CE-4726-B996-40A38D9C79F6";
shapes = (
{
closed = 1;
nodes = (
(482,125,l),
(457,75,o),
(412,51,o),
(356,51,cs),
(236,51,o),
(227,182,o),
(227,273,cs),
(227,452,o),
(260,487,o),
(305,487,cs),
(332,487,o),
(353,462,o),
(353,416,cs),
(353,327,o),
(287,246,o),
(217,210,c),
(220,200,l),
(265,221,o),
(334,231,o),
(394,253,cs),
(449,273,o),
(494,311,o),
(494,367,cs),
(494,453,o),
(405,500,o),
(292,500,cs),
(141,500,o),
(25,419,o),
(25,244,cs),
(25,68,o),
(126,-9,o),
(270,-9,cs),
(372,-9,o),
(449,31,o),
(490,116,c)
);
}
);
width = 517;
}
);
leftKerningGroup = _kern2;
rightKerningGroup = _kern2;
unicode = 101;
},
{
color = (153, 255, 154, 255);
glyphname = e.55;
layers = (
{
background = {
shapes = (
{
closed = 1;
nodes = (
(493,145,l),
(470,81,o),
(419,51,o),
(356,51,cs),
(254,51,o),
(227,140,o),
(227,273,cs),
(227,453,o),
(260,490,o),
(305,490,cs),
(332,490,o),
(353,464,o),
(353,416,cs),
(353,321,o),
(278,235,o),
(204,204,cs),
(196,201,o),
(168,172,o),
(175,179,cs),
(216,220,o),
(317,225,o),
(394,253,cs),
(449,273,o),
(494,311,o),
(494,367,cs),
(494,456,o),
(405,500,o),
(292,500,cs),
(141,500,o),
(25,422,o),
(25,244,cs),
(25,68,o),
(126,-9,o),
(270,-9,cs),
(382,-9,o),
(464,39,o),
(501,142,c)
);
}
);
};
layerId = "90448605-A80E-4A32-AE33-B790A1EB0DF1";
shapes = (
{
closed = 1;
nodes = (
(420,125,l),
(398,59,o),
(343,26,o),
(276,26,cs),
(181,26,o),
(133,90,o),
(117,180,c),
(158,205,o),
(253,229,o),
(324,259,c),
(542,349,o),
(674,468,o),
(674,624,cs),
(674,822,o),
(527,985,o),
(330,985,cs),
(220,985,o),
(122,933,o),
(59,853,c),
(68,847,l),
(129,925,o),
(223,973,o),
(330,973,cs),
(521,973,o),
(666,815,o),
(666,624,cs),
(666,489,o),
(560,386,o),
(389,298,c),
(409,320,o),
(419,348,o),
(419,385,cs),
(419,459,o),
(340,500,o),
(262,500,cs),
(129,500,o),
(31,391,o),
(31,237,cs),
(31,68,o),
(115,-9,o),
(237,-9,cs),
(324,-9,o),
(397,32,o),
(430,121,c)
);
},
{
closed = 1;
nodes = (
(111,215,o),
(110,236,o),
(110,258,cs),
(110,350,o),
(134,487,o),
(265,487,cs),
(323,487,o),
(350,454,o),
(350,400,cs),
(350,312,o),
(240,230,o),
(114,195,c)
);
}
);
width = 463;
},
{
layerId = "97E2145D-66CE-4726-B996-40A38D9C79F6";
shapes = (
{
closed = 1;
nodes = (
(496,146,l),
(473,82,o),
(424,51,o),
(361,51,cs),
(277,51,o),
(244,110,o),
(236,205,c),
(279,225,o),
(340,240,o),
(394,257,c),
(631,336,o),
(747,468,o),
(747,624,cs),
(747,822,o),
(600,985,o),
(403,985,cs),
(293,985,o),
(195,933,o),
(132,853,c),
(141,847,l),
(202,925,o),
(296,973,o),
(403,973,cs),
(594,973,o),
(739,815,o),
(739,624,cs),
(739,487,o),
(644,373,o),
(457,291,c),
(479,312,o),
(494,340,o),
(494,371,cs),
(494,453,o),
(406,500,o),
(297,500,cs),
(144,500,o),
(28,419,o),
(28,244,cs),
(28,68,o),
(129,-9,o),
(275,-9,cs),
(387,-9,o),
(469,39,o),
(506,142,c)
);
},
{
closed = 1;
nodes = (
(233,234,o),
(232,253,o),
(232,273,cs),
(232,452,o),
(265,487,o),
(311,487,cs),
(332,487,o),
(351,464,o),
(351,417,cs),
(351,335,o),
(295,256,o),
(234,217,c)
);
}
);
width = 520;
}
);
leftKerningGroup = _kern2;
rightKerningGroup = _kern2;
},
{
color = (153, 255, 154, 255);
glyphname = e.4;
layers = (
{
background = {
shapes = (
{
closed = 1;
nodes = (
(299,490,l),
(304,490,ls),
(332,490,o),
(353,459,o),
(353,405,cs),
(353,298,o),
(277,201,o),
(203,166,cs),
(195,163,o),
(167,130,o),
(174,138,cs),
(215,184,o),
(316,190,o),
(394,221,cs),
(449,244,o),
(494,287,o),
(494,350,cs),
(494,448,o),
(409,498,o),
(298,500,c)
);
},
{
closed = 1;
nodes = (
(226,251,l),
(226,260,o),
(226,270,o),
(226,279,cs),
(226,420,o),
(259,490,o),
(300,490,c),
(299,500,l),
(292,500,ls),
(131,500,o),
(23,386,o),
(23,205,cs),
(23,193,o),
(24,180,o),
(25,168,c)
);
},
{
closed = 1;
nodes = (
(25,168,l),
(51,-151,o),
(422,-306,o),
(691,-306,cs),
(1065,-306,o),
(1352,-7,o),
(1352,309,cs),
(1352,596,o),
(1116,834,o),
(813,834,cs),
(668,834,o),
(540,780,o),
(443,692,c),
(448,688,l),
(544,775,o),
(670,828,o),
(812,828,cs),
(1109,828,o),
(1346,597,o),
(1346,307,cs),
(1346,2,o),
(1083,-263,o),
(744,-263,cs),
(508,-263,o),
(239,-134,o),
(226,251,c)
);
}
);
};
layerId = "90448605-A80E-4A32-AE33-B790A1EB0DF1";
shapes = (
{
closed = 1;
nodes = (
(395,684,l),
(490,770,o),
(614,822,o),
(755,822,cs),
(1051,822,o),
(1288,594,o),
(1288,310,cs),
(1288,-6,o),
(967,-278,o),
(659,-278,cs),
(373,-278,o),
(138,-117,o),
(116,184,c),
(164,203,o),
(253,218,o),
(322,255,cs),
(376,284,o),
(417,319,o),
(417,380,cs),
(417,464,o),
(339,500,o),
(263,500,cs),
(133,500,o),
(37,365,o),
(37,203,cs),
(37,-133,o),
(363,-306,o),
(620,-306,cs),
(927,-306,o),
(1296,-47,o),
(1296,310,cs),
(1296,597,o),
(1060,834,o),
(757,834,cs),
(612,834,o),
(484,780,o),
(387,692,c)
);
},
{
closed = 1;
nodes = (
(114,208,o),
(114,220,o),
(114,231,cs),
(114,341,o),
(142,487,o),
(263,487,cs),
(320,487,o),
(350,464,o),
(350,411,cs),
(350,310,o),
(245,231,o),
(115,197,c)
);
}
);
width = 454;
},
{
layerId = "97E2145D-66CE-4726-B996-40A38D9C79F6";
shapes = (
{
closed = 1;
nodes = (
(454,684,l),
(549,770,o),
(673,822,o),
(814,822,cs),
(1110,822,o),
(1347,594,o),
(1347,307,cs),
(1347,3,o),
(1052,-261,o),
(744,-261,cs),
(525,-261,o),
(280,-151,o),
(236,173,c),
(286,188,o),
(345,200,o),
(397,221,cs),
(452,244,o),
(497,287,o),
(497,350,cs),
(497,448,o),
(413,500,o),
(302,500,cs),
(141,500,o),
(26,386,o),
(26,201,cs),
(26,-139,o),
(415,-306,o),
(694,-306,cs),
(1037,-306,o),
(1355,-7,o),
(1355,309,cs),
(1355,596,o),
(1119,834,o),
(816,834,cs),
(671,834,o),
(543,780,o),
(446,692,c)
);
},
{
closed = 1;
nodes = (
(231,214,o),
(229,246,o),
(229,279,cs),
(229,417,o),
(262,486,o),
(303,486,cs),
(336,486,o),
(356,456,o),
(356,405,cs),
(356,313,o),
(298,228,o),
(235,185,c)
);
}
);
width = 520;
}
);
leftKerningGroup = _kern2;
rightKerningGroup = _kern2;
},
{
color = (153, 255, 154, 255);
glyphname = e.8;
layers = (
{
background = {
};
layerId = "90448605-A80E-4A32-AE33-B790A1EB0DF1";
shapes = (
{
closed = 1;
nodes = (
(-2574,346,l),
(-2438,623,o),
(-2154,815,o),
(-1828,815,cs),
(-1296,815,o),
(-885,398,o),
(-503,4,cs),
(-161,-348,o),
(159,-685,o),
(543,-685,cs),
(912,-685,o),
(1112,-429,o),
(1112,-180,cs),
(1112,58,o),
(930,290,o),
(543,290,cs),
(479,290,o),
(382,272,o),
(321,257,c),
(380,290,o),
(422,320,o),
(422,385,cs),
(422,459,o),
(343,500,o),
(265,500,cs),
(132,500,o),
(34,391,o),
(34,237,cs),
(34,68,o),
(118,-9,o),
(240,-9,cs),
(327,-9,o),
(400,32,o),
(433,121,c),
(423,125,l),
(401,59,o),
(346,26,o),
(279,26,cs),
(184,26,o),
(136,90,o),
(120,180,c),
(234,228,o),
(417,282,o),
(543,282,cs),
(922,282,o),
(1100,53,o),
(1100,-180,cs),
(1100,-426,o),
(904,-677,o),
(543,-677,cs),
(172,-677,o),
(-163,-339,o),
(-497,8,cs),
(-871,396,o),
(-1287,827,o),
(-1828,827,cs),
(-2159,827,o),
(-2449,630,o),
(-2587,348,c)
);
},
{
closed = 1;
nodes = (
(326,487,o),
(353,454,o),
(353,400,cs),
(353,312,o),
(243,230,o),
(117,195,c),
(114,215,o),
(113,236,o),
(113,258,cs),
(113,350,o),
(137,487,o),
(268,487,cs)
);
}
);
width = 464;
},
{
layerId = "97E2145D-66CE-4726-B996-40A38D9C79F6";
shapes = (
{
closed = 1;
nodes = (
(-2523,346,l),
(-2387,623,o),
(-2103,815,o),
(-1777,815,cs),
(-1245,815,o),
(-833,398,o),
(-452,4,cs),
(-110,-349,o),
(210,-685,o),
(594,-685,cs),
(963,-685,o),
(1163,-429,o),
(1163,-180,cs),
(1163,58,o),
(981,290,o),
(594,290,cs),
(544,290,o),
(472,279,o),
(416,267,c),
(460,292,o),
(494,324,o),
(494,371,cs),
(494,453,o),
(406,500,o),
(297,500,cs),
(144,500,o),
(28,419,o),
(28,244,cs),
(28,68,o),
(129,-9,o),
(275,-9,cs),
(387,-9,o),
(469,39,o),
(506,142,c),
(496,146,l),
(473,82,o),
(424,51,o),
(361,51,cs),
(277,51,o),
(244,110,o),
(236,205,c),
(349,247,o),
(472,282,o),
(594,282,cs),
(973,282,o),
(1151,53,o),
(1151,-180,cs),
(1151,-426,o),
(955,-677,o),
(594,-677,cs),
(223,-677,o),
(-112,-339,o),
(-446,8,cs),
(-820,396,o),
(-1236,827,o),
(-1777,827,cs),
(-2108,827,o),
(-2398,630,o),
(-2536,348,c)
);
},
{
closed = 1;
nodes = (
(332,486,o),
(351,463,o),
(351,417,cs),
(351,335,o),
(295,256,o),
(234,217,c),
(233,234,o),
(232,253,o),
(232,273,cs),
(232,451,o),
(265,486,o),
(302,486,cs)
);
}
);
width = 520;
}
);
leftKerningGroup = _kern2;
rightKerningGroup = _kern2;
},
{
color = (153, 255, 154, 255);
glyphname = e.8.acc;
layers = (
{
background = {
};
layerId = "90448605-A80E-4A32-AE33-B790A1EB0DF1";
shapes = (
{
closed = 1;
nodes = (
(-2574,346,l),
(-2438,623,o),
(-2154,815,o),
(-1828,815,cs),
(-1296,815,o),
(-885,398,o),
(-503,4,cs),
(-161,-348,o),
(159,-714,o),
(559,-714,cs),
(912,-714,o),
(1112,-428,o),
(1112,-179,cs),
(1112,59,o),
(930,290,o),
(543,290,cs),
(476,290,o),
(376,271,o),
(316,254,c),
(378,287,o),
(422,317,o),
(422,385,cs),
(422,459,o),
(343,500,o),
(265,500,cs),
(132,500,o),
(34,391,o),
(34,237,cs),
(34,68,o),
(118,-9,o),
(240,-9,cs),
(327,-9,o),
(400,32,o),
(433,121,c),
(423,125,l),
(401,59,o),
(346,26,o),
(279,26,cs),
(184,26,o),
(136,90,o),
(120,180,c),
(217,227,o),
(437,282,o),
(543,282,cs),
(922,282,o),
(1100,53,o),
(1100,-181,cs),
(1100,-427,o),
(904,-654,o),
(571,-654,cs),
(167,-654,o),
(-162,-339,o),
(-497,8,c),
(-870,397,o),
(-1287,827,o),
(-1828,827,cs),
(-2159,827,o),
(-2449,630,o),
(-2587,348,c)
);
},
{
closed = 1;
nodes = (
(114,215,o),
(113,236,o),
(113,258,cs),
(113,350,o),
(137,487,o),
(268,487,cs),
(326,487,o),
(353,454,o),
(353,400,cs),
(353,312,o),
(243,230,o),
(117,195,c)
);
}
);
width = 464;
},
{
layerId = "97E2145D-66CE-4726-B996-40A38D9C79F6";
shapes = (
{
closed = 1;
nodes = (
(-2523,346,l),
(-2387,623,o),
(-2103,815,o),
(-1777,815,cs),
(-1245,815,o),
(-833,398,o),
(-452,4,cs),
(-110,-349,o),
(210,-778,o),
(606,-778,cs),
(978,-778,o),
(1169,-518,o),
(1169,-250,cs),
(1169,106,o),
(924,290,o),
(594,290,cs),
(541,290,o),
(466,278,o),
(411,264,c),
(458,289,o),
(494,321,o),
(494,371,cs),
(494,453,o),
(406,500,o),
(297,500,cs),
(144,500,o),
(28,419,o),
(28,244,cs),
(28,68,o),
(129,-9,o),
(275,-9,cs),
(387,-9,o),
(469,39,o),
(506,142,c),
(496,146,l),
(473,82,o),
(424,51,o),
(361,51,cs),
(277,51,o),
(244,110,o),
(236,205,c),
(333,245,o),
(491,282,o),
(594,282,cs),
(973,282,o),
(1151,29,o),
(1151,-181,cs),
(1151,-427,o),
(955,-648,o),
(619,-648,cs),
(218,-648,o),
(-111,-339,o),
(-446,8,c),
(-819,397,o),
(-1236,827,o),
(-1777,827,cs),
(-2108,827,o),
(-2398,630,o),
(-2536,348,c)
);
},
{
closed = 1;
nodes = (
(233,234,o),
(232,253,o),
(232,273,cs),
(232,451,o),
(265,486,o),
(302,486,cs),
(332,486,o),
(351,463,o),
(351,417,cs),
(351,335,o),
(295,256,o),
(234,217,c)
);
}
);
width = 520;
}
);
leftKerningGroup = _kern2;
rightKerningGroup = _kern2;
},
{
color = (153, 255, 154, 255);
glyphname = e.999;
layers = (
{
anchors = (
{
name = bottom;
position = "{219, -77}";
},
{
name = top;
position = "{248, 577}";
}
);
guides = (
{
position = "{0, -77}";
}
);
layerId = "90448605-A80E-4A32-AE33-B790A1EB0DF1";
shapes = (
{
closed = 1;
nodes = (
(155,203,o),
(259,214,o),
(330,250,cs),
(389,279,o),
(425,312,o),
(425,376,cs),
(425,457,o),
(350,500,o),
(268,500,cs),
(129,500,o),
(31,371,o),
(31,212,cs),
(31,29,o),
(142,-93,o),
(323,-93,cs),
(506,-93,o),
(579,9,o),
(579,125,cs),
(579,191,o),
(550,237,o),
(500,237,cs),
(464,237,o),
(439,212,o),
(439,183,cs),
(439,155,o),
(462,129,o),
(497,129,cs),
(525,129,o),
(547,145,o),
(556,165,c),
(561,150,o),
(563,136,o),
(563,119,cs),
(563,5,o),
(496,-62,o),
(367,-62,cs),
(213,-62,o),
(128,38,o),
(109,182,c)
);
},
{
closed = 1;
nodes = (
(105,216,o),
(104,234,o),
(104,251,cs),
(104,376,o),
(164,487,o),
(264,487,cs),
(330,487,o),
(360,448,o),
(360,398,cs),
(360,305,o),
(242,231,o),
(107,198,c)
);
}
);
width = 624;
},
{
anchors = (
{
name = bottom;
position = "{270, -77}";
},
{
name = top;
position = "{292, 577}";
}
);
guides = (
{
position = "{0, -77}";
}
);
layerId = "97E2145D-66CE-4726-B996-40A38D9C79F6";
shapes = (
{
closed = 1;
nodes = (
(279,226,o),
(343,234,o),
(394,253,cs),
(449,273,o),
(494,311,o),
(494,367,cs),
(494,456,o),
(405,500,o),
(292,500,cs),
(141,500,o),
(25,404,o),
(25,226,cs),
(25,-1,o),
(205,-102,o),
(381,-102,cs),
(668,-102,o),
(749,49,o),
(749,181,cs),
(749,267,o),
(702,337,o),
(622,337,cs),
(557,337,o),
(513,292,o),
(513,239,cs),
(513,188,o),
(554,141,o),
(617,141,cs),
(666,141,o),
(707,170,o),
(723,207,c),
(726,190,o),
(728,173,o),
(728,157,cs),
(728,38,o),
(644,-55,o),
(502,-55,cs),
(406,-55,o),
(257,4,o),
(232,209,c)
);
},
{
closed = 1;
nodes = (
(228,238,o),
(227,255,o),
(227,273,cs),
(227,451,o),
(259,486,o),
(303,486,cs),
(331,486,o),
(353,462,o),
(353,416,cs),
(353,332,o),
(294,259,o),
(230,221,c)
);
}
);
width = 769;
}
);
leftKerningGroup = _kern2;
rightKerningGroup = _kern2;
},
{
glyphname = e.9;
layers = (
{
layerId = "90448605-A80E-4A32-AE33-B790A1EB0DF1";
shapes = (
{
closed = 1;
nodes = (
(629,885,l),
(787,1020,o),
(992,1101,o),
(1216,1101,cs),
(1715,1101,o),
(2115,696,o),
(2115,199,cs),
(2115,-340,o),
(1644,-707,o),
(1095,-707,cs),
(561,-707,o),
(107,-359,o),
(107,180,c),
(153,203,o),
(245,218,o),
(323,259,cs),
(376,288,o),
(413,329,o),
(413,393,cs),
(413,464,o),
(341,500,o),
(274,500,cs),
(101,500,o),
(31,276,o),
(31,134,cs),
(31,-424,o),
(586,-725,o),
(1059,-725,cs),
(1640,-725,o),
(2127,-366,o),
(2127,199,cs),
(2127,711,o),
(1718,1113,o),
(1216,1113,cs),
(986,1113,o),
(778,1028,o),
(618,889,c)
);
},
{
closed = 1;
nodes = (
(109,205,o),
(110,216,o),
(109,224,c),
(115,340,o),
(145,490,o),
(266,490,cs),
(312,490,o),
(345,466,o),
(345,415,cs),
(345,309,o),
(239,229,o),
(109,195,c)
);
}
);
width = 454;
},
{
layerId = "97E2145D-66CE-4726-B996-40A38D9C79F6";
shapes = (
{
closed = 1;
nodes = (
(689,885,l),
(847,1020,o),
(1052,1101,o),
(1276,1101,cs),
(1772,1101,o),
(2175,696,o),
(2175,199,cs),
(2175,-329,o),
(1720,-700,o),
(1176,-700,cs),
(664,-700,o),
(250,-375,o),
(218,150,c),
(271,171,o),
(338,178,o),
(394,202,cs),
(449,226,o),
(498,270,o),
(498,350,cs),
(498,462,o),
(403,499,o),
(305,500,cs),
(153,501,o),
(25,385,o),
(25,139,cs),
(25,-388,o),
(565,-725,o),
(1119,-725,cs),
(1689,-725,o),
(2187,-366,o),
(2187,199,cs),
(2187,711,o),
(1778,1113,o),
(1276,1113,cs),
(1046,1113,o),
(838,1028,o),
(678,889,c)
);
},
{
closed = 1;
nodes = (
(217,182,o),
(217,199,o),
(216,215,c),
(215,405,o),
(262,488,o),
(309,488,cs),
(339,488,o),
(356,455,o),
(356,403,cs),
(356,294,o),
(289,205,o),
(218,165,c)
);
}
);
width = 520;
}
);
leftKerningGroup = _kern2;
rightKerningGroup = _kern2;
},
{
color = (255, 153, 153, 255);
glyphname = f;
layers = (
{
background = {
shapes = (
{
closed = 1;
nodes = (
(221,497,l),
(221,623,ls),
(221,670,o),
(238,727,o),
(291,727,cs),
(314,727,o),
(325,716,o),
(328,709,c),
(295,694,o),
(279,660,o),
(279,626,cs),
(279,582,o),
(305,538,o),
(358,538,cs),
(407,538,o),
(435,575,o),
(435,624,cs),
(435,682,o),
(397,737,o),
(265,737,cs),
(88,737,o),
(24,639,o),
(24,505,cs),
(24,444,l)
);
},
{
closed = 1;
nodes = (
(24,505,l),
(24,0,l),
(221,0,l),
(221,505,l)
);
}
);
};
layerId = "90448605-A80E-4A32-AE33-B790A1EB0DF1";
shapes = (
{
closed = 1;
nodes = (
(95,0,l),
(163,0,l),
(163,467,l),
(299,467,l),
(299,481,l),
(163,481,l),
(163,608,ls),
(163,685,o),
(201,725,o),
(248,725,cs),
(270,725,o),
(284,717,o),
(287,705,c),
(267,696,o),
(252,674,o),
(252,650,cs),
(252,626,o),
(267,601,o),
(299,601,cs),
(330,601,o),
(347,624,o),
(347,656,cs),
(347,703,o),
(305,736,o),
(239,736,cs),
(134,736,o),
(95,651,o),
(95,552,cs),
(95,481,l),
(13,481,l),
(13,467,l),
(95,467,l)
);
}
);
width = 300;
},
{
layerId = "97E2145D-66CE-4726-B996-40A38D9C79F6";
shapes = (
{
closed = 1;
nodes = (
(70,0,l),
(267,0,l),
(267,470,l),
(342,470,l),
(342,481,l),
(267,481,l),
(267,623,ls),
(267,667,o),
(284,724,o),
(337,724,cs),
(360,724,o),
(371,714,o),
(374,709,c),
(341,694,o),
(325,660,o),
(325,626,cs),
(325,582,o),
(351,538,o),
(404,538,cs),
(453,538,o),
(481,575,o),
(481,624,cs),
(481,679,o),
(443,737,o),
(311,737,cs),
(134,737,o),
(70,637,o),
(70,505,cs),
(70,481,l),
(24,481,l),
(24,470,l),
(70,470,l)
);
}
);
width = 343;
}
);
unicode = 102;
},
{
color = (153, 255, 154, 255);
glyphname = f.7;
layers = (
{
layerId = "90448605-A80E-4A32-AE33-B790A1EB0DF1";
shapes = (
{
closed = 1;
nodes = (
(13,467,l),
(95,467,l),
(95,138,ls),
(95,-231,o),
(-167,-397,o),
(-442,-397,cs),
(-773,-397,o),
(-1042,-126,o),
(-1042,207,cs),
(-1042,537,o),
(-774,805,o),
(-444,805,cs),
(-290,805,o),
(-150,748,o),
(-44,653,c),
(-34,659,l),
(-142,757,o),
(-286,817,o),
(-444,817,cs),
(-781,817,o),
(-1054,544,o),
(-1054,207,cs),
(-1054,-136,o),
(-777,-413,o),
(-434,-413,cs),
(-114,-413,o),
(167,-192,o),
(167,173,cs),
(167,275,o),
(141,372,o),
(131,467,c),
(299,467,l),
(299,481,l),
(129,481,l),
(126,506,o),
(124,531,o),
(124,555,cs),
(124,695,o),
(188,725,o),
(236,725,cs),
(253,725,o),
(283,722,o),
(287,705,c),
(267,696,o),
(252,674,o),
(252,650,cs),
(252,626,o),
(267,601,o),
(299,601,cs),
(330,601,o),
(347,624,o),
(347,656,cs),
(347,706,o),
(305,736,o),
(246,736,cs),
(134,736,o),
(95,626,o),
(95,525,cs),
(95,481,l),
(13,481,l)
);
}
);
width = 253;
},
{
layerId = "97E2145D-66CE-4726-B996-40A38D9C79F6";
shapes = (
{
closed = 1;
nodes = (
(19,470,l),
(65,470,l),
(65,138,ls),
(65,-228,o),
(-184,-393,o),
(-449,-393,cs),
(-785,-393,o),
(-1051,-124,o),
(-1051,207,cs),
(-1051,537,o),
(-783,805,o),
(-453,805,cs),
(-299,805,o),
(-159,748,o),
(-53,653,c),
(-43,659,l),
(-151,757,o),
(-295,817,o),
(-453,817,cs),
(-790,817,o),
(-1063,546,o),
(-1063,203,cs),
(-1063,-136,o),
(-797,-413,o),
(-419,-413,cs),
(-78,-413,o),
(266,-187,o),
(266,164,cs),
(266,280,o),
(227,384,o),
(194,470,c),
(337,470,l),
(337,481,l),
(190,481,l),
(165,543,o),
(144,596,o),
(144,637,cs),
(144,696,o),
(189,727,o),
(240,727,cs),
(253,727,o),
(279,726,o),
(284,709,c),
(251,694,o),
(235,660,o),
(235,626,cs),
(235,582,o),
(261,538,o),
(314,538,cs),
(363,538,o),
(391,575,o),
(391,625,cs),
(391,681,o),
(355,737,o),
(252,737,cs),
(101,737,o),
(65,616,o),
(65,505,cs),
(65,481,l),
(19,481,l)
);
}
);
width = 322;
}
);
},
{
color = (255, 153, 153, 255);
glyphname = g;
layers = (
{
layerId = "90448605-A80E-4A32-AE33-B790A1EB0DF1";
shapes = (
{
closed = 1;
nodes = (
(345,172,o),
(438,211,o),
(438,335,cs),
(438,445,o),
(355,488,o),
(282,498,c),
(295,525,o),
(303,556,o),
(301,585,cs),
(298,622,o),
(284,651,o),
(244,651,cs),
(214,651,o),
(194,635,o),
(194,611,cs),
(194,592,o),
(206,572,o),
(236,572,cs),
(251,572,o),
(273,577,o),
(282,590,c),
(287,566,o),
(283,531,o),
(270,499,c),
(263,500,o),
(256,500,o),
(249,500,cs),
(171,500,o),
(60,462,o),
(60,335,cs),
(60,266,o),
(90,223,o),
(132,199,c),
(81,188,o),
(32,155,o),
(32,93,cs),
(32,52,o),
(60,26,o),
(106,15,c),
(55,13,o),
(8,-19,o),
(8,-76,cs),
(8,-188,o),
(150,-211,o),
(247,-211,cs),
(416,-211,o),
(501,-123,o),
(501,-38,cs),
(501,37,o),
(443,89,o),
(358,89,cs),
(302,89,o),
(239,75,o),
(169,75,cs),
(112,75,o),
(73,90,o),
(73,124,cs),
(73,158,o),
(107,185,o),
(144,192,c),
(175,178,o),
(212,172,o),
(249,172,cs)
);
},
{
closed = 1;
nodes = (
(230,431,l),
(246,442,o),
(262,462,o),
(275,485,c),
(340,471,o),
(370,403,o),
(370,336,cs),
(370,263,o),
(333,184,o),
(249,184,cs),
(165,184,o),
(128,263,o),
(128,336,cs),
(128,411,o),
(165,488,o),
(249,488,cs),
(254,488,o),
(259,488,o),
(264,487,c),
(253,464,o),
(238,444,o),
(218,431,c)
);
},
{
closed = 1;
nodes = (
(155,8,o),
(167,7,o),
(177,7,cs),
(238,7,o),
(288,22,o),
(342,22,cs),
(420,22,o),
(464,-1,o),
(464,-79,cs),
(464,-135,o),
(402,-201,o),
(247,-201,cs),
(165,-201,o),
(56,-175,o),
(56,-86,cs),
(56,-35,o),
(93,6,o),
(147,9,c)
);
}
);
width = 489;
},
{
layerId = "97E2145D-66CE-4726-B996-40A38D9C79F6";
shapes = (
{
closed = 1;
nodes = (
(398,156,o),
(524,190,o),
(524,329,cs),
(524,440,o),
(424,484,o),
(331,496,c),
(353,530,o),
(363,565,o),
(360,600,cs),
(355,656,o),
(322,679,o),
(281,679,cs),
(240,679,o),
(210,656,o),
(210,621,cs),
(210,594,o),
(228,564,o),
(280,564,cs),
(293,564,o),
(313,568,o),
(330,577,c),
(332,552,o),
(328,525,o),
(314,498,c),
(300,499,o),
(287,500,o),
(274,500,cs),
(175,500,o),
(32,468,o),
(32,327,cs),
(32,250,o),
(72,206,o),
(127,182,c),
(55,164,o),
(0,127,o),
(0,57,cs),
(0,16,o),
(16,-12,o),
(41,-31,c),
(24,-38,o),
(7,-74,o),
(7,-104,cs),
(7,-178,o),
(52,-255,o),
(271,-255,cs),
(473,-255,o),
(564,-155,o),
(564,-61,cs),
(564,24,o),
(497,104,o),
(369,104,cs),
(310,104,o),
(249,95,o),
(198,97,cs),
(138,99,o),
(96,107,o),
(96,139,cs),
(96,161,o),
(121,169,o),
(152,172,c),
(190,160,o),
(232,156,o),
(272,156,cs)
);
},
{
closed = 1;
nodes = (
(267,426,l),
(283,440,o),
(298,454,o),
(310,468,c),
(333,439,o),
(343,383,o),
(343,328,cs),
(343,249,o),
(319,168,o),
(272,168,cs),
(226,168,o),
(204,247,o),
(204,328,cs),
(204,409,o),
(228,488,o),
(274,488,cs),
(284,488,o),
(293,484,o),
(301,477,c),
(290,460,o),
(275,443,o),
(256,426,c)
);
},
{
closed = 1;
nodes = (
(147,-66,o),
(169,-67,o),
(189,-67,cs),
(256,-67,o),
(298,-60,o),
(365,-60,cs),
(437,-60,o),
(488,-71,o),
(488,-133,cs),
(488,-185,o),
(438,-243,o),
(271,-243,cs),
(106,-243,o),
(50,-186,o),
(50,-139,cs),
(50,-100,o),
(84,-66,o),
(126,-63,c)
);
}
);
width = 548;
}
);
unicode = 103;
},
{
color = (153, 255, 154, 255);
glyphname = g.7;
layers = (
{
background = {
shapes = (
{
closed = 1;
nodes = (
(352,156,o),
(453,197,o),
(453,327,cs),
(453,457,o),
(337,500,o),
(255,500,cs),
(172,500,o),
(53,457,o),
(53,327,cs),
(53,197,o),
(125,156,o),
(251,156,cs)
);
},
{
closed = 1;
nodes = (
(343,492,o),
(382,409,o),
(382,328,cs),
(382,247,o),
(343,164,o),
(255,164,cs),
(169,164,o),
(125,245,o),
(125,328,cs),
(125,411,o),
(169,492,o),
(255,492,cs)
);
}
);
};
layerId = "90448605-A80E-4A32-AE33-B790A1EB0DF1";
shapes = (
{
closed = 1;
nodes = (
(47,481,l),
(64,475,l),
(80,468,o),
(96,461,o),
(113,454,c),
(84,428,o),
(63,390,o),
(63,335,cs),
(63,264,o),
(93,221,o),
(137,197,c),
(85,187,o),
(35,153,o),
(35,90,cs),
(35,49,o),
(62,23,o),
(109,12,c),
(58,10,o),
(11,-22,o),
(11,-79,cs),
(11,-191,o),
(153,-214,o),
(250,-214,cs),
(419,-214,o),
(504,-126,o),
(504,-41,cs),
(504,34,o),
(446,86,o),
(361,86,cs),
(305,86,o),
(242,72,o),
(172,72,cs),
(115,72,o),
(76,87,o),
(76,121,cs),
(76,156,o),
(113,184,o),
(152,189,c),
(182,177,o),
(217,172,o),
(252,172,cs),
(348,172,o),
(441,211,o),
(441,335,cs),
(441,390,o),
(420,428,o),
(390,454,c),
(496,504,o),
(573,608,o),
(573,721,cs),
(573,857,o),
(463,1014,o),
(261,1014,cs),
(-80,1014,o),
(-314,554,o),
(-715,554,cs),
(-871,554,o),
(-995,677,o),
(-995,831,cs),
(-995,985,o),
(-871,1109,o),
(-715,1109,cs),
(-643,1109,o),
(-577,1083,o),
(-527,1041,c),
(-522,1047,l),
(-573,1093,o),
(-641,1121,o),
(-715,1121,cs),
(-876,1121,o),
(-1009,991,o),
(-1009,831,cs),
(-1009,671,o),
(-875,542,o),
(-715,542,cs),
(-315,542,o),
(-68,1004,o),
(259,1004,cs),
(448,1004,o),
(547,856,o),
(547,723,cs),
(547,609,o),
(477,510,o),
(381,462,c),
(343,489,o),
(292,500,o),
(252,500,cs),
(211,500,o),
(160,490,o),
(121,459,c),
(101,468,o),
(84,476,o),
(66,483,c),
(49,489,l)
);
},
{
closed = 1;
nodes = (
(156,6,o),
(166,5,o),
(173,5,cs),
(238,5,o),
(288,19,o),
(345,19,cs),
(423,19,o),
(467,-4,o),
(467,-82,cs),
(467,-138,o),
(405,-203,o),
(250,-203,cs),
(168,-203,o),
(59,-178,o),
(59,-97,cs),
(59,-39,o),
(96,3,o),
(150,6,c)
);
},
{
closed = 1;
nodes = (
(187,429,o),
(219,423,o),
(253,423,cs),
(286,423,o),
(316,428,o),
(346,438,c),
(365,409,o),
(373,372,o),
(373,336,cs),
(373,263,o),
(336,183,o),
(252,183,cs),
(168,183,o),
(131,263,o),
(131,336,cs),
(131,372,o),
(139,409,o),
(158,438,c)
);
},
{
closed = 1;
nodes = (
(182,472,o),
(211,489,o),
(252,489,cs),
(292,489,o),
(321,471,o),
(341,445,c),
(314,435,o),
(283,431,o),
(253,431,cs),
(221,431,o),
(191,437,o),
(162,446,c)
);
}
);
width = 505;
},
{
layerId = "97E2145D-66CE-4726-B996-40A38D9C79F6";
shapes = (
{
closed = 1;
nodes = (
(64,481,l),
(81,475,l),
(90,471,o),
(98,467,o),
(107,463,c),
(62,437,o),
(29,395,o),
(29,327,cs),
(29,246,o),
(74,201,o),
(133,178,c),
(57,162,o),
(-3,124,o),
(-3,54,cs),
(-3,13,o),
(13,-15,o),
(38,-34,c),
(20,-41,o),
(4,-77,o),
(4,-107,cs),
(4,-181,o),
(49,-258,o),
(268,-258,cs),
(470,-258,o),
(561,-158,o),
(561,-64,cs),
(561,21,o),
(494,101,o),
(366,101,cs),
(307,101,o),
(246,92,o),
(195,94,cs),
(135,96,o),
(93,104,o),
(93,136,cs),
(93,159,o),
(121,169,o),
(154,169,c),
(190,159,o),
(231,156,o),
(269,156,cs),
(395,156,o),
(521,190,o),
(521,329,cs),
(521,398,o),
(482,441,o),
(431,466,c),
(524,520,o),
(590,617,o),
(590,721,cs),
(590,857,o),
(480,1014,o),
(278,1014,cs),
(-63,1014,o),
(-297,554,o),
(-698,554,cs),
(-854,554,o),
(-978,677,o),
(-978,831,cs),
(-978,985,o),
(-854,1109,o),
(-698,1109,cs),
(-626,1109,o),
(-560,1083,o),
(-510,1041,c),
(-505,1047,l),
(-556,1093,o),
(-624,1121,o),
(-698,1121,cs),
(-859,1121,o),
(-992,991,o),
(-992,831,cs),
(-992,671,o),
(-858,542,o),
(-698,542,cs),
(-298,542,o),
(-51,1004,o),
(276,1004,cs),
(465,1004,o),
(564,856,o),
(564,723,cs),
(564,617,o),
(504,524,o),
(418,473,c),
(371,492,o),
(316,500,o),
(271,500,cs),
(223,500,o),
(164,493,o),
(116,468,c),
(105,474,o),
(94,479,o),
(83,483,cs),
(66,489,l)
);
},
{
closed = 1;
nodes = (
(144,-69,o),
(166,-70,o),
(186,-70,cs),
(253,-70,o),
(295,-63,o),
(362,-63,cs),
(434,-63,o),
(485,-74,o),
(485,-136,cs),
(485,-191,o),
(435,-251,o),
(268,-251,cs),
(103,-251,o),
(47,-191,o),
(47,-142,cs),
(47,-103,o),
(81,-68,o),
(123,-66,c)
);
},
{
closed = 1;
nodes = (
(233,425,o),
(251,423,o),
(270,423,cs),
(289,423,o),
(307,425,o),
(326,428,c),
(336,399,o),
(340,363,o),
(340,328,cs),
(340,249,o),
(316,167,o),
(269,167,cs),
(223,167,o),
(201,247,o),
(201,328,cs),
(201,364,o),
(205,399,o),
(215,428,c)
);
},
{
closed = 1;
nodes = (
(230,468,o),
(247,489,o),
(271,489,cs),
(295,489,o),
(312,467,o),
(323,436,c),
(306,432,o),
(288,431,o),
(270,431,cs),
(252,431,o),
(235,433,o),
(218,436,c)
);
}
);
width = 550;
}
);
},
{
color = (153, 255, 154, 255);
glyphname = g.77;
layers = (
{
background = {
shapes = (
{
closed = 1;
nodes = (
(350,156,o),
(451,197,o),
(451,327,cs),
(451,457,o),
(335,500,o),
(253,500,cs),
(170,500,o),
(51,457,o),
(51,327,cs),
(51,197,o),
(123,156,o),
(249,156,cs)
);
},
{
closed = 1;
nodes = (
(341,492,o),
(380,409,o),
(380,328,cs),
(380,247,o),
(341,164,o),
(253,164,cs),
(167,164,o),
(123,245,o),
(123,328,cs),
(123,411,o),
(167,492,o),
(253,492,cs)
);
}
);
};
layerId = "90448605-A80E-4A32-AE33-B790A1EB0DF1";
shapes = (
{
closed = 1;
nodes = (
(-38,494,o),
(-461,1237,o),
(-1068,1237,cs),
(-1550,1237,o),
(-1941,848,o),
(-1941,368,cs),
(-1941,-112,o),
(-1550,-501,o),
(-1068,-501,cs),
(-855,-501,o),
(-659,-424,o),
(-508,-296,c),
(-516,-288,l),
(-665,-413,o),
(-858,-489,o),
(-1068,-489,cs),
(-1543,-489,o),
(-1929,-105,o),
(-1929,368,cs),
(-1929,841,o),
(-1543,1225,o),
(-1068,1225,cs),
(-530,1225,o),
(-129,629,o),
(257,500,c),
(154,500,o),
(63,448,o),
(63,335,cs),
(63,264,o),
(93,221,o),
(137,197,c),
(85,187,o),
(35,153,o),
(35,90,cs),
(35,49,o),
(62,23,o),
(109,12,c),
(58,10,o),
(11,-22,o),
(11,-79,cs),
(11,-191,o),
(153,-214,o),
(250,-214,cs),
(419,-214,o),
(504,-126,o),
(504,-41,cs),
(504,34,o),
(446,86,o),
(361,86,cs),
(305,86,o),
(242,72,o),
(172,72,cs),
(115,72,o),
(76,87,o),
(76,121,cs),
(76,156,o),
(113,184,o),
(152,189,c),
(182,177,o),
(217,172,o),
(252,172,cs),
(348,172,o),
(441,211,o),
(441,335,cs),
(441,409,o),
(403,453,o),
(355,478,c),
(564,448,o),
(742,623,o),
(742,830,cs),
(742,1025,o),
(585,1182,o),
(390,1182,cs),
(283,1182,o),
(187,1135,o),
(123,1060,c),
(129,1059,l),
(190,1128,o),
(283,1170,o),
(390,1170,cs),
(580,1170,o),
(725,1030,o),
(725,841,cs),
(725,650,o),
(567,494,o),
(377,494,cs)
);
},
{
closed = 1;
nodes = (
(168,183,o),
(131,263,o),
(131,336,cs),
(131,411,o),
(168,489,o),
(252,489,cs),
(336,489,o),
(373,411,o),
(373,336,cs),
(373,263,o),
(336,183,o),
(252,183,cs)
);
},
{
closed = 1;
nodes = (
(169,6,ls),
(234,6,o),
(288,19,o),
(345,19,cs),
(423,19,o),
(467,-4,o),
(467,-82,cs),
(467,-138,o),
(405,-203,o),
(250,-203,cs),
(168,-203,o),
(59,-178,o),
(59,-97,cs),
(59,-39,o),
(96,3,o),
(150,6,c)
);
}
);
width = 502;
},
{
layerId = "97E2145D-66CE-4726-B996-40A38D9C79F6";
shapes = (
{
closed = 1;
nodes = (
(-22,494,o),
(-443,1237,o),
(-1050,1237,cs),
(-1532,1237,o),
(-1923,848,o),
(-1923,368,cs),
(-1923,-112,o),
(-1532,-501,o),
(-1050,-501,cs),
(-837,-501,o),
(-641,-424,o),
(-490,-296,c),
(-498,-288,l),
(-647,-413,o),
(-840,-489,o),
(-1050,-489,cs),
(-1525,-489,o),
(-1911,-105,o),
(-1911,368,cs),
(-1911,841,o),
(-1525,1225,o),
(-1050,1225,cs),
(-512,1225,o),
(-118,636,o),
(274,500,c),
(166,500,o),
(30,455,o),
(30,327,cs),
(30,246,o),
(75,201,o),
(134,178,c),
(58,162,o),
(-2,124,o),
(-2,54,cs),
(-2,13,o),
(14,-15,o),
(39,-34,c),
(21,-41,o),
(5,-77,o),
(5,-107,cs),
(5,-181,o),
(50,-258,o),
(269,-258,cs),
(471,-258,o),
(562,-158,o),
(562,-64,cs),
(562,21,o),
(495,101,o),
(367,101,cs),
(308,101,o),
(247,92,o),
(196,94,cs),
(136,96,o),
(94,104,o),
(94,136,cs),
(94,159,o),
(122,169,o),
(155,169,c),
(191,159,o),
(232,156,o),
(270,156,cs),
(396,156,o),
(522,190,o),
(522,329,cs),
(522,405,o),
(474,450,o),
(413,475,c),
(608,475,o),
(760,636,o),
(760,830,cs),
(760,1025,o),
(603,1182,o),
(408,1182,cs),
(301,1182,o),
(205,1135,o),
(141,1060,c),
(147,1059,l),
(208,1128,o),
(301,1170,o),
(408,1170,cs),
(598,1170,o),
(743,1030,o),
(743,841,cs),
(743,650,o),
(585,494,o),
(395,494,cs)
);
},
{
closed = 1;
nodes = (
(224,167,o),
(202,247,o),
(202,328,cs),
(202,409,o),
(226,489,o),
(272,489,cs),
(319,489,o),
(341,407,o),
(341,328,cs),
(341,249,o),
(317,167,o),
(270,167,cs)
);
},
{
closed = 1;
nodes = (
(187,-70,ls),
(254,-74,o),
(296,-63,o),
(363,-63,cs),
(435,-63,o),
(486,-74,o),
(486,-136,cs),
(486,-191,o),
(436,-249,o),
(269,-249,cs),
(104,-249,o),
(48,-191,o),
(48,-142,cs),
(48,-103,o),
(82,-68,o),
(124,-66,c)
);
}
);
width = 548;
}
);
},
{
color = (153, 255, 154, 255);
glyphname = g.7777;
layers = (
{
background = {
shapes = (
{
closed = 1;
nodes = (
(356,156,o),
(457,197,o),
(457,327,cs),
(457,457,o),
(341,500,o),
(259,500,cs),
(176,500,o),
(57,457,o),
(57,327,cs),
(57,197,o),
(129,156,o),
(255,156,cs)
);
},
{
closed = 1;
nodes = (
(347,492,o),
(386,409,o),
(386,328,cs),
(386,247,o),
(347,164,o),
(259,164,cs),
(173,164,o),
(129,245,o),
(129,328,cs),
(129,411,o),
(173,492,o),
(259,492,cs)
);
}
);
};
layerId = "90448605-A80E-4A32-AE33-B790A1EB0DF1";
shapes = (
{
closed = 1;
nodes = (
(1312,-294,l),
(1463,-422,o),
(1659,-499,o),
(1872,-499,cs),
(2352,-499,o),
(2741,-110,o),
(2741,370,cs),
(2741,850,o),
(2352,1239,o),
(1872,1239,cs),
(1255,1239,o),
(822,500,o),
(404,500,cs),
(224,500,o),
(75,654,o),
(75,843,cs),
(75,1032,o),
(222,1172,o),
(414,1172,cs),
(521,1172,o),
(614,1130,o),
(675,1061,c),
(681,1062,l),
(617,1137,o),
(521,1184,o),
(414,1184,cs),
(217,1184,o),
(58,1027,o),
(58,832,cs),
(58,677,o),
(150,545,o),
(282,499,c),
(271,500,o),
(260,500,o),
(251,500,cs),
(173,500,o),
(62,462,o),
(62,335,cs),
(62,264,o),
(92,221,o),
(136,197,c),
(84,187,o),
(34,153,o),
(34,90,cs),
(34,49,o),
(61,23,o),
(108,12,c),
(57,10,o),
(10,-22,o),
(10,-79,cs),
(10,-191,o),
(152,-214,o),
(249,-214,cs),
(418,-214,o),
(503,-126,o),
(503,-41,cs),
(503,34,o),
(445,86,o),
(360,86,cs),
(304,86,o),
(241,72,o),
(171,72,cs),
(114,72,o),
(75,87,o),
(75,121,cs),
(75,156,o),
(111,184,o),
(151,189,c),
(180,177,o),
(215,172,o),
(251,172,cs),
(347,172,o),
(440,211,o),
(440,335,cs),
(440,418,o),
(392,463,o),
(338,485,c),
(352,482,o),
(369,481,o),
(385,481,cs),
(821,481,o),
(1259,1227,o),
(1872,1227,cs),
(2346,1227,o),
(2731,843,o),
(2731,370,cs),
(2731,-104,o),
(2346,-489,o),
(1872,-489,cs),
(1662,-489,o),
(1469,-413,o),
(1320,-286,c)
);
},
{
closed = 1;
nodes = (
(167,183,o),
(130,263,o),
(130,336,cs),
(130,411,o),
(167,489,o),
(251,489,cs),
(335,489,o),
(372,411,o),
(372,336,cs),
(372,263,o),
(335,183,o),
(251,183,cs)
);
},
{
closed = 1;
nodes = (
(168,6,ls),
(233,7,o),
(287,19,o),
(344,19,cs),
(422,19,o),
(466,-4,o),
(466,-82,cs),
(466,-138,o),
(404,-203,o),
(249,-203,cs),
(167,-203,o),
(58,-178,o),
(58,-97,cs),
(58,-39,o),
(95,3,o),
(149,6,c)
);
}
);
width = 502;
},
{
layerId = "97E2145D-66CE-4726-B996-40A38D9C79F6";
shapes = (
{
closed = 1;
nodes = (
(1328,-294,l),
(1479,-422,o),
(1675,-499,o),
(1888,-499,cs),
(2368,-499,o),
(2757,-110,o),
(2757,370,cs),
(2757,850,o),
(2368,1239,o),
(1888,1239,cs),
(1281,1239,o),
(865,496,o),
(443,496,cs),
(251,496,o),
(91,652,o),
(91,843,cs),
(91,1032,o),
(238,1172,o),
(430,1172,cs),
(537,1172,o),
(630,1130,o),
(691,1061,c),
(697,1062,l),
(633,1137,o),
(537,1184,o),
(430,1184,cs),
(233,1184,o),
(74,1027,o),
(74,832,cs),
(74,680,o),
(167,549,o),
(303,499,c),
(291,500,o),
(279,500,o),
(269,500,cs),
(170,500,o),
(27,468,o),
(27,327,cs),
(27,246,o),
(72,201,o),
(131,178,c),
(55,162,o),
(-5,124,o),
(-5,54,cs),
(-5,13,o),
(11,-15,o),
(36,-34,c),
(18,-41,o),
(2,-77,o),
(2,-107,cs),
(2,-181,o),
(47,-258,o),
(266,-258,cs),
(468,-258,o),
(559,-158,o),
(559,-64,cs),
(559,21,o),
(492,101,o),
(364,101,cs),
(305,101,o),
(244,92,o),
(193,94,cs),
(133,96,o),
(91,104,o),
(91,136,cs),
(91,159,o),
(118,169,o),
(152,169,c),
(187,159,o),
(228,156,o),
(267,156,cs),
(393,156,o),
(519,190,o),
(519,329,cs),
(519,409,o),
(466,454,o),
(403,478,c),
(409,477,o),
(417,477,o),
(424,477,cs),
(853,477,o),
(1285,1227,o),
(1888,1227,cs),
(2362,1227,o),
(2747,843,o),
(2747,370,cs),
(2747,-104,o),
(2362,-489,o),
(1888,-489,cs),
(1678,-489,o),
(1485,-413,o),
(1336,-286,c)
);
},
{
closed = 1;
nodes = (
(221,167,o),
(199,247,o),
(199,328,cs),
(199,409,o),
(223,489,o),
(269,489,cs),
(316,489,o),
(338,407,o),
(338,328,cs),
(338,249,o),
(314,167,o),
(267,167,cs)
);
},
{
closed = 1;
nodes = (
(184,-70,ls),
(251,-74,o),
(293,-63,o),
(360,-63,cs),
(432,-63,o),
(483,-74,o),
(483,-136,cs),
(483,-191,o),
(433,-251,o),
(266,-251,cs),
(101,-251,o),
(45,-191,o),
(45,-142,cs),
(45,-103,o),
(79,-68,o),
(121,-66,c)
);
}
);
width = 542;
}
);
},
{
color = (154, 153, 255, 255);
glyphname = g.778;
layers = (
{
background = {
shapes = (
{
closed = 1;
nodes = (
(367,156,o),
(468,197,o),
(468,327,cs),
(468,457,o),
(352,500,o),
(270,500,cs),
(187,500,o),
(68,457,o),
(68,327,cs),
(68,197,o),
(140,156,o),
(266,156,cs)
);
},
{
closed = 1;
nodes = (
(358,492,o),
(397,409,o),
(397,328,cs),
(397,247,o),
(358,164,o),
(270,164,cs),
(184,164,o),
(140,245,o),
(140,328,cs),
(140,411,o),
(184,492,o),
(270,492,cs)
);
}
);
};
layerId = "90448605-A80E-4A32-AE33-B790A1EB0DF1";
shapes = (
{
closed = 1;
nodes = (
(1451,-179,l),
(1569,-299,o),
(1732,-372,o),
(1914,-372,cs),
(2274,-372,o),
(2565,-82,o),
(2565,278,cs),
(2565,638,o),
(2274,929,o),
(1914,929,cs),
(1526,929,o),
(1257,580,o),
(927,129,cs),
(750,-113,o),
(513,-283,o),
(297,-283,cs),
(108,-283,o),
(8,-132,o),
(4,-37,cs),
(0,57,o),
(51,154,o),
(143,202,c),
(178,180,o),
(223,171,o),
(268,171,cs),
(316,171,o),
(363,181,o),
(398,206,c),
(434,190,o),
(465,166,o),
(487,137,c),
(493,137,l),
(471,168,o),
(442,194,o),
(406,212,c),
(437,238,o),
(457,276,o),
(457,334,cs),
(457,413,o),
(414,458,o),
(362,480,c),
(379,478,o),
(395,477,o),
(412,477,cs),
(607,477,o),
(758,638,o),
(758,832,cs),
(758,1027,o),
(601,1184,o),
(406,1184,cs),
(299,1184,o),
(203,1137,o),
(139,1062,c),
(147,1058,l),
(208,1128,o),
(300,1172,o),
(406,1172,cs),
(598,1172,o),
(745,1032,o),
(745,843,cs),
(745,652,o),
(585,496,o),
(393,496,cs),
(362,496,o),
(331,500,o),
(300,507,c),
(310,532,o),
(317,559,o),
(315,585,cs),
(312,622,o),
(298,651,o),
(258,651,cs),
(228,651,o),
(208,635,o),
(208,611,cs),
(208,592,o),
(220,572,o),
(250,572,cs),
(265,572,o),
(287,577,o),
(296,590,c),
(301,569,o),
(298,539,o),
(288,510,c),
(-99,614,o),
(-492,1239,o),
(-1052,1239,cs),
(-1532,1239,o),
(-1921,850,o),
(-1921,370,cs),
(-1921,-110,o),
(-1532,-499,o),
(-1052,-499,cs),
(-839,-499,o),
(-643,-422,o),
(-492,-294,c),
(-497,-284,l),
(-647,-411,o),
(-841,-487,o),
(-1052,-487,cs),
(-1526,-487,o),
(-1911,-103,o),
(-1911,370,cs),
(-1911,844,o),
(-1526,1229,o),
(-1052,1229,cs),
(-510,1229,o),
(-107,622,o),
(281,499,c),
(176,504,o),
(79,437,o),
(79,334,cs),
(79,274,o),
(101,233,o),
(134,208,c),
(39,156,o),
(-17,53,o),
(-17,-53,c),
(-18,-226,o),
(109,-349,o),
(302,-349,cs),
(551,-349,o),
(758,-122,o),
(970,171,cs),
(1266,581,o),
(1548,919,o),
(1914,919,cs),
(2267,919,o),
(2553,632,o),
(2553,278,cs),
(2553,-75,o),
(2267,-360,o),
(1914,-360,cs),
(1734,-360,o),
(1571,-287,o),
(1455,-169,c)
);
},
{
closed = 1;
nodes = (
(244,431,l),
(260,442,o),
(276,462,o),
(289,485,c),
(358,473,o),
(389,403,o),
(389,335,cs),
(389,298,o),
(380,259,o),
(359,230,c),
(332,238,o),
(302,242,o),
(270,242,cs),
(237,242,o),
(207,237,o),
(179,228,c),
(157,257,o),
(147,297,o),
(147,335,cs),
(147,407,o),
(176,466,o),
(239,482,cs),
(251,485,o),
(264,487,o),
(278,487,c),
(267,464,o),
(252,444,o),
(232,431,c)
);
},
{
closed = 1;
nodes = (
(212,227,o),
(240,232,o),
(270,232,cs),
(299,232,o),
(326,229,o),
(352,222,c),
(332,199,o),
(305,183,o),
(268,183,cs),
(232,183,o),
(205,197,o),
(186,219,c)
);
}
);
width = 521;
},
{
layerId = "97E2145D-66CE-4726-B996-40A38D9C79F6";
shapes = (
{
closed = 1;
nodes = (
(1451,-194,l),
(1569,-314,o),
(1732,-387,o),
(1914,-387,cs),
(2274,-387,o),
(2565,-97,o),
(2565,263,cs),
(2565,623,o),
(2274,914,o),
(1914,914,cs),
(1519,914,o),
(1271,554,o),
(927,114,cs),
(754,-107,o),
(520,-260,o),
(308,-260,cs),
(112,-260,o),
(15,-129,o),
(15,-14,cs),
(15,60,o),
(55,135,o),
(127,179,c),
(169,162,o),
(219,156,o),
(266,156,cs),
(319,156,o),
(372,162,o),
(416,179,c),
(442,164,o),
(464,144,o),
(482,121,c),
(493,122,l),
(476,146,o),
(453,167,o),
(427,184,c),
(481,209,o),
(518,254,o),
(518,329,cs),
(518,407,o),
(468,452,o),
(406,476,c),
(423,476,o),
(440,477,o),
(457,479,cs),
(630,502,o),
(758,652,o),
(758,831,cs),
(758,1026,o),
(601,1183,o),
(406,1183,cs),
(299,1183,o),
(203,1136,o),
(139,1061,c),
(147,1057,l),
(208,1127,o),
(300,1171,o),
(406,1171,cs),
(598,1171,o),
(745,1031,o),
(745,842,cs),
(745,651,o),
(585,495,o),
(393,495,cs),
(371,495,o),
(349,497,o),
(327,501,c),
(347,533,o),
(357,566,o),
(354,600,cs),
(349,656,o),
(316,679,o),
(275,679,cs),
(234,679,o),
(204,656,o),
(204,621,cs),
(204,594,o),
(222,564,o),
(274,564,cs),
(287,564,o),
(307,568,o),
(324,577,c),
(325,554,o),
(321,529,o),
(310,504,c),
(-84,589,o),
(-481,1238,o),
(-1052,1238,cs),
(-1532,1238,o),
(-1921,849,o),
(-1921,369,cs),
(-1921,-111,o),
(-1532,-500,o),
(-1052,-500,cs),
(-839,-500,o),
(-643,-423,o),
(-492,-295,c),
(-497,-285,l),
(-647,-412,o),
(-841,-488,o),
(-1052,-488,cs),
(-1526,-488,o),
(-1911,-104,o),
(-1911,369,cs),
(-1911,843,o),
(-1526,1228,o),
(-1052,1228,cs),
(-513,1228,o),
(-111,628,o),
(274,500,c),
(163,500,o),
(26,462,o),
(26,327,cs),
(26,253,o),
(63,209,o),
(115,184,c),
(22,127,o),
(-33,22,o),
(-33,-86,cs),
(-33,-253,o),
(100,-406,o),
(301,-406,cs),
(551,-406,o),
(746,-147,o),
(976,156,cs),
(1300,583,o),
(1548,904,o),
(1914,904,cs),
(2267,904,o),
(2553,617,o),
(2553,263,cs),
(2553,-90,o),
(2267,-375,o),
(1914,-375,cs),
(1734,-375,o),
(1571,-302,o),
(1455,-184,c)
);
},
{
closed = 1;
nodes = (
(261,426,l),
(277,440,o),
(292,454,o),
(304,468,c),
(327,439,o),
(337,383,o),
(337,328,cs),
(337,291,o),
(332,253,o),
(321,223,c),
(305,225,o),
(288,227,o),
(270,227,cs),
(250,227,o),
(231,225,o),
(213,222,c),
(203,251,o),
(198,289,o),
(198,328,cs),
(198,409,o),
(222,488,o),
(268,488,cs),
(278,488,o),
(287,484,o),
(295,477,c),
(284,460,o),
(269,443,o),
(250,426,c)
);
},
{
closed = 1;
nodes = (
(234,215,o),
(251,217,o),
(270,217,cs),
(286,217,o),
(302,216,o),
(317,214,c),
(305,187,o),
(288,168,o),
(266,168,cs),
(244,168,o),
(228,185,o),
(217,212,c)
);
}
);
width = 540;
}
);
},
{
color = (255, 153, 153, 255);
glyphname = g.777;
layers = (
{
background = {
shapes = (
{
closed = 1;
nodes = (
(367,156,o),
(468,197,o),
(468,327,cs),
(468,457,o),
(352,500,o),
(270,500,cs),
(187,500,o),
(68,457,o),
(68,327,cs),
(68,197,o),
(140,156,o),
(266,156,cs)
);
},
{
closed = 1;
nodes = (
(358,492,o),
(397,409,o),
(397,328,cs),
(397,247,o),
(358,164,o),
(270,164,cs),
(184,164,o),
(140,245,o),
(140,328,cs),
(140,411,o),
(184,492,o),
(270,492,cs)
);
}
);
};
guides = (
{
angle = 90;
position = "{270, 0}";
}
);
layerId = "90448605-A80E-4A32-AE33-B790A1EB0DF1";
shapes = (
{
closed = 1;
nodes = (
(316,171,o),
(363,181,o),
(398,206,c),
(434,190,o),
(465,166,o),
(487,137,c),
(493,137,l),
(471,168,o),
(442,194,o),
(406,212,c),
(437,238,o),
(457,276,o),
(457,334,cs),
(457,447,o),
(370,489,o),
(296,497,c),
(309,524,o),
(317,555,o),
(315,585,cs),
(312,622,o),
(298,651,o),
(258,651,cs),
(228,651,o),
(208,635,o),
(208,611,cs),
(208,592,o),
(220,572,o),
(250,572,cs),
(265,572,o),
(287,577,o),
(296,590,c),
(301,566,o),
(297,531,o),
(284,499,c),
(266,499,o),
(249,498,o),
(232,495,cs),
(148,483,o),
(79,437,o),
(79,334,cs),
(79,274,o),
(101,233,o),
(134,208,c),
(39,156,o),
(-17,53,o),
(-17,-53,c),
(-18,-226,o),
(109,-349,o),
(302,-349,cs),
(551,-349,o),
(758,-122,o),
(970,171,cs),
(1266,581,o),
(1548,919,o),
(1914,919,cs),
(2267,919,o),
(2553,632,o),
(2553,278,cs),
(2553,-75,o),
(2267,-360,o),
(1914,-360,cs),
(1734,-360,o),
(1571,-287,o),
(1455,-169,c),
(1451,-179,l),
(1569,-299,o),
(1732,-372,o),
(1914,-372,cs),
(2274,-372,o),
(2565,-82,o),
(2565,278,cs),
(2565,638,o),
(2274,929,o),
(1914,929,cs),
(1526,929,o),
(1257,580,o),
(927,129,cs),
(750,-113,o),
(513,-283,o),
(297,-283,cs),
(108,-283,o),
(8,-132,o),
(4,-37,cs),
(0,57,o),
(51,154,o),
(143,202,c),
(178,180,o),
(223,171,o),
(268,171,cs)
);
},
{
closed = 1;
nodes = (
(244,431,l),
(260,442,o),
(276,462,o),
(289,485,c),
(358,473,o),
(389,403,o),
(389,335,cs),
(389,298,o),
(380,259,o),
(359,230,c),
(332,238,o),
(302,242,o),
(270,242,cs),
(237,242,o),
(207,237,o),
(179,228,c),
(157,257,o),
(147,297,o),
(147,335,cs),
(147,406,o),
(175,464,o),
(236,481,c),
(248,485,o),
(262,487,o),
(278,487,c),
(267,464,o),
(252,444,o),
(232,431,c)
);
},
{
closed = 1;
nodes = (
(212,227,o),
(240,232,o),
(270,232,cs),
(299,232,o),
(326,229,o),
(352,222,c),
(332,199,o),
(305,183,o),
(268,183,cs),
(232,183,o),
(205,197,o),
(186,219,c)
);
}
);
width = 521;
},
{
guides = (
{
angle = 90;
position = "{273, 0}";
}
);
layerId = "97E2145D-66CE-4726-B996-40A38D9C79F6";
shapes = (
{
closed = 1;
nodes = (
(319,156,o),
(372,163,o),
(416,180,c),
(442,165,o),
(464,145,o),
(482,122,c),
(493,122,l),
(476,146,o),
(453,167,o),
(427,184,c),
(481,209,o),
(518,254,o),
(518,329,cs),
(518,440,o),
(418,484,o),
(325,496,c),
(347,530,o),
(357,565,o),
(354,600,cs),
(349,656,o),
(316,679,o),
(275,679,cs),
(234,679,o),
(204,656,o),
(204,621,cs),
(204,594,o),
(222,564,o),
(274,564,cs),
(287,564,o),
(307,568,o),
(324,577,c),
(326,552,o),
(322,525,o),
(308,498,c),
(294,499,o),
(281,500,o),
(268,500,cs),
(169,500,o),
(26,468,o),
(26,327,cs),
(26,253,o),
(63,209,o),
(115,184,c),
(22,127,o),
(-33,22,o),
(-33,-86,cs),
(-33,-253,o),
(100,-406,o),
(301,-406,cs),
(551,-406,o),
(746,-147,o),
(976,156,cs),
(1300,583,o),
(1548,904,o),
(1914,904,cs),
(2267,904,o),
(2553,617,o),
(2553,263,cs),
(2553,-90,o),
(2267,-375,o),
(1914,-375,cs),
(1734,-375,o),
(1571,-302,o),
(1455,-184,c),
(1451,-194,l),
(1569,-314,o),
(1732,-387,o),
(1914,-387,cs),
(2274,-387,o),
(2565,-97,o),
(2565,263,cs),
(2565,623,o),
(2274,914,o),
(1914,914,cs),
(1519,914,o),
(1271,554,o),
(927,114,cs),
(754,-107,o),
(520,-260,o),
(308,-260,cs),
(112,-260,o),
(15,-129,o),
(15,-14,cs),
(15,60,o),
(55,135,o),
(127,179,c),
(169,162,o),
(219,156,o),
(266,156,cs)
);
},
{
closed = 1;
nodes = (
(261,426,l),
(277,440,o),
(292,454,o),
(304,468,c),
(327,439,o),
(337,383,o),
(337,328,cs),
(337,291,o),
(332,253,o),
(321,223,c),
(305,225,o),
(288,227,o),
(270,227,cs),
(250,227,o),
(231,225,o),
(213,222,c),
(203,251,o),
(198,289,o),
(198,328,cs),
(198,409,o),
(222,488,o),
(268,488,cs),
(278,488,o),
(287,484,o),
(295,477,c),
(284,460,o),
(269,443,o),
(250,426,c)
);
},
{
closed = 1;
nodes = (
(234,215,o),
(251,217,o),
(270,217,cs),
(286,217,o),
(302,216,o),
(317,214,c),
(305,187,o),
(288,168,o),
(266,168,cs),
(244,168,o),
(228,185,o),
(217,212,c)
);
}
);
width = 546;
}
);
},
{
color = (153, 255, 154, 255);
glyphname = g.77.acc;
layers = (
{
background = {
shapes = (
{
closed = 1;
nodes = (
(359,156,o),
(460,197,o),
(460,327,cs),
(460,457,o),
(344,500,o),
(262,500,cs),
(179,500,o),
(60,457,o),
(60,327,cs),
(60,197,o),
(132,156,o),
(258,156,cs)
);
},
{
closed = 1;
nodes = (
(350,492,o),
(389,409,o),
(389,328,cs),
(389,247,o),
(350,164,o),
(262,164,cs),
(176,164,o),
(132,245,o),
(132,328,cs),
(132,411,o),
(176,492,o),
(262,492,cs)
);
}
);
};
layerId = "90448605-A80E-4A32-AE33-B790A1EB0DF1";
shapes = (
{
closed = 1;
nodes = (
(-512,-286,l),
(-663,-413,o),
(-856,-488,o),
(-1068,-488,cs),
(-1541,-488,o),
(-1925,-104,o),
(-1925,369,cs),
(-1925,845,o),
(-1541,1232,o),
(-1068,1232,cs),
(-529,1232,o),
(-127,628,o),
(259,500,c),
(155,500,o),
(63,451,o),
(63,335,cs),
(63,264,o),
(93,221,o),
(137,197,c),
(85,187,o),
(35,153,o),
(35,90,cs),
(35,49,o),
(62,23,o),
(109,12,c),
(58,10,o),
(11,-22,o),
(11,-79,cs),
(11,-191,o),
(153,-214,o),
(250,-214,cs),
(419,-214,o),
(504,-126,o),
(504,-41,cs),
(504,34,o),
(446,86,o),
(361,86,cs),
(305,86,o),
(242,72,o),
(172,72,cs),
(115,72,o),
(76,87,o),
(76,121,cs),
(76,156,o),
(112,184,o),
(152,189,c),
(181,177,o),
(217,172,o),
(252,172,cs),
(348,172,o),
(441,211,o),
(441,335,cs),
(441,411,o),
(401,455,o),
(352,479,c),
(563,451,o),
(742,620,o),
(742,831,cs),
(742,1026,o),
(583,1183,o),
(390,1183,cs),
(283,1183,o),
(187,1136,o),
(123,1061,c),
(131,1058,l),
(192,1128,o),
(284,1171,o),
(390,1171,cs),
(582,1171,o),
(729,1031,o),
(729,842,cs),
(729,651,o),
(569,495,o),
(377,495,cs),
(-67,495,o),
(-461,1302,o),
(-1068,1302,cs),
(-1548,1302,o),
(-1937,849,o),
(-1937,369,cs),
(-1937,-111,o),
(-1548,-500,o),
(-1068,-500,cs),
(-855,-500,o),
(-659,-423,o),
(-508,-295,c)
);
},
{
closed = 1;
nodes = (
(168,183,o),
(131,263,o),
(131,336,cs),
(131,411,o),
(168,489,o),
(252,489,cs),
(336,489,o),
(373,411,o),
(373,336,cs),
(373,263,o),
(336,183,o),
(252,183,cs)
);
},
{
closed = 1;
nodes = (
(169,6,ls),
(234,7,o),
(288,19,o),
(345,19,cs),
(423,19,o),
(467,-4,o),
(467,-82,cs),
(467,-138,o),
(405,-203,o),
(250,-203,cs),
(168,-203,o),
(59,-178,o),
(59,-97,cs),
(59,-39,o),
(96,3,o),
(150,6,c)
);
}
);
width = 502;
},
{
layerId = "97E2145D-66CE-4726-B996-40A38D9C79F6";
shapes = (
{
closed = 1;
nodes = (
(-498,-286,l),
(-649,-413,o),
(-842,-488,o),
(-1054,-488,cs),
(-1527,-488,o),
(-1911,-104,o),
(-1911,369,cs),
(-1911,845,o),
(-1527,1181,o),
(-1054,1181,cs),
(-518,1181,o),
(-117,623,o),
(267,500,c),
(168,500,o),
(26,468,o),
(26,327,cs),
(26,246,o),
(71,201,o),
(130,178,c),
(54,162,o),
(-6,124,o),
(-6,54,cs),
(-6,13,o),
(10,-15,o),
(35,-34,c),
(17,-41,o),
(1,-77,o),
(1,-107,cs),
(1,-181,o),
(46,-258,o),
(265,-258,cs),
(467,-258,o),
(558,-158,o),
(558,-64,cs),
(558,21,o),
(491,101,o),
(363,101,cs),
(304,101,o),
(243,92,o),
(192,94,cs),
(132,96,o),
(90,104,o),
(90,136,cs),
(90,159,o),
(117,169,o),
(151,169,c),
(186,159,o),
(228,156,o),
(266,156,cs),
(392,156,o),
(518,190,o),
(518,329,cs),
(518,407,o),
(468,452,o),
(406,476,c),
(601,476,o),
(756,637,o),
(756,831,cs),
(756,1026,o),
(597,1183,o),
(404,1183,cs),
(297,1183,o),
(201,1136,o),
(137,1061,c),
(145,1058,l),
(206,1128,o),
(298,1171,o),
(404,1171,cs),
(596,1171,o),
(743,1031,o),
(743,842,cs),
(743,651,o),
(583,495,o),
(391,495,cs),
(-103,495,o),
(-447,1341,o),
(-1054,1341,cs),
(-1534,1341,o),
(-1923,849,o),
(-1923,369,cs),
(-1923,-111,o),
(-1534,-500,o),
(-1054,-500,cs),
(-841,-500,o),
(-645,-423,o),
(-494,-295,c)
);
},
{
closed = 1;
nodes = (
(220,167,o),
(198,247,o),
(198,328,cs),
(198,409,o),
(222,489,o),
(268,489,cs),
(315,489,o),
(337,407,o),
(337,328,cs),
(337,249,o),
(313,167,o),
(266,167,cs)
);
},
{
closed = 1;
nodes = (
(183,-70,ls),
(250,-74,o),
(292,-63,o),
(359,-63,cs),
(431,-63,o),
(482,-74,o),
(482,-136,cs),
(482,-191,o),
(432,-251,o),
(265,-251,cs),
(100,-251,o),
(44,-191,o),
(44,-142,cs),
(44,-103,o),
(78,-68,o),
(120,-66,c)
);
}
);
width = 544;
}
);
},
{
color = (153, 255, 154, 255);
glyphname = g.7777.acc;
layers = (
{
background = {
shapes = (
{
closed = 1;
nodes = (
(355,156,o),
(456,197,o),
(456,327,cs),
(456,457,o),
(340,500,o),
(258,500,cs),
(175,500,o),
(56,457,o),
(56,327,cs),
(56,197,o),
(128,156,o),
(254,156,cs)
);
},
{
closed = 1;
nodes = (
(346,492,o),
(385,409,o),
(385,328,cs),
(385,247,o),
(346,164,o),
(258,164,cs),
(172,164,o),
(128,245,o),
(128,328,cs),
(128,411,o),
(172,492,o),
(258,492,cs)
);
}
);
};
layerId = "90448605-A80E-4A32-AE33-B790A1EB0DF1";
shapes = (
{
closed = 1;
nodes = (
(1316,-296,l),
(1467,-424,o),
(1663,-501,o),
(1876,-501,cs),
(2356,-501,o),
(2745,-112,o),
(2745,368,cs),
(2745,848,o),
(2356,1301,o),
(1876,1301,cs),
(1259,1301,o),
(869,498,o),
(408,498,cs),
(228,498,o),
(79,652,o),
(79,841,cs),
(79,1030,o),
(226,1170,o),
(418,1170,cs),
(524,1170,o),
(616,1127,o),
(677,1057,c),
(685,1060,l),
(621,1135,o),
(525,1182,o),
(418,1182,cs),
(223,1182,o),
(66,1025,o),
(66,830,cs),
(66,678,o),
(154,547,o),
(281,499,c),
(272,500,o),
(263,500,o),
(255,500,cs),
(177,500,o),
(66,462,o),
(66,335,cs),
(66,264,o),
(96,221,o),
(140,197,c),
(88,187,o),
(38,153,o),
(38,90,cs),
(38,49,o),
(65,23,o),
(112,12,c),
(61,10,o),
(14,-22,o),
(14,-79,cs),
(14,-191,o),
(156,-214,o),
(253,-214,cs),
(422,-214,o),
(507,-126,o),
(507,-41,cs),
(507,34,o),
(449,86,o),
(364,86,cs),
(308,86,o),
(245,72,o),
(175,72,cs),
(118,72,o),
(79,87,o),
(79,121,cs),
(79,156,o),
(116,184,o),
(155,189,c),
(185,177,o),
(220,172,o),
(255,172,cs),
(351,172,o),
(444,211,o),
(444,335,cs),
(444,415,o),
(400,460,o),
(348,482,c),
(750,391,o),
(1263,1231,o),
(1876,1231,cs),
(2349,1231,o),
(2734,844,o),
(2734,368,cs),
(2734,-105,o),
(2349,-489,o),
(1876,-489,cs),
(1667,-489,o),
(1473,-413,o),
(1325,-288,c)
);
},
{
closed = 1;
nodes = (
(171,183,o),
(134,263,o),
(134,336,cs),
(134,411,o),
(171,489,o),
(255,489,cs),
(339,489,o),
(376,411,o),
(376,336,cs),
(376,263,o),
(339,183,o),
(255,183,cs)
);
},
{
closed = 1;
nodes = (
(172,6,l),
(237,7,o),
(291,19,o),
(348,19,cs),
(426,19,o),
(470,-4,o),
(470,-82,cs),
(470,-138,o),
(408,-203,o),
(253,-203,cs),
(171,-203,o),
(62,-178,o),
(62,-97,cs),
(62,-39,o),
(99,3,o),
(153,6,c)
);
}
);
width = 506;
},
{
layerId = "97E2145D-66CE-4726-B996-40A38D9C79F6";
shapes = (
{
closed = 1;
nodes = (
(1330,-296,l),
(1481,-424,o),
(1677,-501,o),
(1890,-501,cs),
(2370,-501,o),
(2759,-112,o),
(2759,368,cs),
(2759,848,o),
(2370,1342,o),
(1890,1342,cs),
(1283,1342,o),
(956,494,o),
(445,494,cs),
(253,494,o),
(93,650,o),
(93,841,cs),
(93,1030,o),
(240,1170,o),
(432,1170,cs),
(538,1170,o),
(630,1127,o),
(691,1057,c),
(699,1060,l),
(635,1135,o),
(539,1182,o),
(432,1182,cs),
(237,1182,o),
(80,1025,o),
(80,830,cs),
(80,681,o),
(169,551,o),
(300,499,c),
(290,500,o),
(280,500,o),
(271,500,cs),
(172,500,o),
(29,468,o),
(29,327,cs),
(29,246,o),
(74,201,o),
(133,178,c),
(57,162,o),
(-3,124,o),
(-3,54,cs),
(-3,13,o),
(13,-15,o),
(38,-34,c),
(20,-41,o),
(4,-77,o),
(4,-107,cs),
(4,-181,o),
(49,-258,o),
(268,-258,cs),
(470,-258,o),
(561,-158,o),
(561,-64,cs),
(561,21,o),
(494,101,o),
(366,101,cs),
(307,101,o),
(246,92,o),
(195,94,cs),
(135,96,o),
(93,104,o),
(93,136,cs),
(93,159,o),
(121,169,o),
(154,169,c),
(190,159,o),
(231,156,o),
(269,156,cs),
(395,156,o),
(521,190,o),
(521,329,cs),
(521,406,o),
(472,451,o),
(411,475,c),
(872,456,o),
(1287,1182,o),
(1890,1182,cs),
(2363,1182,o),
(2748,844,o),
(2748,368,cs),
(2748,-105,o),
(2363,-489,o),
(1890,-489,cs),
(1681,-489,o),
(1487,-413,o),
(1339,-288,c)
);
},
{
closed = 1;
nodes = (
(223,167,o),
(201,247,o),
(201,328,cs),
(201,409,o),
(225,489,o),
(271,489,cs),
(318,489,o),
(340,407,o),
(340,328,cs),
(340,249,o),
(316,167,o),
(269,167,cs)
);
},
{
closed = 1;
nodes = (
(186,-70,ls),
(253,-74,o),
(295,-63,o),
(362,-63,cs),
(434,-63,o),
(485,-74,o),
(485,-136,cs),
(485,-191,o),
(435,-251,o),
(268,-251,cs),
(103,-251,o),
(47,-191,o),
(47,-142,cs),
(47,-103,o),
(81,-68,o),
(123,-66,c)
);
}
);
width = 544;
}
);
},
{
color = (154, 153, 255, 255);
glyphname = g.778.acc;
layers = (
{
background = {
shapes = (
{
closed = 1;
nodes = (
(367,156,o),
(468,197,o),
(468,327,cs),
(468,457,o),
(352,500,o),
(270,500,cs),
(187,500,o),
(68,457,o),
(68,327,cs),
(68,197,o),
(140,156,o),
(266,156,cs)
);
},
{
closed = 1;
nodes = (
(358,492,o),
(397,409,o),
(397,328,cs),
(397,247,o),
(358,164,o),
(270,164,cs),
(184,164,o),
(140,245,o),
(140,328,cs),
(140,411,o),
(184,492,o),
(270,492,cs)
);
}
);
};
guides = (
{
angle = 90;
position = "{270, 0}";
}
);
layerId = "90448605-A80E-4A32-AE33-B790A1EB0DF1";
shapes = (
{
closed = 1;
nodes = (
(317,172,o),
(365,182,o),
(400,208,c),
(435,190,o),
(464,165,o),
(486,134,c),
(493,138,l),
(472,170,o),
(444,197,o),
(410,216,c),
(439,242,o),
(457,280,o),
(457,335,cs),
(457,411,o),
(417,456,o),
(368,479,c),
(383,477,o),
(397,476,o),
(412,476,cs),
(607,476,o),
(758,637,o),
(758,831,cs),
(758,1026,o),
(601,1183,o),
(406,1183,cs),
(299,1183,o),
(203,1136,o),
(139,1061,c),
(146,1052,l),
(207,1125,o),
(299,1171,o),
(406,1171,cs),
(598,1171,o),
(745,1030,o),
(745,842,cs),
(745,651,o),
(585,495,o),
(393,495,cs),
(362,495,o),
(331,499,o),
(300,506,c),
(311,531,o),
(317,559,o),
(315,585,cs),
(312,622,o),
(298,651,o),
(258,651,cs),
(228,651,o),
(208,635,o),
(208,611,cs),
(208,592,o),
(220,572,o),
(250,572,cs),
(265,572,o),
(287,577,o),
(296,590,c),
(301,568,o),
(298,538,o),
(288,509,c),
(-123,616,o),
(-492,1302,o),
(-1052,1302,cs),
(-1532,1302,o),
(-1921,849,o),
(-1921,369,cs),
(-1921,-111,o),
(-1532,-500,o),
(-1052,-500,cs),
(-839,-500,o),
(-643,-423,o),
(-492,-295,c),
(-497,-286,l),
(-647,-411,o),
(-841,-486,o),
(-1052,-486,cs),
(-1524,-486,o),
(-1907,-103,o),
(-1907,369,cs),
(-1907,845,o),
(-1524,1232,o),
(-1052,1232,cs),
(-513,1232,o),
(-111,629,o),
(275,500,c),
(171,500,o),
(79,451,o),
(79,335,cs),
(79,278,o),
(98,239,o),
(129,213,c),
(37,159,o),
(-17,55,o),
(-17,-52,cs),
(-17,-225,o),
(109,-348,o),
(302,-348,cs),
(551,-348,o),
(756,-120,o),
(970,172,cs),
(1270,581,o),
(1548,882,o),
(1914,882,cs),
(2267,882,o),
(2553,635,o),
(2553,279,cs),
(2553,-74,o),
(2267,-359,o),
(1914,-359,cs),
(1733,-359,o),
(1570,-286,o),
(1453,-169,c),
(1451,-178,l),
(1569,-298,o),
(1732,-371,o),
(1914,-371,cs),
(2274,-371,o),
(2565,-81,o),
(2565,279,cs),
(2565,639,o),
(2274,952,o),
(1914,952,cs),
(1526,952,o),
(1257,581,o),
(927,130,cs),
(750,-113,o),
(513,-282,o),
(297,-282,cs),
(108,-282,o),
(8,-131,o),
(4,-36,cs),
(0,59,o),
(50,156,o),
(139,206,c),
(174,181,o),
(221,172,o),
(268,172,cs)
);
},
{
closed = 1;
nodes = (
(244,431,l),
(260,443,o),
(277,462,o),
(290,486,c),
(359,474,o),
(389,404,o),
(389,336,cs),
(389,301,o),
(381,265,o),
(363,237,c),
(335,246,o),
(304,251,o),
(270,251,cs),
(236,251,o),
(204,245,o),
(175,235,c),
(156,264,o),
(147,300,o),
(147,336,cs),
(147,407,o),
(180,479,o),
(254,487,cs),
(260,488,o),
(271,488,o),
(279,488,c),
(268,465,o),
(252,444,o),
(232,431,c)
);
},
{
closed = 1;
nodes = (
(209,234,o),
(238,239,o),
(270,239,cs),
(300,239,o),
(328,234,o),
(355,226,c),
(335,201,o),
(307,184,o),
(268,184,cs),
(230,184,o),
(202,200,o),
(182,225,c)
);
}
);
width = 521;
},
{
guides = (
{
angle = 90;
position = "{270, 0}";
}
);
layerId = "97E2145D-66CE-4726-B996-40A38D9C79F6";
shapes = (
{
closed = 1;
nodes = (
(321,156,o),
(375,162,o),
(419,181,c),
(445,164,o),
(468,143,o),
(486,118,c),
(493,122,l),
(477,147,o),
(456,168,o),
(431,186,c),
(483,211,o),
(518,256,o),
(518,329,cs),
(518,407,o),
(468,452,o),
(406,476,c),
(424,476,o),
(441,477,o),
(459,479,cs),
(631,502,o),
(758,653,o),
(758,831,cs),
(758,1026,o),
(603,1183,o),
(406,1183,cs),
(299,1183,o),
(203,1136,o),
(139,1061,c),
(146,1052,l),
(207,1125,o),
(299,1171,o),
(406,1171,cs),
(598,1171,o),
(745,1030,o),
(745,842,cs),
(745,651,o),
(585,495,o),
(393,495,cs),
(371,495,o),
(349,497,o),
(327,500,c),
(347,532,o),
(357,566,o),
(354,600,cs),
(349,656,o),
(316,679,o),
(275,679,cs),
(234,679,o),
(204,656,o),
(204,621,cs),
(204,594,o),
(222,564,o),
(274,564,cs),
(287,564,o),
(307,568,o),
(324,577,c),
(326,553,o),
(322,529,o),
(310,503,c),
(-143,588,o),
(-479,1341,o),
(-1052,1341,cs),
(-1532,1341,o),
(-1921,849,o),
(-1921,369,cs),
(-1921,-111,o),
(-1532,-500,o),
(-1052,-500,cs),
(-839,-500,o),
(-643,-423,o),
(-492,-295,c),
(-496,-287,l),
(-646,-412,o),
(-841,-488,o),
(-1052,-488,cs),
(-1525,-488,o),
(-1909,-104,o),
(-1909,369,cs),
(-1909,845,o),
(-1525,1181,o),
(-1052,1181,cs),
(-516,1181,o),
(-115,623,o),
(268,500,c),
(169,500,o),
(26,468,o),
(26,327,cs),
(26,256,o),
(60,212,o),
(109,187,c),
(20,128,o),
(-33,22,o),
(-33,-86,cs),
(-33,-253,o),
(100,-406,o),
(301,-406,cs),
(551,-406,o),
(740,-149,o),
(969,154,cs),
(1293,583,o),
(1548,820,o),
(1914,820,cs),
(2267,820,o),
(2553,619,o),
(2553,263,cs),
(2553,-90,o),
(2267,-375,o),
(1914,-375,cs),
(1733,-375,o),
(1570,-302,o),
(1453,-185,c),
(1451,-194,l),
(1569,-314,o),
(1732,-387,o),
(1914,-387,cs),
(2274,-387,o),
(2565,-97,o),
(2565,263,cs),
(2565,623,o),
(2274,948,o),
(1914,948,cs),
(1519,948,o),
(1271,554,o),
(927,114,cs),
(754,-107,o),
(520,-260,o),
(308,-260,cs),
(112,-260,o),
(15,-129,o),
(15,-14,cs),
(15,60,o),
(53,136,o),
(122,181,c),
(165,162,o),
(217,156,o),
(266,156,cs)
);
},
{
closed = 1;
nodes = (
(261,426,l),
(277,440,o),
(292,454,o),
(304,468,c),
(327,439,o),
(337,383,o),
(337,328,cs),
(337,294,o),
(332,259,o),
(323,231,c),
(306,234,o),
(289,235,o),
(270,235,cs),
(249,235,o),
(230,233,o),
(211,229,c),
(202,257,o),
(198,293,o),
(198,328,cs),
(198,409,o),
(222,488,o),
(268,488,cs),
(278,488,o),
(287,484,o),
(295,477,c),
(284,460,o),
(269,443,o),
(250,426,c)
);
},
{
closed = 1;
nodes = (
(232,221,o),
(251,223,o),
(270,223,cs),
(287,223,o),
(303,222,o),
(319,219,c),
(307,189,o),
(290,168,o),
(266,168,cs),
(243,168,o),
(226,188,o),
(215,218,c)
);
}
);
width = 540;
}
);
},
{
color = (255, 153, 153, 255);
glyphname = g.777.acc;
layers = (
{
background = {
shapes = (
{
closed = 1;
nodes = (
(367,156,o),
(468,197,o),
(468,327,cs),
(468,457,o),
(352,500,o),
(270,500,cs),
(187,500,o),
(68,457,o),
(68,327,cs),
(68,197,o),
(140,156,o),
(266,156,cs)
);
},
{
closed = 1;
nodes = (
(358,492,o),
(397,409,o),
(397,328,cs),
(397,247,o),
(358,164,o),
(270,164,cs),
(184,164,o),
(140,245,o),
(140,328,cs),
(140,411,o),
(184,492,o),
(270,492,cs)
);
}
);
};
guides = (
{
angle = 90;
position = "{270, 0}";
}
);
layerId = "90448605-A80E-4A32-AE33-B790A1EB0DF1";
shapes = (
{
closed = 1;
nodes = (
(317,172,o),
(365,182,o),
(400,208,c),
(435,190,o),
(464,165,o),
(486,134,c),
(493,138,l),
(472,170,o),
(444,197,o),
(410,216,c),
(439,242,o),
(457,280,o),
(457,335,cs),
(457,447,o),
(370,490,o),
(296,498,c),
(309,525,o),
(317,556,o),
(315,585,cs),
(312,622,o),
(298,651,o),
(258,651,cs),
(228,651,o),
(208,635,o),
(208,611,cs),
(208,592,o),
(220,572,o),
(250,572,cs),
(265,572,o),
(287,577,o),
(296,590,c),
(301,566,o),
(297,531,o),
(284,499,c),
(274,500,o),
(264,501,o),
(254,500,cs),
(177,495,o),
(79,454,o),
(79,335,cs),
(79,278,o),
(98,239,o),
(129,213,c),
(37,159,o),
(-17,55,o),
(-17,-52,cs),
(-17,-225,o),
(109,-348,o),
(302,-348,cs),
(551,-348,o),
(756,-120,o),
(970,172,cs),
(1270,581,o),
(1548,882,o),
(1914,882,cs),
(2267,882,o),
(2553,635,o),
(2553,279,cs),
(2553,-74,o),
(2267,-359,o),
(1914,-359,cs),
(1733,-359,o),
(1570,-286,o),
(1453,-169,c),
(1451,-178,l),
(1569,-298,o),
(1732,-371,o),
(1914,-371,cs),
(2274,-371,o),
(2565,-81,o),
(2565,279,cs),
(2565,639,o),
(2274,952,o),
(1914,952,cs),
(1526,952,o),
(1257,581,o),
(927,130,cs),
(750,-113,o),
(513,-282,o),
(297,-282,cs),
(108,-282,o),
(8,-131,o),
(4,-36,cs),
(0,59,o),
(50,156,o),
(139,206,c),
(174,181,o),
(221,172,o),
(268,172,cs)
);
},
{
closed = 1;
nodes = (
(244,431,l),
(260,443,o),
(277,462,o),
(290,486,c),
(359,474,o),
(389,404,o),
(389,336,cs),
(389,301,o),
(381,265,o),
(363,237,c),
(335,246,o),
(304,251,o),
(270,251,cs),
(236,251,o),
(204,245,o),
(175,235,c),
(156,264,o),
(147,300,o),
(147,336,cs),
(147,411,o),
(177,469,o),
(244,484,cs),
(255,487,o),
(266,488,o),
(279,488,c),
(268,465,o),
(252,444,o),
(232,431,c)
);
},
{
closed = 1;
nodes = (
(209,234,o),
(238,239,o),
(270,239,cs),
(300,239,o),
(328,234,o),
(355,226,c),
(335,201,o),
(307,184,o),
(268,184,cs),
(230,184,o),
(202,200,o),
(182,225,c)
);
}
);
width = 521;
},
{
guides = (
{
angle = 90;
position = "{270, 0}";
}
);
layerId = "97E2145D-66CE-4726-B996-40A38D9C79F6";
shapes = (
{
closed = 1;
nodes = (
(319,156,o),
(371,162,o),
(415,179,c),
(442,164,o),
(465,144,o),
(483,121,c),
(493,122,l),
(476,146,o),
(453,167,o),
(427,184,c),
(481,209,o),
(518,254,o),
(518,329,cs),
(518,440,o),
(418,484,o),
(325,496,c),
(347,530,o),
(357,565,o),
(354,600,cs),
(349,656,o),
(316,679,o),
(275,679,cs),
(234,679,o),
(204,656,o),
(204,621,cs),
(204,594,o),
(222,564,o),
(274,564,cs),
(287,564,o),
(307,568,o),
(324,577,c),
(326,552,o),
(322,525,o),
(308,498,c),
(294,499,o),
(281,500,o),
(268,500,cs),
(169,500,o),
(26,468,o),
(26,327,cs),
(26,253,o),
(63,209,o),
(115,184,c),
(22,127,o),
(-33,22,o),
(-33,-86,cs),
(-33,-253,o),
(100,-406,o),
(301,-406,cs),
(551,-406,o),
(741,-149,o),
(970,154,cs),
(1294,583,o),
(1548,820,o),
(1914,820,cs),
(2267,820,o),
(2553,619,o),
(2553,263,cs),
(2553,-90,o),
(2267,-375,o),
(1914,-375,cs),
(1733,-375,o),
(1570,-301,o),
(1453,-182,c),
(1451,-194,l),
(1569,-314,o),
(1732,-387,o),
(1914,-387,cs),
(2274,-387,o),
(2565,-97,o),
(2565,263,cs),
(2565,623,o),
(2274,948,o),
(1914,948,cs),
(1519,948,o),
(1271,554,o),
(927,114,cs),
(754,-107,o),
(520,-260,o),
(308,-260,cs),
(112,-260,o),
(15,-129,o),
(15,-14,cs),
(15,59,o),
(55,135,o),
(128,178,c),
(170,161,o),
(220,156,o),
(266,156,cs)
);
},
{
closed = 1;
nodes = (
(261,426,l),
(277,440,o),
(292,454,o),
(304,468,c),
(327,439,o),
(337,383,o),
(337,328,cs),
(337,291,o),
(332,253,o),
(321,223,c),
(305,225,o),
(288,227,o),
(270,227,cs),
(250,227,o),
(231,225,o),
(213,222,c),
(203,251,o),
(198,289,o),
(198,328,cs),
(198,409,o),
(222,488,o),
(268,488,cs),
(278,488,o),
(287,484,o),
(295,477,c),
(284,460,o),
(269,443,o),
(250,426,c)
);
},
{
closed = 1;
nodes = (
(235,214,o),
(252,215,o),
(270,215,cs),
(286,215,o),
(301,214,o),
(316,212,c),
(304,186,o),
(288,168,o),
(266,168,cs),
(245,168,o),
(229,185,o),
(218,211,c)
);
}
);
width = 540;
}
);
},
{
color = (255, 153, 153, 255);
glyphname = h;
layers = (
{
layerId = "90448605-A80E-4A32-AE33-B790A1EB0DF1";
shapes = (
{
closed = 1;
nodes = (
(68,0,l),
(135,0,l),
(135,259,ls),
(135,364,o),
(197,467,o),
(287,467,cs),
(354,467,o),
(385,419,o),
(385,342,cs),
(385,101,ls),
(385,26,o),
(417,-9,o),
(470,-9,cs),
(512,-9,o),
(533,12,o),
(544,35,c),
(537,45,l),
(528,29,o),
(519,18,o),
(500,18,cs),
(465,18,o),
(455,53,o),
(455,109,cs),
(455,332,ls),
(455,433,o),
(414,497,o),
(315,497,cs),
(233,497,o),
(168,437,o),
(135,345,c),
(135,348,l),
(135,468,l),
(135,721,l),
(-9,692,l),
(-9,684,l),
(41,684,o),
(68,688,o),
(68,625,cs)
);
}
);
width = 539;
},
{
layerId = "97E2145D-66CE-4726-B996-40A38D9C79F6";
shapes = (
{
closed = 1;
nodes = (
(68,0,l),
(265,0,l),
(265,258,ls),
(265,358,o),
(301,447,o),
(348,447,cs),
(380,447,o),
(385,419,o),
(385,342,cs),
(385,184,ls),
(385,47,o),
(433,-9,o),
(528,-9,cs),
(589,-9,o),
(618,14,o),
(630,47,c),
(623,57,l),
(618,42,o),
(611,35,o),
(603,35,cs),
(590,35,o),
(587,63,o),
(587,109,cs),
(587,292,l),
(588,417,o),
(557,497,o),
(430,497,cs),
(298,497,o),
(271,376,o),
(262,348,c),
(253,348,l),
(259,468,l),
(259,721,l),
(-9,691,l),
(-9,680,l),
(47,680,o),
(68,686,o),
(68,634,cs)
);
}
);
width = 650;
}
);
unicode = 104;
},
{
color = (153, 255, 154, 255);
glyphname = h.4;
layers = (
{
layerId = "90448605-A80E-4A32-AE33-B790A1EB0DF1";
shapes = (
{
closed = 1;
nodes = (
(-9,692,l),
(-9,684,l),
(41,684,o),
(68,688,o),
(68,626,cs),
(68,0,l),
(135,0,l),
(135,259,ls),
(135,364,o),
(197,467,o),
(287,467,cs),
(354,467,o),
(385,419,o),
(385,342,cs),
(385,137,ls),
(385,-231,o),
(650,-414,o),
(973,-414,cs),
(1326,-414,o),
(1634,-161,o),
(1634,207,cs),
(1634,546,o),
(1361,821,o),
(1024,821,cs),
(866,821,o),
(722,761,o),
(614,663,c),
(620,655,l),
(727,751,o),
(869,809,o),
(1024,809,cs),
(1354,809,o),
(1622,539,o),
(1622,207,cs),
(1622,-146,o),
(1324,-399,o),
(984,-399,cs),
(703,-399,o),
(455,-229,o),
(455,109,cs),
(455,327,ls),
(455,428,o),
(424,497,o),
(325,497,cs),
(238,497,o),
(170,444,o),
(137,348,cs),
(136,345,o),
(135,343,o),
(135,348,cs),
(135,721,l)
);
}
);
width = 537;
},
{
layerId = "97E2145D-66CE-4726-B996-40A38D9C79F6";
shapes = (
{
closed = 1;
nodes = (
(-9,691,l),
(-9,682,l),
(47,682,o),
(68,686,o),
(68,634,cs),
(68,0,l),
(265,0,l),
(265,258,ls),
(265,358,o),
(301,447,o),
(348,447,cs),
(380,447,o),
(385,419,o),
(385,342,cs),
(385,173,l),
(387,-192,o),
(709,-413,o),
(1095,-413,cs),
(1438,-413,o),
(1715,-136,o),
(1715,207,cs),
(1715,546,o),
(1442,821,o),
(1105,821,cs),
(947,821,o),
(803,761,o),
(695,663,c),
(701,655,l),
(808,751,o),
(950,809,o),
(1105,809,cs),
(1435,809,o),
(1703,539,o),
(1703,207,cs),
(1703,-124,o),
(1435,-393,o),
(1105,-393,cs),
(834,-393,o),
(587,-228,o),
(587,138,cs),
(587,292,ls),
(587,417,o),
(557,497,o),
(430,497,cs),
(298,497,o),
(270,376,o),
(262,348,cs),
(259,341,o),
(254,337,o),
(254,348,cs),
(254,721,l)
);
}
);
width = 650;
}
);
},
{
color = (153, 255, 154, 255);
glyphname = h.6;
layers = (
{
layerId = "90448605-A80E-4A32-AE33-B790A1EB0DF1";
shapes = (
{
closed = 1;
nodes = (
(73,0,l),
(140,0,l),
(140,252,ls),
(140,357,o),
(202,467,o),
(292,467,cs),
(359,467,o),
(390,419,o),
(390,342,cs),
(390,101,ls),
(390,26,o),
(422,-9,o),
(475,-9,cs),
(517,-9,o),
(538,12,o),
(549,35,c),
(542,45,l),
(533,29,o),
(524,18,o),
(505,18,cs),
(470,18,o),
(460,53,o),
(460,109,cs),
(460,327,ls),
(460,428,o),
(429,497,o),
(330,497,cs),
(239,497,o),
(177,435,o),
(140,339,c),
(140,348,o),
(140,352,o),
(140,358,cs),
(140,617,ls),
(140,977,o),
(471,1231,o),
(803,1231,cs),
(1241,1231,o),
(1595,871,o),
(1595,421,cs),
(1595,-21,o),
(1245,-376,o),
(813,-376,cs),
(620,-376,o),
(443,-303,o),
(309,-183,c),
(300,-192,l),
(435,-314,o),
(615,-389,o),
(813,-389,cs),
(1253,-389,o),
(1607,-29,o),
(1607,421,cs),
(1607,878,o),
(1248,1243,o),
(800,1243,cs),
(404,1243,o),
(73,923,o),
(73,517,cs)
);
}
);
width = 543;
},
{
layerId = "97E2145D-66CE-4726-B996-40A38D9C79F6";
shapes = (
{
closed = 1;
nodes = (
(68,0,l),
(265,0,l),
(265,251,ls),
(265,351,o),
(301,447,o),
(348,447,cs),
(380,447,o),
(385,419,o),
(385,342,cs),
(385,184,ls),
(385,47,o),
(433,-9,o),
(528,-9,cs),
(589,-9,o),
(618,14,o),
(630,47,c),
(623,57,l),
(618,42,o),
(611,35,o),
(603,35,cs),
(590,35,o),
(587,63,o),
(587,109,cs),
(587,292,l),
(588,417,o),
(557,497,o),
(430,497,cs),
(293,497,o),
(271,373,o),
(262,342,c),
(258,334,o),
(254,339,o),
(254,348,cs),
(254,617,ls),
(254,977,o),
(500,1231,o),
(832,1231,cs),
(1270,1231,o),
(1624,871,o),
(1624,421,cs),
(1624,-21,o),
(1274,-376,o),
(842,-376,cs),
(649,-376,o),
(472,-303,o),
(338,-183,c),
(329,-192,l),
(464,-314,o),
(644,-389,o),
(842,-389,cs),
(1282,-389,o),
(1636,-29,o),
(1636,421,cs),
(1636,878,o),
(1277,1243,o),
(829,1243,cs),
(360,1243,o),
(68,923,o),
(68,517,cs)
);
}
);
width = 650;
}
);
},
{
color = (153, 255, 154, 255);
glyphname = h.6.more;
layers = (
{
layerId = "90448605-A80E-4A32-AE33-B790A1EB0DF1";
shapes = (
{
closed = 1;
nodes = (
(-653,-320,l),
(-551,-210,o),
(-401,-146,o),
(-233,-146,cs),
(146,-146,o),
(383,-388,o),
(813,-388,cs),
(1253,-388,o),
(1607,-29,o),
(1607,421,cs),
(1607,878,o),
(1248,1243,o),
(800,1243,cs),
(404,1243,o),
(73,923,o),
(73,517,cs),
(73,0,l),
(140,0,l),
(140,259,ls),
(140,364,o),
(202,467,o),
(292,467,cs),
(359,467,o),
(390,419,o),
(390,342,cs),
(390,101,ls),
(390,26,o),
(422,-9,o),
(475,-9,cs),
(517,-9,o),
(538,12,o),
(549,35,c),
(542,45,l),
(533,29,o),
(524,18,o),
(505,18,cs),
(470,18,o),
(460,53,o),
(460,109,cs),
(460,327,ls),
(460,428,o),
(429,497,o),
(330,497,cs),
(243,497,o),
(174,444,o),
(141,348,c),
(141,347,o),
(140,334,o),
(140,363,cs),
(140,617,ls),
(140,977,o),
(471,1231,o),
(803,1231,cs),
(1241,1231,o),
(1595,871,o),
(1595,421,cs),
(1595,-21,o),
(1245,-376,o),
(813,-376,cs),
(391,-376,o),
(149,-134,o),
(-233,-134,cs),
(-404,-134,o),
(-558,-200,o),
(-661,-314,c)
);
}
);
width = 543;
},
{
layerId = "97E2145D-66CE-4726-B996-40A38D9C79F6";
shapes = (
{
closed = 1;
nodes = (
(-653,-320,l),
(-551,-210,o),
(-401,-146,o),
(-233,-146,cs),
(146,-146,o),
(412,-388,o),
(842,-388,cs),
(1280,-388,o),
(1636,-28,o),
(1636,421,cs),
(1636,878,o),
(1277,1243,o),
(829,1243,cs),
(360,1243,o),
(68,923,o),
(68,517,cs),
(68,0,l),
(265,0,l),
(265,258,ls),
(265,358,o),
(301,447,o),
(348,447,cs),
(380,447,o),
(385,419,o),
(385,342,cs),
(385,184,ls),
(385,47,o),
(433,-9,o),
(528,-9,cs),
(589,-9,o),
(618,14,o),
(630,47,c),
(623,57,l),
(618,42,o),
(611,35,o),
(603,35,cs),
(590,35,o),
(587,63,o),
(587,109,cs),
(587,292,l),
(588,417,o),
(557,497,o),
(430,497,cs),
(298,497,o),
(270,376,o),
(262,348,c),
(264,353,o),
(254,324,o),
(254,331,cs),
(254,617,l),
(259,977,o),
(503,1231,o),
(832,1231,cs),
(1270,1231,o),
(1624,871,o),
(1624,421,cs),
(1624,-21,o),
(1274,-376,o),
(842,-376,cs),
(420,-376,o),
(149,-134,o),
(-233,-134,cs),
(-404,-134,o),
(-558,-200,o),
(-661,-314,c)
);
}
);
width = 650;
}
);
},
{
color = (153, 255, 154, 255);
glyphname = h.44;
layers = (
{
layerId = "90448605-A80E-4A32-AE33-B790A1EB0DF1";
shapes = (
{
closed = 1;
nodes = (
(-2050,454,l),
(-1913,733,o),
(-1626,927,o),
(-1297,927,cs),
(-368,927,o),
(-137,-388,o),
(813,-388,cs),
(1253,-388,o),
(1607,-29,o),
(1607,421,cs),
(1607,878,o),
(1248,1243,o),
(800,1243,cs),
(404,1243,o),
(73,923,o),
(73,517,cs),
(73,0,l),
(140,0,l),
(140,259,ls),
(140,364,o),
(202,467,o),
(292,467,cs),
(359,467,o),
(390,419,o),
(390,342,cs),
(390,101,ls),
(390,26,o),
(422,-9,o),
(475,-9,cs),
(517,-9,o),
(538,12,o),
(549,35,c),
(542,45,l),
(533,29,o),
(524,18,o),
(505,18,cs),
(470,18,o),
(460,53,o),
(460,109,cs),
(460,327,ls),
(460,428,o),
(429,497,o),
(330,497,cs),
(243,497,o),
(176,444,o),
(141,348,c),
(137,340,o),
(140,390,o),
(140,419,cs),
(140,617,ls),
(140,977,o),
(471,1231,o),
(803,1231,cs),
(1241,1231,o),
(1595,871,o),
(1595,421,cs),
(1595,-21,o),
(1245,-376,o),
(813,-376,cs),
(-138,-376,o),
(-355,939,o),
(-1297,939,cs),
(-1628,939,o),
(-1918,742,o),
(-2056,460,c)
);
}
);
width = 543;
},
{
layerId = "97E2145D-66CE-4726-B996-40A38D9C79F6";
shapes = (
{
closed = 1;
nodes = (
(-2034,453,l),
(-1897,732,o),
(-1610,926,o),
(-1281,926,cs),
(-352,926,o),
(-121,-389,o),
(829,-389,cs),
(1287,-389,o),
(1636,-19,o),
(1636,421,cs),
(1636,878,o),
(1277,1243,o),
(829,1243,cs),
(367,1243,o),
(77,933,o),
(68,536,c),
(68,0,l),
(265,0,l),
(265,258,ls),
(265,358,o),
(301,447,o),
(348,447,cs),
(380,447,o),
(385,419,o),
(385,342,cs),
(385,184,ls),
(385,47,o),
(433,-9,o),
(528,-9,cs),
(589,-9,o),
(618,14,o),
(630,47,c),
(623,57,l),
(618,42,o),
(611,35,o),
(603,35,cs),
(590,35,o),
(587,63,o),
(587,109,cs),
(587,292,l),
(588,417,o),
(557,497,o),
(430,497,cs),
(298,497,o),
(271,376,o),
(262,348,c),
(259,341,o),
(254,341,o),
(254,348,cs),
(254,619,ls),
(254,979,o),
(503,1231,o),
(832,1231,cs),
(1270,1231,o),
(1624,871,o),
(1624,421,cs),
(1624,-32,o),
(1266,-377,o),
(829,-377,cs),
(-122,-377,o),
(-339,938,o),
(-1281,938,cs),
(-1612,938,o),
(-1902,741,o),
(-2040,459,c)
);
}
);
width = 650;
}
);
},
{
color = (153, 255, 154, 255);
glyphname = h.6.more.acc;
layers = (
{
layerId = "90448605-A80E-4A32-AE33-B790A1EB0DF1";
shapes = (
{
closed = 1;
nodes = (
(-650,-320,l),
(-549,-211,o),
(-400,-148,o),
(-233,-148,cs),
(146,-148,o),
(383,-416,o),
(813,-416,cs),
(1253,-416,o),
(1607,-29,o),
(1607,421,cs),
(1607,878,o),
(1248,1243,o),
(800,1243,cs),
(404,1243,o),
(73,923,o),
(73,517,cs),
(73,0,l),
(140,0,l),
(140,259,ls),
(140,364,o),
(202,467,o),
(292,467,cs),
(359,467,o),
(390,419,o),
(390,342,cs),
(390,101,ls),
(390,26,o),
(422,-9,o),
(475,-9,cs),
(517,-9,o),
(538,12,o),
(549,35,c),
(542,45,l),
(533,29,o),
(524,18,o),
(505,18,cs),
(470,18,o),
(460,53,o),
(460,109,cs),
(460,327,ls),
(460,428,o),
(429,497,o),
(330,497,cs),
(243,497,o),
(176,444,o),
(141,348,cs),
(137,336,o),
(140,393,o),
(140,422,cs),
(140,617,ls),
(140,977,o),
(471,1231,o),
(803,1231,cs),
(1241,1231,o),
(1595,871,o),
(1595,421,cs),
(1595,-24,o),
(1245,-346,o),
(813,-346,cs),
(391,-346,o),
(149,-136,o),
(-233,-136,cs),
(-404,-136,o),
(-558,-201,o),
(-661,-314,c)
);
}
);
width = 543;
},
{
layerId = "97E2145D-66CE-4726-B996-40A38D9C79F6";
shapes = (
{
closed = 1;
nodes = (
(-650,-320,l),
(-549,-211,o),
(-400,-148,o),
(-233,-148,cs),
(146,-148,o),
(412,-466,o),
(842,-466,cs),
(1280,-466,o),
(1636,-28,o),
(1636,421,cs),
(1636,878,o),
(1277,1243,o),
(829,1243,cs),
(360,1243,o),
(68,923,o),
(68,517,cs),
(68,0,l),
(265,0,l),
(265,258,ls),
(265,358,o),
(301,447,o),
(348,447,cs),
(380,447,o),
(385,419,o),
(385,342,cs),
(385,184,ls),
(385,47,o),
(433,-9,o),
(528,-9,cs),
(589,-9,o),
(618,14,o),
(630,47,c),
(623,57,l),
(618,42,o),
(611,35,o),
(603,35,cs),
(590,35,o),
(587,63,o),
(587,109,cs),
(587,292,l),
(588,417,o),
(557,497,o),
(430,497,cs),
(298,497,o),
(271,376,o),
(262,348,cs),
(260,341,o),
(254,344,o),
(254,351,cs),
(254,617,l),
(259,977,o),
(503,1231,o),
(832,1231,cs),
(1270,1231,o),
(1624,871,o),
(1624,421,cs),
(1624,-24,o),
(1274,-306,o),
(842,-306,cs),
(420,-306,o),
(149,-136,o),
(-233,-136,cs),
(-404,-136,o),
(-558,-201,o),
(-661,-314,c)
);
}
);
width = 650;
}
);
},
{
color = (153, 255, 154, 255);
glyphname = h.44.acc;
layers = (
{
layerId = "90448605-A80E-4A32-AE33-B790A1EB0DF1";
shapes = (
{
closed = 1;
nodes = (
(-2054,453,l),
(-1918,733,o),
(-1632,927,o),
(-1305,927,cs),
(-815,927,o),
(-520,564,o),
(-208,216,cs),
(81,-107,o),
(375,-418,o),
(805,-418,cs),
(1245,-418,o),
(1599,-29,o),
(1599,421,cs),
(1599,878,o),
(1240,1243,o),
(792,1243,cs),
(396,1243,o),
(65,923,o),
(65,517,cs),
(65,0,l),
(132,0,l),
(132,259,ls),
(132,364,o),
(194,467,o),
(284,467,cs),
(351,467,o),
(382,419,o),
(382,342,cs),
(382,101,ls),
(382,26,o),
(414,-9,o),
(467,-9,cs),
(509,-9,o),
(530,12,o),
(541,35,c),
(534,45,l),
(525,29,o),
(516,18,o),
(497,18,cs),
(462,18,o),
(452,53,o),
(452,109,cs),
(452,327,ls),
(452,428,o),
(421,497,o),
(322,497,cs),
(235,497,o),
(163,444,o),
(133,348,c),
(127,332,o),
(132,393,o),
(132,422,cs),
(132,617,ls),
(132,977,o),
(463,1231,o),
(795,1231,cs),
(1233,1231,o),
(1587,871,o),
(1587,421,cs),
(1587,-24,o),
(1237,-348,o),
(805,-348,cs),
(352,-348,o),
(68,-71,o),
(-201,227,cs),
(-511,570,o),
(-801,939,o),
(-1305,939,cs),
(-1636,939,o),
(-1926,742,o),
(-2064,460,c)
);
}
);
width = 535;
},
{
layerId = "97E2145D-66CE-4726-B996-40A38D9C79F6";
shapes = (
{
closed = 1;
nodes = (
(-2030,452,l),
(-1894,732,o),
(-1608,926,o),
(-1281,926,cs),
(-859,926,o),
(-563,637,o),
(-298,308,cs),
(27,-97,o),
(347,-488,o),
(829,-488,cs),
(1287,-488,o),
(1636,-19,o),
(1636,421,cs),
(1636,878,o),
(1277,1243,o),
(829,1243,cs),
(367,1243,o),
(77,933,o),
(68,536,c),
(68,0,l),
(265,0,l),
(265,258,ls),
(265,358,o),
(301,447,o),
(348,447,cs),
(380,447,o),
(385,419,o),
(385,342,cs),
(385,184,ls),
(385,47,o),
(433,-9,o),
(528,-9,cs),
(589,-9,o),
(618,14,o),
(630,47,c),
(623,57,l),
(618,42,o),
(611,35,o),
(603,35,cs),
(590,35,o),
(587,63,o),
(587,109,cs),
(587,292,l),
(588,417,o),
(557,497,o),
(430,497,cs),
(298,497,o),
(267,376,o),
(262,348,c),
(258,336,o),
(254,344,o),
(254,351,cs),
(254,619,ls),
(254,979,o),
(503,1231,o),
(832,1231,cs),
(1270,1231,o),
(1624,871,o),
(1624,421,cs),
(1624,-35,o),
(1266,-328,o),
(829,-328,cs),
(297,-328,o),
(11,-58,o),
(-292,318,cs),
(-554,643,o),
(-843,938,o),
(-1281,938,cs),
(-1612,938,o),
(-1902,741,o),
(-2040,459,c)
);
}
);
width = 650;
}
);
},
{
color = (153, 255, 154, 255);
glyphname = h.9;
layers = (
{
layerId = "90448605-A80E-4A32-AE33-B790A1EB0DF1";
shapes = (
{
closed = 1;
nodes = (
(68,0,l),
(135,0,l),
(135,259,ls),
(135,364,o),
(197,467,o),
(287,467,cs),
(354,467,o),
(385,419,o),
(385,342,cs),
(385,187,ls),
(385,10,o),
(479,-125,o),
(671,-125,cs),
(860,-125,o),
(957,5,o),
(957,139,cs),
(957,193,o),
(927,242,o),
(874,242,cs),
(836,242,o),
(810,216,o),
(810,185,cs),
(810,155,o),
(834,128,o),
(871,128,cs),
(900,128,o),
(924,145,o),
(933,166,c),
(938,150,o),
(940,136,o),
(940,118,cs),
(940,1,o),
(841,-93,o),
(699,-93,cs),
(576,-93,o),
(455,-22,o),
(455,187,cs),
(455,327,ls),
(455,428,o),
(424,497,o),
(325,497,cs),
(238,497,o),
(168,444,o),
(136,348,cs),
(131,332,o),
(135,386,o),
(135,415,cs),
(135,721,l),
(-9,692,l),
(-9,684,l),
(41,684,o),
(68,688,o),
(68,625,cs)
);
}
);
width = 952;
},
{
layerId = "97E2145D-66CE-4726-B996-40A38D9C79F6";
shapes = (
{
closed = 1;
nodes = (
(68,0,l),
(265,0,l),
(265,258,ls),
(265,358,o),
(301,447,o),
(348,447,cs),
(377,447,o),
(389,419,o),
(389,342,cs),
(389,180,ls),
(389,-23,o),
(530,-150,o),
(731,-150,cs),
(936,-150,o),
(1053,-12,o),
(1053,126,cs),
(1053,218,o),
(1001,303,o),
(911,303,cs),
(846,303,o),
(802,258,o),
(802,205,cs),
(802,154,o),
(843,107,o),
(906,107,cs),
(955,107,o),
(996,136,o),
(1012,173,c),
(1020,146,o),
(1024,122,o),
(1024,96,cs),
(1024,-23,o),
(930,-109,o),
(803,-109,cs),
(691,-109,o),
(587,-46,o),
(587,162,cs),
(587,292,l),
(588,417,o),
(557,497,o),
(430,497,cs),
(298,497,o),
(270,376,o),
(262,348,cs),
(258,336,o),
(254,341,o),
(254,348,cs),
(254,721,l),
(-9,691,l),
(-9,680,l),
(47,680,o),
(68,686,o),
(68,634,cs)
);
}
);
width = 1095;
}
);
},
{
color = (255, 153, 153, 255);
glyphname = i;
layers = (
{
anchors = (
{
name = top;
position = "{111, 577}";
}
);
background = {
shapes = (
{
closed = 0;
nodes = (
(152,-9,ls),
(188,-9,o),
(221,5,o),
(233,30,c),
(229,36,l),
(220,22,o),
(208,15,o),
(190,15,cs)
);
}
);
};
layerId = "90448605-A80E-4A32-AE33-B790A1EB0DF1";
shapes = (
{
closed = 1;
nodes = (
(230,39,l),
(220,25,o),
(211,18,o),
(192,18,cs),
(150,18,o),
(148,53,o),
(148,168,cs),
(148,497,l),
(111,484,o),
(61,481,o),
(3,481,c),
(3,470,l),
(59,470,o),
(80,465,o),
(80,413,cs),
(80,113,ls),
(80,29,o),
(106,-9,o),
(163,-9,cs),
(200,-9,o),
(226,10,o),
(236,30,c)
);
},
{
closed = 1;
nodes = (
(48,612,o),
(74,589,o),
(107,589,cs),
(140,589,o),
(166,612,o),
(166,642,cs),
(166,672,o),
(140,695,o),
(107,695,cs),
(74,695,o),
(48,672,o),
(48,642,cs)
);
}
);
width = 235;
},
{
anchors = (
{
name = top;
position = "{160, 577}";
}
);
layerId = "97E2145D-66CE-4726-B996-40A38D9C79F6";
shapes = (
{
closed = 1;
nodes = (
(312,43,l),
(309,38,o),
(301,30,o),
(289,30,cs),
(259,30,o),
(259,74,o),
(259,185,cs),
(259,497,l),
(186,484,o),
(94,481,o),
(-11,481,c),
(-11,470,l),
(45,470,o),
(66,465,o),
(66,413,cs),
(66,157,ls),
(66,43,o),
(107,-6,o),
(200,-6,cs),
(256,-6,o),
(304,12,o),
(320,33,c)
);
},
{
closed = 1;
nodes = (
(54,587,o),
(102,544,o),
(164,544,cs),
(226,544,o),
(274,587,o),
(274,642,cs),
(274,697,o),
(226,740,o),
(164,740,cs),
(102,740,o),
(54,697,o),
(54,642,cs)
);
}
);
width = 323;
}
);
unicode = 105;
},
{
color = (153, 255, 154, 255);
glyphname = i.1;
layers = (
{
layerId = "90448605-A80E-4A32-AE33-B790A1EB0DF1";
shapes = (
{
closed = 1;
nodes = (
(80,113,ls),
(80,29,o),
(106,-9,o),
(163,-9,cs),
(200,-9,o),
(226,10,o),
(236,30,c),
(230,39,l),
(220,25,o),
(211,18,o),
(192,18,cs),
(150,18,o),
(148,53,o),
(148,168,cs),
(148,509,ls),
(148,559,o),
(168,607,o),
(145,662,cs),
(136,682,o),
(115,695,o),
(90,695,cs),
(57,695,o),
(31,672,o),
(31,642,cs),
(31,612,o),
(57,589,o),
(90,589,cs),
(117,589,o),
(139,605,o),
(146,628,c),
(153,559,o),
(119,480,o),
(3,480,c),
(3,470,l),
(59,470,o),
(80,465,o),
(80,413,cs)
);
}
);
width = 235;
},
{
layerId = "97E2145D-66CE-4726-B996-40A38D9C79F6";
shapes = (
{
closed = 1;
nodes = (
(66,157,ls),
(66,43,o),
(107,-6,o),
(200,-6,cs),
(256,-6,o),
(304,12,o),
(320,33,c),
(312,43,l),
(309,38,o),
(301,30,o),
(289,30,cs),
(259,30,o),
(259,74,o),
(259,185,cs),
(260,495,ls),
(260,544,o),
(278,592,o),
(278,642,cs),
(278,697,o),
(230,740,o),
(168,740,cs),
(106,740,o),
(58,697,o),
(58,642,cs),
(58,587,o),
(106,544,o),
(168,544,cs),
(206,544,o),
(240,560,o),
(261,586,c),
(239,466,o),
(62,481,o),
(-11,481,c),
(-11,470,l),
(45,470,o),
(66,465,o),
(66,413,cs)
);
}
);
width = 325;
}
);
},
{
color = (153, 255, 154, 255);
glyphname = i.7;
layers = (
{
layerId = "90448605-A80E-4A32-AE33-B790A1EB0DF1";
shapes = (
{
closed = 1;
nodes = (
(148,459,l),
(199,424,o),
(264,402,o),
(331,401,cs),
(511,401,o),
(611,543,o),
(611,682,cs),
(611,818,o),
(521,950,o),
(329,950,cs),
(-190,950,o),
(-581,-229,o),
(-1295,-229,cs),
(-1683,-229,o),
(-1899,61,o),
(-1899,372,cs),
(-1899,682,o),
(-1688,1001,o),
(-1266,1001,cs),
(-1138,1001,o),
(-1046,970,o),
(-981,930,c),
(-978,940,l),
(-1044,982,o),
(-1137,1013,o),
(-1266,1013,cs),
(-1696,1013,o),
(-1911,687,o),
(-1911,372,cs),
(-1911,54,o),
(-1691,-241,o),
(-1295,-241,cs),
(-571,-241,o),
(-183,938,o),
(329,938,cs),
(516,938,o),
(603,811,o),
(603,682,cs),
(603,547,o),
(506,411,o),
(331,411,cs),
(264,412,o),
(199,431,o),
(148,471,c),
(148,497,l),
(141,494,o),
(133,492,o),
(125,490,c),
(98,518,o),
(77,555,o),
(65,601,c),
(75,592,o),
(88,589,o),
(102,589,cs),
(135,589,o),
(161,612,o),
(161,642,cs),
(161,672,o),
(135,695,o),
(102,695,cs),
(63,695,o),
(42,665,o),
(42,629,cs),
(42,577,o),
(69,527,o),
(112,487,c),
(81,482,o),
(43,481,o),
(3,481,c),
(3,470,l),
(59,470,o),
(80,465,o),
(80,413,cs),
(80,113,ls),
(80,29,o),
(106,-9,o),
(163,-9,cs),
(200,-9,o),
(226,10,o),
(236,30,c),
(230,39,l),
(220,25,o),
(211,18,o),
(192,18,cs),
(150,18,o),
(148,53,o),
(148,168,cs)
);
}
);
width = 231;
},
{
layerId = "97E2145D-66CE-4726-B996-40A38D9C79F6";
shapes = (
{
closed = 1;
nodes = (
(259,408,l),
(282,404,o),
(306,401,o),
(331,401,cs),
(511,401,o),
(611,543,o),
(611,682,cs),
(611,818,o),
(521,950,o),
(329,950,cs),
(-190,950,o),
(-581,-229,o),
(-1295,-229,cs),
(-1683,-229,o),
(-1899,61,o),
(-1899,372,cs),
(-1899,682,o),
(-1688,1001,o),
(-1266,1001,cs),
(-1138,1001,o),
(-1046,970,o),
(-981,930,c),
(-978,940,l),
(-1044,982,o),
(-1137,1013,o),
(-1266,1013,cs),
(-1696,1013,o),
(-1911,687,o),
(-1911,372,cs),
(-1911,54,o),
(-1691,-241,o),
(-1295,-241,cs),
(-571,-241,o),
(-183,938,o),
(329,938,cs),
(516,938,o),
(603,811,o),
(603,682,cs),
(603,547,o),
(506,411,o),
(331,411,cs),
(308,411,o),
(283,414,o),
(259,420,c),
(259,497,l),
(223,491,o),
(182,486,o),
(139,483,c),
(106,512,o),
(82,549,o),
(75,593,c),
(93,568,o),
(131,546,o),
(169,546,cs),
(229,546,o),
(275,592,o),
(275,644,cs),
(275,699,o),
(233,740,o),
(169,740,cs),
(87,740,o),
(48,678,o),
(48,611,cs),
(48,560,o),
(69,516,o),
(104,481,c),
(69,480,o),
(29,481,o),
(-11,481,c),
(-11,470,l),
(45,470,o),
(66,465,o),
(66,413,cs),
(66,157,ls),
(66,43,o),
(107,-6,o),
(200,-6,cs),
(256,-6,o),
(304,12,o),
(320,33,c),
(312,43,l),
(309,38,o),
(301,30,o),
(289,30,cs),
(259,30,o),
(259,74,o),
(259,185,cs)
);
}
);
width = 325;
}
);
},
{
color = (153, 255, 154, 255);
glyphname = i.7.acc;
layers = (
{
layerId = "90448605-A80E-4A32-AE33-B790A1EB0DF1";
shapes = (
{
closed = 1;
nodes = (
(148,459,l),
(199,424,o),
(264,402,o),
(331,401,cs),
(510,401,o),
(609,543,o),
(609,682,cs),
(609,832,o),
(520,978,o),
(329,978,cs),
(-222,978,o),
(-579,-211,o),
(-1295,-211,cs),
(-1683,-211,o),
(-1899,79,o),
(-1899,372,cs),
(-1899,681,o),
(-1688,999,o),
(-1266,999,cs),
(-1138,999,o),
(-1046,968,o),
(-981,928,c),
(-978,940,l),
(-1044,981,o),
(-1137,1011,o),
(-1266,1011,cs),
(-1696,1011,o),
(-1911,686,o),
(-1911,372,cs),
(-1911,33,o),
(-1691,-281,o),
(-1295,-281,cs),
(-571,-281,o),
(-278,942,o),
(329,942,cs),
(515,942,o),
(601,813,o),
(601,682,cs),
(601,546,o),
(505,409,o),
(331,409,cs),
(264,410,o),
(199,430,o),
(148,471,c),
(148,497,l),
(141,494,o),
(133,492,o),
(125,490,c),
(98,518,o),
(77,555,o),
(65,601,c),
(75,592,o),
(88,589,o),
(102,589,cs),
(135,589,o),
(161,612,o),
(161,642,cs),
(161,672,o),
(135,695,o),
(102,695,cs),
(63,695,o),
(42,665,o),
(42,629,cs),
(42,577,o),
(69,527,o),
(112,487,c),
(81,482,o),
(43,481,o),
(3,481,c),
(3,470,l),
(59,470,o),
(80,465,o),
(80,413,cs),
(80,113,ls),
(80,29,o),
(106,-9,o),
(163,-9,cs),
(200,-9,o),
(226,10,o),
(236,30,c),
(230,39,l),
(220,25,o),
(211,18,o),
(192,18,cs),
(150,18,o),
(148,53,o),
(148,168,cs)
);
}
);
width = 231;
},
{
layerId = "97E2145D-66CE-4726-B996-40A38D9C79F6";
shapes = (
{
closed = 1;
nodes = (
(259,408,l),
(282,404,o),
(306,401,o),
(331,401,cs),
(510,401,o),
(604,542,o),
(614,681,cs),
(626,849,o),
(499,988,o),
(302,988,cs),
(-185,988,o),
(-583,-160,o),
(-1295,-160,cs),
(-1683,-160,o),
(-1899,103,o),
(-1899,372,cs),
(-1899,681,o),
(-1688,999,o),
(-1266,999,cs),
(-1138,999,o),
(-1046,968,o),
(-981,928,c),
(-978,940,l),
(-1044,981,o),
(-1137,1011,o),
(-1266,1011,cs),
(-1696,1011,o),
(-1911,686,o),
(-1911,372,cs),
(-1911,24,o),
(-1691,-291,o),
(-1295,-291,cs),
(-622,-291,o),
(-262,942,o),
(312,942,cs),
(498,942,o),
(601,813,o),
(601,682,cs),
(601,546,o),
(505,409,o),
(331,409,cs),
(308,409,o),
(283,413,o),
(259,420,c),
(259,497,l),
(223,491,o),
(182,486,o),
(139,483,c),
(106,512,o),
(82,549,o),
(75,593,c),
(93,568,o),
(131,546,o),
(169,546,cs),
(229,546,o),
(275,592,o),
(275,644,cs),
(275,699,o),
(233,740,o),
(169,740,cs),
(87,740,o),
(48,678,o),
(48,611,cs),
(48,560,o),
(69,516,o),
(104,481,c),
(69,480,o),
(29,481,o),
(-11,481,c),
(-11,470,l),
(45,470,o),
(66,465,o),
(66,413,cs),
(66,157,ls),
(66,43,o),
(107,-6,o),
(200,-6,cs),
(256,-6,o),
(304,12,o),
(320,33,c),
(312,43,l),
(309,38,o),
(301,30,o),
(289,30,cs),
(259,30,o),
(259,74,o),
(259,185,cs)
);
}
);
width = 325;
}
);
},
{
color = (153, 255, 154, 255);
glyphname = i.9;
layers = (
{
layerId = "90448605-A80E-4A32-AE33-B790A1EB0DF1";
shapes = (
{
closed = 1;
nodes = (
(79,187,ls),
(79,10,o),
(173,-125,o),
(365,-125,cs),
(554,-125,o),
(651,5,o),
(651,139,cs),
(651,193,o),
(621,242,o),
(568,242,cs),
(530,242,o),
(504,216,o),
(504,185,cs),
(504,155,o),
(528,128,o),
(565,128,cs),
(594,128,o),
(618,145,o),
(627,166,c),
(632,150,o),
(634,136,o),
(634,118,cs),
(634,1,o),
(535,-93,o),
(393,-93,cs),
(270,-93,o),
(150,-22,o),
(149,187,cs),
(147,500,l),
(110,487,o),
(60,484,o),
(2,484,c),
(2,473,l),
(58,473,o),
(79,468,o),
(79,416,cs)
);
},
{
closed = 1;
nodes = (
(48,612,o),
(74,589,o),
(107,589,cs),
(140,589,o),
(166,612,o),
(166,642,cs),
(166,672,o),
(140,695,o),
(107,695,cs),
(74,695,o),
(48,672,o),
(48,642,cs)
);
}
);
width = 681;
},
{
layerId = "97E2145D-66CE-4726-B996-40A38D9C79F6";
shapes = (
{
closed = 1;
nodes = (
(66,178,ls),
(66,-25,o),
(205,-152,o),
(403,-152,cs),
(608,-152,o),
(725,-14,o),
(725,124,cs),
(725,216,o),
(673,301,o),
(583,301,cs),
(518,301,o),
(474,256,o),
(474,203,cs),
(474,152,o),
(515,105,o),
(578,105,cs),
(627,105,o),
(668,134,o),
(684,171,c),
(692,144,o),
(696,120,o),
(696,94,cs),
(696,-25,o),
(602,-111,o),
(475,-111,cs),
(363,-111,o),
(259,-48,o),
(259,160,cs),
(259,497,l),
(186,484,o),
(94,481,o),
(-11,481,c),
(-11,470,l),
(45,470,o),
(66,465,o),
(66,413,cs)
);
},
{
closed = 1;
nodes = (
(54,587,o),
(102,544,o),
(164,544,cs),
(226,544,o),
(274,587,o),
(274,642,cs),
(274,697,o),
(226,740,o),
(164,740,cs),
(102,740,o),
(54,697,o),
(54,642,cs)
);
}
);
width = 767;
}
);
},
{
color = (255, 153, 153, 255);
glyphname = j;
layers = (
{
layerId = "90448605-A80E-4A32-AE33-B790A1EB0DF1";
shapes = (
{
closed = 1;
nodes = (
(5,470,l),
(61,470,o),
(82,465,o),
(82,413,cs),
(82,-189,ls),
(82,-227,o),
(42,-277,o),
(-6,-277,cs),
(-27,-277,o),
(-39,-269,o),
(-42,-257,c),
(-22,-248,o),
(-7,-226,o),
(-7,-202,cs),
(-7,-178,o),
(-22,-153,o),
(-54,-153,cs),
(-85,-153,o),
(-102,-176,o),
(-102,-208,cs),
(-102,-258,o),
(-59,-288,o),
(10,-288,cs),
(125,-288,o),
(150,-196,o),
(150,-95,cs),
(150,497,l),
(113,484,o),
(63,481,o),
(5,481,c)
);
},
{
closed = 1;
nodes = (
(50,612,o),
(76,589,o),
(109,589,cs),
(142,589,o),
(168,612,o),
(168,642,cs),
(168,672,o),
(142,695,o),
(109,695,cs),
(76,695,o),
(50,672,o),
(50,642,cs)
);
}
);
width = 231;
},
{
layerId = "97E2145D-66CE-4726-B996-40A38D9C79F6";
shapes = (
{
closed = 1;
nodes = (
(-11,470,l),
(45,470,o),
(66,465,o),
(66,413,cs),
(66,-185,ls),
(66,-209,o),
(47,-277,o),
(-7,-277,cs),
(-29,-277,o),
(-38,-267,o),
(-41,-262,c),
(-8,-247,o),
(8,-211,o),
(8,-177,cs),
(8,-133,o),
(-18,-91,o),
(-71,-91,cs),
(-120,-91,o),
(-148,-128,o),
(-148,-177,cs),
(-148,-235,o),
(-109,-290,o),
(25,-290,cs),
(199,-290,o),
(263,-192,o),
(263,-58,cs),
(263,497,l),
(190,484,o),
(94,481,o),
(-11,481,c)
);
},
{
closed = 1;
nodes = (
(54,587,o),
(102,544,o),
(164,544,cs),
(226,544,o),
(274,587,o),
(274,642,cs),
(274,697,o),
(226,740,o),
(164,740,cs),
(102,740,o),
(54,697,o),
(54,642,cs)
);
}
);
width = 322;
}
);
unicode = 106;
},
{
color = (153, 255, 154, 255);
glyphname = j.4;
layers = (
{
layerId = "90448605-A80E-4A32-AE33-B790A1EB0DF1";
shapes = (
{
closed = 1;
nodes = (
(3,470,l),
(59,470,o),
(80,465,o),
(80,413,cs),
(80,138,ls),
(80,-230,o),
(-183,-395,o),
(-459,-395,cs),
(-789,-395,o),
(-1057,-125,o),
(-1057,207,cs),
(-1057,536,o),
(-789,805,o),
(-459,805,cs),
(-305,805,o),
(-164,746,o),
(-58,651,c),
(-49,659,l),
(-157,757,o),
(-301,817,o),
(-459,817,cs),
(-796,817,o),
(-1069,544,o),
(-1069,207,cs),
(-1069,-136,o),
(-792,-413,o),
(-449,-413,cs),
(-131,-413,o),
(148,-192,o),
(148,173,cs),
(148,497,l),
(111,484,o),
(61,481,o),
(3,481,c)
);
},
{
closed = 1;
nodes = (
(48,612,o),
(74,589,o),
(107,589,cs),
(140,589,o),
(166,612,o),
(166,642,cs),
(166,672,o),
(140,695,o),
(107,695,cs),
(74,695,o),
(48,672,o),
(48,642,cs)
);
}
);
width = 231;
},
{
layerId = "97E2145D-66CE-4726-B996-40A38D9C79F6";
shapes = (
{
closed = 1;
nodes = (
(-7,470,l),
(49,470,o),
(70,465,o),
(70,413,cs),
(70,138,ls),
(70,-230,o),
(-177,-395,o),
(-448,-395,cs),
(-778,-395,o),
(-1046,-125,o),
(-1046,207,cs),
(-1046,536,o),
(-778,805,o),
(-448,805,cs),
(-294,805,o),
(-153,746,o),
(-47,651,c),
(-38,659,l),
(-146,757,o),
(-290,817,o),
(-448,817,cs),
(-785,817,o),
(-1058,544,o),
(-1058,207,cs),
(-1058,-136,o),
(-781,-413,o),
(-438,-413,cs),
(-55,-413,o),
(267,-192,o),
(267,173,cs),
(267,497,l),
(194,484,o),
(98,481,o),
(-7,481,c)
);
},
{
closed = 1;
nodes = (
(58,587,o),
(106,544,o),
(168,544,cs),
(230,544,o),
(278,587,o),
(278,642,cs),
(278,697,o),
(230,740,o),
(168,740,cs),
(106,740,o),
(58,697,o),
(58,642,cs)
);
}
);
width = 323;
}
);
},
{
color = (153, 255, 154, 255);
glyphname = j.7;
layers = (
{
layerId = "90448605-A80E-4A32-AE33-B790A1EB0DF1";
shapes = (
{
closed = 1;
nodes = (
(-974,940,l),
(-1040,981,o),
(-1133,1011,o),
(-1262,1011,cs),
(-1692,1011,o),
(-1907,686,o),
(-1907,372,cs),
(-1907,54,o),
(-1687,-241,o),
(-1291,-241,cs),
(-567,-241,o),
(-181,936,o),
(333,936,cs),
(519,936,o),
(605,810,o),
(605,682,cs),
(605,546,o),
(509,409,o),
(335,409,c),
(266,410,o),
(197,431,o),
(146,475,c),
(146,497,l),
(141,495,o),
(134,492,o),
(128,492,c),
(100,520,o),
(81,557,o),
(69,601,c),
(79,592,o),
(92,589,o),
(106,589,cs),
(139,589,o),
(165,612,o),
(165,642,cs),
(165,672,o),
(139,695,o),
(106,695,cs),
(67,695,o),
(46,665,o),
(46,629,cs),
(46,577,o),
(72,528,o),
(114,489,c),
(82,482,o),
(44,481,o),
(1,481,c),
(1,470,l),
(57,470,o),
(78,465,o),
(78,413,cs),
(78,-189,ls),
(78,-227,o),
(39,-277,o),
(-10,-277,cs),
(-30,-277,o),
(-43,-269,o),
(-46,-257,c),
(-26,-248,o),
(-11,-226,o),
(-11,-202,cs),
(-11,-178,o),
(-26,-153,o),
(-58,-153,cs),
(-89,-153,o),
(-106,-176,o),
(-106,-208,cs),
(-106,-258,o),
(-63,-288,o),
(6,-288,cs),
(121,-288,o),
(146,-196,o),
(146,-95,cs),
(146,462,l),
(198,426,o),
(267,402,o),
(335,401,c),
(517,401,o),
(617,543,o),
(617,682,cs),
(617,817,o),
(527,948,o),
(333,948,cs),
(-186,948,o),
(-575,-229,o),
(-1291,-229,cs),
(-1679,-229,o),
(-1895,61,o),
(-1895,372,cs),
(-1895,681,o),
(-1684,999,o),
(-1262,999,cs),
(-1134,999,o),
(-1043,968,o),
(-978,928,c)
);
}
);
width = 231;
},
{
layerId = "97E2145D-66CE-4726-B996-40A38D9C79F6";
shapes = (
{
closed = 1;
nodes = (
(-978,940,l),
(-1044,981,o),
(-1137,1011,o),
(-1266,1011,cs),
(-1696,1011,o),
(-1911,686,o),
(-1911,372,cs),
(-1911,54,o),
(-1691,-241,o),
(-1295,-241,cs),
(-571,-241,o),
(-185,936,o),
(329,936,cs),
(515,936,o),
(601,810,o),
(601,682,cs),
(601,546,o),
(505,409,o),
(331,409,cs),
(308,409,o),
(284,413,o),
(261,420,c),
(261,497,l),
(225,490,o),
(183,486,o),
(139,484,c),
(105,513,o),
(82,550,o),
(75,593,c),
(93,568,o),
(131,546,o),
(169,546,cs),
(229,546,o),
(275,592,o),
(275,644,cs),
(275,699,o),
(233,740,o),
(169,740,cs),
(87,740,o),
(48,678,o),
(48,611,cs),
(48,560,o),
(69,516,o),
(103,482,c),
(67,480,o),
(28,481,o),
(-13,481,c),
(-13,470,l),
(43,470,o),
(64,465,o),
(64,413,cs),
(64,-185,ls),
(64,-209,o),
(46,-277,o),
(-9,-277,cs),
(-30,-277,o),
(-40,-267,o),
(-43,-262,c),
(-10,-247,o),
(6,-211,o),
(6,-177,cs),
(6,-133,o),
(-20,-91,o),
(-73,-91,cs),
(-122,-91,o),
(-150,-128,o),
(-150,-177,cs),
(-150,-235,o),
(-111,-290,o),
(23,-290,cs),
(197,-290,o),
(261,-192,o),
(261,-58,cs),
(261,408,l),
(283,404,o),
(307,401,o),
(331,401,cs),
(513,401,o),
(613,543,o),
(613,682,cs),
(613,817,o),
(523,948,o),
(329,948,cs),
(-190,948,o),
(-579,-229,o),
(-1295,-229,cs),
(-1683,-229,o),
(-1899,61,o),
(-1899,372,cs),
(-1899,681,o),
(-1688,999,o),
(-1266,999,cs),
(-1138,999,o),
(-1047,968,o),
(-982,928,c)
);
}
);
width = 322;
}
);
},
{
color = (153, 255, 154, 255);
glyphname = j.7.acc;
layers = (
{
layerId = "90448605-A80E-4A32-AE33-B790A1EB0DF1";
shapes = (
{
closed = 1;
nodes = (
(-974,940,l),
(-1040,981,o),
(-1133,1011,o),
(-1262,1011,cs),
(-1692,1011,o),
(-1907,686,o),
(-1907,372,cs),
(-1907,54,o),
(-1687,-241,o),
(-1291,-241,cs),
(-567,-241,o),
(-248,942,o),
(333,942,cs),
(519,942,o),
(605,813,o),
(605,682,cs),
(605,547,o),
(509,411,o),
(335,411,c),
(266,412,o),
(197,432,o),
(146,475,c),
(146,497,l),
(141,495,o),
(134,492,o),
(128,492,c),
(100,520,o),
(81,557,o),
(69,601,c),
(79,592,o),
(92,589,o),
(106,589,cs),
(139,589,o),
(165,612,o),
(165,642,cs),
(165,672,o),
(139,695,o),
(106,695,cs),
(67,695,o),
(46,665,o),
(46,629,cs),
(46,577,o),
(72,528,o),
(114,489,c),
(82,482,o),
(44,481,o),
(1,481,c),
(1,470,l),
(57,470,o),
(78,465,o),
(78,413,cs),
(78,-189,ls),
(78,-227,o),
(39,-277,o),
(-10,-277,cs),
(-30,-277,o),
(-43,-269,o),
(-46,-257,c),
(-26,-248,o),
(-11,-226,o),
(-11,-202,cs),
(-11,-178,o),
(-26,-153,o),
(-58,-153,cs),
(-89,-153,o),
(-106,-176,o),
(-106,-208,cs),
(-106,-258,o),
(-63,-288,o),
(6,-288,cs),
(121,-288,o),
(146,-196,o),
(146,-95,cs),
(146,462,l),
(198,426,o),
(267,402,o),
(335,401,c),
(517,401,o),
(617,543,o),
(617,682,cs),
(617,817,o),
(527,977,o),
(333,977,cs),
(-175,977,o),
(-575,-171,o),
(-1291,-171,cs),
(-1679,-171,o),
(-1895,58,o),
(-1895,372,cs),
(-1895,681,o),
(-1684,999,o),
(-1262,999,cs),
(-1134,999,o),
(-1042,968,o),
(-977,928,c)
);
}
);
width = 226;
},
{
layerId = "97E2145D-66CE-4726-B996-40A38D9C79F6";
shapes = (
{
closed = 1;
nodes = (
(-978,940,l),
(-1044,981,o),
(-1137,1011,o),
(-1266,1011,cs),
(-1696,1011,o),
(-1911,686,o),
(-1911,372,cs),
(-1911,54,o),
(-1691,-294,o),
(-1295,-294,cs),
(-571,-294,o),
(-291,942,o),
(309,942,cs),
(495,942,o),
(601,813,o),
(601,682,cs),
(601,547,o),
(505,411,o),
(331,411,cs),
(308,411,o),
(284,414,o),
(261,420,c),
(261,497,l),
(225,490,o),
(183,486,o),
(139,484,c),
(105,513,o),
(82,550,o),
(75,593,c),
(93,568,o),
(131,546,o),
(169,546,cs),
(229,546,o),
(275,592,o),
(275,644,cs),
(275,699,o),
(233,740,o),
(169,740,cs),
(87,740,o),
(48,678,o),
(48,611,cs),
(48,560,o),
(69,516,o),
(103,482,c),
(67,480,o),
(28,481,o),
(-13,481,c),
(-13,470,l),
(43,470,o),
(64,465,o),
(64,413,cs),
(64,-185,ls),
(64,-209,o),
(46,-277,o),
(-9,-277,cs),
(-30,-277,o),
(-40,-267,o),
(-43,-262,c),
(-10,-247,o),
(6,-211,o),
(6,-177,cs),
(6,-133,o),
(-20,-91,o),
(-73,-91,cs),
(-122,-91,o),
(-150,-128,o),
(-150,-177,cs),
(-150,-235,o),
(-111,-290,o),
(23,-290,cs),
(197,-290,o),
(261,-192,o),
(261,-58,cs),
(261,408,l),
(283,404,o),
(307,401,o),
(331,401,cs),
(513,401,o),
(613,543,o),
(613,682,cs),
(613,817,o),
(503,992,o),
(309,992,cs),
(-222,992,o),
(-471,-134,o),
(-1295,-134,cs),
(-1683,-134,o),
(-1899,58,o),
(-1899,372,cs),
(-1899,681,o),
(-1688,999,o),
(-1266,999,cs),
(-1138,999,o),
(-1046,968,o),
(-981,928,c)
);
}
);
width = 322;
}
);
},
{
color = (255, 153, 153, 255);
glyphname = k;
layers = (
{
guides = (
{
position = "{0, 474}";
}
);
layerId = "90448605-A80E-4A32-AE33-B790A1EB0DF1";
shapes = (
{
closed = 1;
nodes = (
(263.,481,ls),
(260.,481,o),
(258.,479.,o),
(258,476,c),
(258,476,l),
(258,473.02,o),
(259.981,471.015,o),
(263,470.939,cs),
(343.22,468.919,o),
(323.332,417.173,o),
(241,327,cs),
(140,216,l),
(140,721,l),
(-4,692,l),
(-4,684,l),
(46,684,o),
(73,688,o),
(73,625,cs),
(73,0,l),
(140,0,l),
(140,202,l),
(200,268,l),
(203,271,o),
(205,274,o),
(208,276,c),
(218,287,o),
(225,292,o),
(235,292,cs),
(341,292,o),
(326,-13,o),
(442,-13,cs),
(483,-13,o),
(517,8,o),
(512,48,c),
(508,50,l),
(507,30,o),
(501,17,o),
(485,17,cs),
(456,17,o),
(437,65,o),
(413,121,cs),
(379,199,o),
(335,303,o),
(237,303,cs),
(236,303,o),
(234,304,o),
(232,304,c),
(250,323,ls),
(364,444,o),
(407,472,o),
(480,471,cs),
(486,471,o),
(489,474,o),
(489,477,cs),
(489,478,o),
(486,481,o),
(480,481,cs)
);
}
);
width = 515;
},
{
guides = (
{
position = "{0, 474}";
}
);
layerId = "97E2145D-66CE-4726-B996-40A38D9C79F6";
shapes = (
{
closed = 1;
nodes = (
(336.,481,ls),
(333.,481.,o),
(331,479.,o),
(331,476,c),
(331,476,l),
(331.,473.057,o),
(332.945,471.044,o),
(335.997,470.827,cs),
(397.501,466.453,o),
(387.285,380.131,o),
(322,309,cs),
(265,246,l),
(265,721,l),
(-9,691,l),
(-9,680,l),
(47,680,o),
(68,686,o),
(68,634,cs),
(68,0,l),
(265,0,l),
(265,233,l),
(277,246,l),
(278,247,o),
(279,248,o),
(280,249,c),
(286,256,o),
(293,261,o),
(302,261,cs),
(361,261,o),
(279,-9,o),
(497,-9,cs),
(540,-9,o),
(617,13,o),
(617,53,c),
(610,54,l),
(609,48,o),
(606,39,o),
(594,39,cs),
(578,39,o),
(566,80,o),
(557,129,cs),
(543,202,o),
(486,284,o),
(365,284,cs),
(347,284,o),
(324,283,o),
(303,275,c),
(331,305,ls),
(405,387,o),
(517,472,o),
(590,471,cs),
(596,471,o),
(599,474,o),
(599,477,cs),
(599,478,o),
(596,481,o),
(590,481,cs)
);
}
);
width = 623;
}
);
unicode = 107;
},
{
color = (153, 255, 154, 255);
glyphname = k.7;
layers = (
{
guides = (
{
position = "{0, 474}";
}
);
layerId = "90448605-A80E-4A32-AE33-B790A1EB0DF1";
shapes = (
{
closed = 1;
nodes = (
(257,481,ls),
(254,481,o),
(252,479,o),
(252,476,cs),
(252,473,o),
(254,471,o),
(257,471,c),
(337,469,o),
(317,417,o),
(235,327,cs),
(134,216,l),
(134,721,l),
(-10,692,l),
(-10,684,l),
(40,684,o),
(67,688,o),
(67,625,cs),
(67,140,l),
(-262,-220,o),
(-630,-610,o),
(-1110,-610,cs),
(-1583,-610,o),
(-1967,-227,o),
(-1967,247,cs),
(-1967,721,o),
(-1583,1106,o),
(-1110,1106,cs),
(-900,1106,o),
(-708,1031,o),
(-559,905,c),
(-550,911,l),
(-701,1039,o),
(-897,1118,o),
(-1110,1118,cs),
(-1590,1118,o),
(-1979,727,o),
(-1979,247,cs),
(-1979,-233,o),
(-1590,-622,o),
(-1110,-622,cs),
(-632,-622,o),
(-263,-241,o),
(67,122,c),
(67,0,l),
(134,0,l),
(134,202,l),
(202,276,ls),
(212,287,o),
(219,292,o),
(229,292,cs),
(305,292,o),
(360,70,o),
(500,-116,cs),
(602,-253,o),
(749,-371,o),
(984,-371,cs),
(1307,-371,o),
(1603,-143,o),
(1603,201,cs),
(1603,526,o),
(1338,789,o),
(1013,789,cs),
(778,789,o),
(571,661,o),
(378,481,c)
);
},
{
closed = 1;
nodes = (
(471,471,o),
(472,472,o),
(472,475,cs),
(472,478,o),
(471,481,o),
(468,481,cs),
(393,481,l),
(584,654,o),
(783,777,o),
(1013,777,cs),
(1330,777,o),
(1591,519,o),
(1591,201,cs),
(1591,-133,o),
(1303,-357,o),
(1001,-357,cs),
(822,-357,o),
(702,-269,o),
(610,-158,cs),
(454,37,o),
(378,316,o),
(231,300,cs),
(222,299,l),
(244,323,ls),
(354,440,o),
(399,470,o),
(468,471,cs)
);
}
);
width = 509;
},
{
guides = (
{
position = "{0, 474}";
}
);
layerId = "97E2145D-66CE-4726-B996-40A38D9C79F6";
shapes = (
{
closed = 1;
nodes = (
(337,481,ls),
(334,481,o),
(332,479,o),
(332,476,cs),
(332,473,o),
(334,471,o),
(337,471,c),
(399,467,o),
(387,380,o),
(322,309,cs),
(265,246,l),
(265,721,l),
(-9,691,l),
(-9,680,l),
(47,680,o),
(68,686,o),
(68,634,cs),
(68,52,l),
(-241,-281,o),
(-585,-610,o),
(-1025,-610,cs),
(-1498,-610,o),
(-1882,-227,o),
(-1882,247,cs),
(-1882,721,o),
(-1498,1106,o),
(-1025,1106,cs),
(-815,1106,o),
(-623,1031,o),
(-474,905,c),
(-465,911,l),
(-616,1039,o),
(-812,1118,o),
(-1025,1118,cs),
(-1505,1118,o),
(-1894,727,o),
(-1894,247,cs),
(-1894,-233,o),
(-1505,-622,o),
(-1025,-622,cs),
(-587,-622,o),
(-242,-298,o),
(68,36,c),
(68,0,l),
(265,0,l),
(265,233,l),
(292,262,ls),
(295,265,o),
(297,267,o),
(301,267,cs),
(334,267,o),
(372,11,o),
(481,-143,cs),
(579,-281,o),
(757,-381,o),
(1024,-381,cs),
(1336,-381,o),
(1603,-127,o),
(1603,201,cs),
(1603,526,o),
(1338,789,o),
(1013,789,cs),
(810,789,o),
(634,661,o),
(466,481,c)
);
},
{
closed = 1;
nodes = (
(587,471,o),
(588,472,o),
(588,475,cs),
(588,478,o),
(587,481,o),
(584,481,cs),
(477,481,l),
(642,655,o),
(815,777,o),
(1013,777,cs),
(1330,777,o),
(1591,519,o),
(1591,201,cs),
(1591,-114,o),
(1339,-360,o),
(1054,-360,cs),
(885,-360,o),
(803,-241,o),
(686,-75,cs),
(564,98,o),
(455,274,o),
(307,274,cs),
(302,274,l),
(331,305,ls),
(404,383,o),
(513,468,o),
(584,471,c)
);
}
);
width = 609;
}
);
},
{
color = (153, 255, 154, 255);
glyphname = k.6;
layers = (
{
layerId = "90448605-A80E-4A32-AE33-B790A1EB0DF1";
shapes = (
{
closed = 1;
nodes = (
(476.013,471.009,o),
(478,473.013,o),
(478,476,c),
(478,476,l),
(478.,479.,o),
(476.,481.,o),
(473,481,cs),
(263,481,ls),
(260.,481.,o),
(258,479.,o),
(258,476,c),
(258,476,l),
(258,473.02,o),
(259.981,471.015,o),
(263,470.939,cs),
(343.22,468.919,o),
(323.332,417.173,o),
(241,327,cs),
(140,216,l),
(140,617,ls),
(140,978,o),
(471,1233,o),
(803,1233,cs),
(1240,1233,o),
(1595,872,o),
(1595,421,cs),
(1595,-22,o),
(1244,-378,o),
(813,-378,cs),
(620,-378,o),
(444,-303,o),
(310,-184,c),
(302,-192,l),
(436,-314,o),
(616,-389,o),
(813,-389,cs),
(1253,-389,o),
(1607,-29,o),
(1607,421,cs),
(1607,878,o),
(1248,1243,o),
(800,1243,cs),
(404,1243,o),
(73,923,o),
(73,517,cs),
(73,0,l),
(140,0,l),
(140,202,l),
(221,291,l),
(335,285,o),
(323,-13,o),
(442,-13,cs),
(483,-13,o),
(517,8,o),
(512,48,c),
(508,49,l),
(508,27,o),
(502,15,o),
(487,15,cs),
(415,15,o),
(406,296,o),
(229,300,c),
(250,323,ls),
(356.457,444.107,o),
(403.773,469.826,o),
(473.,470.96,cs)
);
}
);
width = 525;
},
{
layerId = "97E2145D-66CE-4726-B996-40A38D9C79F6";
shapes = (
{
closed = 1;
nodes = (
(586.037,471.025,o),
(588.,473.039,o),
(588,476,c),
(588,476,l),
(588,479.,o),
(586.,481,o),
(583,481,cs),
(337,481,ls),
(334.,481,o),
(332,479.,o),
(332,476,c),
(332,476,l),
(332,473.061,o),
(333.942,471.047,o),
(336.998,470.816,cs),
(396.536,466.31,o),
(387.23,380.072,o),
(322,309,cs),
(265,246,l),
(265,617,ls),
(265,978,o),
(503,1233,o),
(832,1233,cs),
(1269,1233,o),
(1624,872,o),
(1624,421,cs),
(1624,-22,o),
(1273,-378,o),
(842,-378,cs),
(649,-378,o),
(473,-303,o),
(339,-184,c),
(331,-192,l),
(465,-314,o),
(645,-389,o),
(842,-389,cs),
(1282,-389,o),
(1636,-29,o),
(1636,421,cs),
(1636,878,o),
(1277,1243,o),
(829,1243,cs),
(360,1243,o),
(68,923,o),
(68,517,cs),
(68,0,l),
(265,0,l),
(265,233,l),
(318,291,l),
(317,230,o),
(308,-9,o),
(512,-9,cs),
(559,-9,o),
(615,-2,o),
(609,48,c),
(605,49,l),
(605,38,o),
(603,32,o),
(596,32,cs),
(549,32,o),
(578,298,o),
(328,302,c),
(331,305,l),
(400.378,386.104,o),
(510.814,467.208,o),
(583.001,470.871,cs)
);
}
);
width = 623;
}
);
},
{
color = (153, 255, 154, 255);
glyphname = k.44;
layers = (
{
layerId = "90448605-A80E-4A32-AE33-B790A1EB0DF1";
shapes = (
{
closed = 1;
nodes = (
(476.013,471.009,o),
(478,473.013,o),
(478,476,c),
(478,476,l),
(478.,479.,o),
(476.,481.,o),
(473,481,cs),
(263,481,ls),
(260.,481.,o),
(258,479.,o),
(258,476,c),
(258,476,l),
(258,473.02,o),
(259.981,471.015,o),
(263,470.939,cs),
(343.22,468.919,o),
(323.332,417.173,o),
(241,327,cs),
(140,216,l),
(140,617,ls),
(140,976,o),
(471,1230,o),
(803,1230,cs),
(1240,1230,o),
(1595,870,o),
(1595,421,cs),
(1595,-22,o),
(1244,-380,o),
(813,-379,cs),
(-135,-377,o),
(-298,934,o),
(-1240,934,cs),
(-1571,934,o),
(-1861,737,o),
(-1999,455,c),
(-1986,450,l),
(-1850,727,o),
(-1567,922,o),
(-1240,922,cs),
(-311,922,o),
(-137,-389,o),
(813,-389,cs),
(1253,-389,o),
(1607,-29,o),
(1607,421,cs),
(1607,878,o),
(1248,1243,o),
(800,1243,cs),
(404,1243,o),
(73,923,o),
(73,517,cs),
(73,0,l),
(140,0,l),
(140,202,l),
(221,291,l),
(335,285,o),
(323,-13,o),
(442,-13,cs),
(483,-13,o),
(517,8,o),
(512,48,c),
(508,49,l),
(508,27,o),
(502,15,o),
(487,15,cs),
(415,15,o),
(406,296,o),
(229,300,c),
(250,323,ls),
(356.457,444.107,o),
(403.773,469.826,o),
(473.,470.96,cs)
);
}
);
width = 525;
},
{
layerId = "97E2145D-66CE-4726-B996-40A38D9C79F6";
shapes = (
{
closed = 1;
nodes = (
(586.037,471.025,o),
(588.,473.039,o),
(588,476,c),
(588,476,l),
(588,479.,o),
(586.,481,o),
(583,481,cs),
(337,481,ls),
(334.,481,o),
(332,479.,o),
(332,476,c),
(332,476,l),
(332,473.061,o),
(333.942,471.047,o),
(336.998,470.816,cs),
(396.536,466.31,o),
(387.23,380.072,o),
(322,309,cs),
(265,246,l),
(265,619,ls),
(265,978,o),
(509,1230,o),
(832,1230,cs),
(1269,1230,o),
(1624,870,o),
(1624,421,cs),
(1624,-33,o),
(1265,-380,o),
(829,-379,cs),
(-119,-377,o),
(-339,934,o),
(-1281,934,cs),
(-1612,934,o),
(-1902,737,o),
(-2040,455,c),
(-2027,450,l),
(-1891,727,o),
(-1608,922,o),
(-1281,922,cs),
(-352,922,o),
(-121,-389,o),
(829,-389,cs),
(1287,-389,o),
(1636,-19,o),
(1636,421,cs),
(1636,878,o),
(1277,1243,o),
(829,1243,cs),
(360,1243,o),
(68,923,o),
(68,517,cs),
(68,0,l),
(265,0,l),
(265,233,l),
(318,291,l),
(317,230,o),
(308,-9,o),
(512,-9,cs),
(559,-9,o),
(615,-2,o),
(609,48,c),
(605,49,l),
(605,38,o),
(603,32,o),
(596,32,cs),
(549,32,o),
(578,298,o),
(328,302,c),
(331,305,l),
(400.378,386.104,o),
(510.814,467.208,o),
(583.001,470.871,cs)
);
}
);
width = 623;
}
);
},
{
color = (153, 255, 154, 255);
glyphname = k.44.acc;
layers = (
{
layerId = "90448605-A80E-4A32-AE33-B790A1EB0DF1";
shapes = (
{
closed = 1;
nodes = (
(476.013,471.009,o),
(478,473.013,o),
(478,476,c),
(478,476,l),
(478.,479.,o),
(476.,481.,o),
(473,481,cs),
(263,481,ls),
(260.,481.,o),
(258,479.,o),
(258,476,c),
(258,476,l),
(258,473.02,o),
(259.981,471.015,o),
(263,470.939,cs),
(343.22,468.919,o),
(323.332,417.173,o),
(241,327,cs),
(140,216,l),
(140,617,ls),
(140,976,o),
(471,1230,o),
(803,1230,cs),
(1240,1230,o),
(1595,870,o),
(1595,421,cs),
(1595,-24,o),
(1244,-356,o),
(813,-356,cs),
(321,-356,o),
(49,-58,o),
(-209,251,cs),
(-489,586,o),
(-750,934,o),
(-1240,934,cs),
(-1572,934,o),
(-1863,737,o),
(-2002,455,c),
(-1990,450,l),
(-1853,727,o),
(-1569,922,o),
(-1240,922,cs),
(-773,922,o),
(-496,580,o),
(-216,243,cs),
(60,-94,o),
(341,-426,o),
(813,-426,cs),
(1253,-426,o),
(1607,-29,o),
(1607,421,cs),
(1607,878,o),
(1248,1243,o),
(800,1243,cs),
(404,1243,o),
(73,923,o),
(73,517,cs),
(73,0,l),
(140,0,l),
(140,202,l),
(221,291,l),
(335,285,o),
(323,-13,o),
(442,-13,cs),
(483,-13,o),
(517,8,o),
(512,48,c),
(508,49,l),
(508,27,o),
(502,15,o),
(487,15,cs),
(415,15,o),
(406,296,o),
(229,300,c),
(250,323,ls),
(356.457,444.107,o),
(403.773,469.826,o),
(473.,470.96,cs)
);
}
);
width = 525;
},
{
layerId = "97E2145D-66CE-4726-B996-40A38D9C79F6";
shapes = (
{
closed = 1;
nodes = (
(586.037,471.025,o),
(588.,473.039,o),
(588,476,c),
(588,476,l),
(588,479.,o),
(586.,481.,o),
(583.,481,cs),
(341.,481,ls),
(338.,481.,o),
(336,479.,o),
(336,476,c),
(336,476,l),
(336,473.06,o),
(337.943,471.046,o),
(340.997,470.821,cs),
(401.286,466.375,o),
(387.255,380.099,o),
(322,309,cs),
(265,246,l),
(265,619,ls),
(265,970,o),
(508,1230,o),
(832,1230,cs),
(1269,1230,o),
(1624,870,o),
(1624,421,cs),
(1624,-35,o),
(1265,-328,o),
(829,-328,cs),
(297,-328,o),
(12,-57,o),
(-292,318,cs),
(-554,641,o),
(-843,934,o),
(-1281,934,cs),
(-1613,934,o),
(-1904,737,o),
(-2043,455,c),
(-2031,450,l),
(-1894,727,o),
(-1610,922,o),
(-1281,922,cs),
(-846,922,o),
(-559,638,o),
(-296,312,cs),
(31,-94,o),
(347,-488,o),
(829,-488,cs),
(1287,-488,o),
(1636,-19,o),
(1636,421,cs),
(1636,878,o),
(1277,1243,o),
(829,1243,cs),
(360,1243,o),
(68,923,o),
(68,517,cs),
(68,0,l),
(265,0,l),
(265,233,l),
(318,291,l),
(317,230,o),
(308,-9,o),
(512,-9,cs),
(559,-9,o),
(615,-2,o),
(609,48,c),
(605,49,l),
(605,38,o),
(603,32,o),
(596,32,cs),
(549,32,o),
(578,298,o),
(328,302,c),
(331,305,l),
(400.378,386.104,o),
(510.814,467.208,o),
(583.001,470.871,cs)
);
}
);
width = 623;
}
);
},
{
color = (153, 255, 154, 255);
glyphname = k.7.acc;
layers = (
{
guides = (
{
position = "{0, 474}";
}
);
layerId = "90448605-A80E-4A32-AE33-B790A1EB0DF1";
shapes = (
{
closed = 1;
nodes = (
(257.,481,ls),
(254.,481.,o),
(252,479.,o),
(252,476,c),
(252,476,l),
(252.,473.02,o),
(253.981,471.015,o),
(257,470.939,cs),
(337.22,468.919,o),
(317.332,417.173,o),
(235,327,cs),
(134,216,l),
(134,721,l),
(-10,692,l),
(-10,684,l),
(40,684,o),
(67,688,o),
(67,625,cs),
(67,142,l),
(-260,-218,o),
(-634,-552,o),
(-1110,-552,cs),
(-1585,-552,o),
(-1971,-229,o),
(-1971,247,cs),
(-1971,720,o),
(-1585,1104,o),
(-1110,1104,cs),
(-912,1104,o),
(-711,1033,o),
(-557,903,c),
(-550,911,l),
(-701,1039,o),
(-897,1116,o),
(-1110,1116,cs),
(-1590,1116,o),
(-1979,727,o),
(-1979,247,cs),
(-1979,-233,o),
(-1590,-622,o),
(-1110,-622,cs),
(-635,-622,o),
(-261,-230,o),
(67,131,c),
(67,0,l),
(134,0,l),
(134,202,l),
(149,219,o),
(187,259,o),
(202,276,cs),
(212,287,o),
(219,292,o),
(229,292,cs),
(305,292,o),
(360,70,o),
(500,-116,cs),
(602,-253,o),
(749,-361,o),
(984,-371,cs),
(1321,-385,o),
(1603,-143,o),
(1603,201,cs),
(1603,526,o),
(1338,789,o),
(1013,789,cs),
(776,789,o),
(572,661,o),
(379,481,c)
);
},
{
closed = 1;
nodes = (
(470.016,471.011,o),
(472,473.015,o),
(472,476,c),
(472,476,l),
(472.,479.,o),
(470.,481.,o),
(467.,481,cs),
(397,481,l),
(588,654,o),
(783,777,o),
(1013,777,cs),
(1331,777,o),
(1591,519,o),
(1591,201,cs),
(1591,-133,o),
(1318,-371,o),
(1001,-357,cs),
(822,-349,o),
(702,-269,o),
(610,-158,cs),
(454,37,o),
(380,303,o),
(232,303,cs),
(231,303,o),
(227,303,o),
(225,302,c),
(244,323,ls),
(354.362,440.198,o),
(397.954,469.642,o),
(467.003,470.953,cs)
);
}
);
width = 509;
},
{
guides = (
{
position = "{0, 474}";
}
);
layerId = "97E2145D-66CE-4726-B996-40A38D9C79F6";
shapes = (
{
closed = 1;
nodes = (
(340,481,ls),
(337.,481,o),
(335,479.,o),
(335,476,c),
(335,476,l),
(335,473.064,o),
(336.939,471.049,o),
(339.996,470.809,cs),
(398.422,466.231,o),
(387.201,380.04,o),
(322,309,cs),
(265,246,l),
(265,721,l),
(-9,691,l),
(-9,680,l),
(47,680,o),
(68,686,o),
(68,634,cs),
(68,53,l),
(-239,-262,o),
(-589,-492,o),
(-1025,-492,cs),
(-1500,-492,o),
(-1886,-229,o),
(-1886,247,cs),
(-1886,720,o),
(-1500,1104,o),
(-1025,1104,cs),
(-815,1104,o),
(-621,1028,o),
(-472,903,c),
(-465,911,l),
(-616,1039,o),
(-812,1116,o),
(-1025,1116,cs),
(-1505,1116,o),
(-1894,727,o),
(-1894,247,cs),
(-1894,-233,o),
(-1505,-652,o),
(-1025,-652,cs),
(-590,-652,o),
(-240,-299,o),
(68,39,c),
(68,0,l),
(265,0,l),
(265,233,l),
(274,243,o),
(283,252,o),
(292,262,c),
(296,265,o),
(300,266,o),
(305,266,cs),
(349,266,o),
(354,37,o),
(481,-143,cs),
(579,-281,o),
(757,-381,o),
(1024,-381,cs),
(1336,-381,o),
(1603,-127,o),
(1603,201,cs),
(1603,526,o),
(1338,789,o),
(1013,789,cs),
(808,789,o),
(631,661,o),
(463,481,c)
);
},
{
closed = 1;
nodes = (
(586.038,471.026,o),
(588,473.04,o),
(588,476,c),
(588,476,l),
(588,479.,o),
(586.,481.,o),
(583.,481,cs),
(481,481,l),
(646,655,o),
(815,777,o),
(1013,777,cs),
(1331,777,o),
(1591,519,o),
(1591,201,cs),
(1591,-114,o),
(1340,-360,o),
(1054,-360,cs),
(885,-360,o),
(803,-241,o),
(686,-75,cs),
(564,98,o),
(456,277,o),
(308,277,c),
(308,277,o),
(306,277,o),
(305,277,c),
(331,305,ls),
(402.332,384.149,o),
(510.901,467.117,o),
(583.001,470.868,cs)
);
}
);
width = 609;
}
);
},
{
color = (153, 255, 154, 255);
glyphname = k.9;
layers = (
{
layerId = "90448605-A80E-4A32-AE33-B790A1EB0DF1";
shapes = (
{
closed = 1;
nodes = (
(476.011,471.01,o),
(478.,473.014,o),
(478,476,c),
(478,476,l),
(478.,479.,o),
(476.,481.,o),
(473,481,cs),
(263,481,ls),
(260.,481.,o),
(258,479.,o),
(258,476,c),
(258,476,l),
(258,473.02,o),
(259.981,471.015,o),
(263,470.939,cs),
(343.22,468.919,o),
(323.332,417.173,o),
(241,327,cs),
(140,216,l),
(140,721,l),
(-4,692,l),
(-4,684,l),
(46,684,o),
(73,688,o),
(73,625,cs),
(73,0,l),
(140,0,l),
(140,202,l),
(222,293,l),
(229,292,o),
(236,290,o),
(242,287,c),
(337,236,o),
(379,-125,o),
(706,-125,cs),
(895,-125,o),
(992,5,o),
(992,139,cs),
(992,193,o),
(962,242,o),
(909,242,cs),
(871,242,o),
(845,216,o),
(845,185,cs),
(845,155,o),
(869,128,o),
(906,128,cs),
(935,128,o),
(959,145,o),
(968,166,c),
(973,150,o),
(975,136,o),
(975,118,cs),
(975,-1,o),
(873,-95,o),
(729,-95,cs),
(487,-95,o),
(390,295,o),
(229,300,c),
(250,323,ls),
(358.405,442.148,o),
(403.86,469.732,o),
(472.994,470.956,cs)
);
}
);
width = 1034;
},
{
layerId = "97E2145D-66CE-4726-B996-40A38D9C79F6";
shapes = (
{
closed = 1;
nodes = (
(586.038,471.026,o),
(588,473.04,o),
(588,476,c),
(588,476,l),
(588,479.,o),
(586.,481.,o),
(583,481,cs),
(339,481,ls),
(336.,481.,o),
(334,479.,o),
(334,476,c),
(334,476,l),
(334,473.064,o),
(335.939,471.049,o),
(338.996,470.81,cs),
(397.475,466.233,o),
(387.201,380.04,o),
(322,309,cs),
(265,246,l),
(265,721,l),
(-9,691,l),
(-9,680,l),
(47,680,o),
(68,686,o),
(68,634,cs),
(68,0,l),
(265,0,l),
(265,233,l),
(317,290,l),
(316,281,o),
(315,271,o),
(315,260,cs),
(315,126,o),
(412,-152,o),
(724,-152,cs),
(943,-152,o),
(1055,-14,o),
(1055,123,cs),
(1055,216,o),
(1003,301,o),
(913,301,cs),
(848,301,o),
(804,256,o),
(804,203,cs),
(804,152,o),
(845,105,o),
(908,105,cs),
(957,105,o),
(998,134,o),
(1014,171,c),
(1022,144,o),
(1026,120,o),
(1026,94,cs),
(1026,-27,o),
(931,-113,o),
(796,-113,cs),
(510,-113,o),
(657,302,o),
(327,301,c),
(331,305,l),
(402.332,384.149,o),
(510.901,467.117,o),
(583.001,470.868,cs)
);
}
);
width = 1106;
}
);
},
{
color = (255, 153, 153, 255);
glyphname = l;
layers = (
{
layerId = "90448605-A80E-4A32-AE33-B790A1EB0DF1";
shapes = (
{
closed = 1;
nodes = (
(242,31,l),
(236,24,o),
(223,18,o),
(198,18,cs),
(151,18,o),
(135,47,o),
(135,122,cs),
(135,721,l),
(-9,692,l),
(-9,684,l),
(41,684,o),
(68,688,o),
(68,625,cs),
(68,118,ls),
(68,34,o),
(97,-9,o),
(162,-9,cs),
(202,-9,o),
(235,7,o),
(246,26,c)
);
}
);
width = 240;
},
{
layerId = "97E2145D-66CE-4726-B996-40A38D9C79F6";
shapes = (
{
closed = 1;
nodes = (
(310,39,l),
(308,35,o),
(296,31,o),
(283,31,cs),
(259,31,o),
(253,57,o),
(253,122,cs),
(253,721,l),
(-17,691,l),
(-17,682,l),
(23,682,o),
(60,686,o),
(60,634,cs),
(60,118,ls),
(60,34,o),
(105,-9,o),
(195,-9,cs),
(254,-9,o),
(300,9,o),
(316,32,c)
);
}
);
width = 324;
}
);
unicode = 108;
},
{
color = (153, 255, 154, 255);
glyphname = l.5;
layers = (
{
background = {
shapes = (
{
closed = 1;
nodes = (
(52,459,l),
(52,39,ls),
(52,-197,o),
(181,-444,o),
(504,-444,cs),
(682,-444,o),
(764,-303,o),
(764,-217,cs),
(764,-147,o),
(723,-79,o),
(676,-71,c),
(675,-76,l),
(721,-85,o),
(759,-149,o),
(759,-217,cs),
(759,-301,o),
(675,-435,o),
(505,-435,cs),
(250,-435,o),
(245,-192,o),
(245,39,cs),
(245,543,l)
);
}
);
};
layerId = "90448605-A80E-4A32-AE33-B790A1EB0DF1";
shapes = (
{
closed = 1;
nodes = (
(507,-132,l),
(484,-187,o),
(409,-218,o),
(346,-218,cs),
(237,-218,o),
(144,-145,o),
(144,28,cs),
(144,721,l),
(0,692,l),
(0,684,l),
(50,684,o),
(77,688,o),
(77,625,cs),
(77,69,ls),
(77,-108,o),
(170,-230,o),
(330,-230,cs),
(406,-230,o),
(488,-202,o),
(513,-139,c)
);
}
);
width = 235;
},
{
layerId = "97E2145D-66CE-4726-B996-40A38D9C79F6";
shapes = (
{
closed = 1;
nodes = (
(626,-132,l),
(603,-188,o),
(527,-219,o),
(463,-219,cs),
(355,-219,o),
(257,-147,o),
(257,28,cs),
(257,721,l),
(-13,691,l),
(-13,682,l),
(27,682,o),
(64,686,o),
(64,634,cs),
(64,129,ls),
(64,-52,o),
(106,-239,o),
(420,-239,cs),
(508,-239,o),
(603,-208,o),
(632,-139,c)
);
}
);
width = 322;
}
);
},
{
color = (153, 255, 154, 255);
glyphname = l.4;
layers = (
{
background = {
shapes = (
{
closed = 1;
nodes = (
(247,138,l),
(247,721,l),
(-23,689,l),
(-23,682,l),
(33,682,o),
(54,686,o),
(54,634,cs),
(54,202,l)
);
},
{
closed = 1;
nodes = (
(54,290,l),
(54,173,l),
(56,-192,o),
(373,-413,o),
(753,-413,cs),
(1096,-413,o),
(1373,-136,o),
(1373,207,cs),
(1373,544,o),
(1100,817,o),
(763,817,cs),
(605,817,o),
(461,757,o),
(353,659,c),
(359,655,l),
(466,752,o),
(608,811,o),
(763,811,cs),
(1096,811,o),
(1367,540,o),
(1367,207,cs),
(1367,-126,o),
(1096,-397,o),
(763,-397,cs),
(492,-397,o),
(249,-231,o),
(247,138,c),
(205,258,l)
);
}
);
};
layerId = "90448605-A80E-4A32-AE33-B790A1EB0DF1";
shapes = (
{
closed = 1;
nodes = (
(-4,684,l),
(17,684,o),
(73,686,o),
(73,634,cs),
(73,137,ls),
(73,-231,o),
(336,-414,o),
(658,-414,cs),
(1013,-414,o),
(1323,-161,o),
(1323,207,cs),
(1323,544,o),
(1048,817,o),
(709,817,cs),
(550,817,o),
(406,757,o),
(297,659,c),
(306,651,l),
(413,746,o),
(554,805,o),
(709,805,cs),
(1041,805,o),
(1311,536,o),
(1311,207,cs),
(1311,-147,o),
(1011,-401,o),
(669,-401,cs),
(388,-401,o),
(140,-231,o),
(140,109,cs),
(140,721,l),
(-4,692,l)
);
}
);
width = 237;
},
{
layerId = "97E2145D-66CE-4726-B996-40A38D9C79F6";
shapes = (
{
closed = 1;
nodes = (
(-20,682,l),
(20,682,o),
(57,686,o),
(57,634,cs),
(57,173,ls),
(57,-192,o),
(376,-413,o),
(756,-413,cs),
(1101,-413,o),
(1380,-136,o),
(1380,207,cs),
(1380,544,o),
(1105,817,o),
(766,817,cs),
(607,817,o),
(463,757,o),
(354,659,c),
(363,651,l),
(470,746,o),
(611,805,o),
(766,805,cs),
(1098,805,o),
(1368,536,o),
(1368,207,cs),
(1368,-125,o),
(1098,-395,o),
(766,-395,cs),
(495,-395,o),
(250,-230,o),
(250,138,cs),
(250,721,l),
(-20,691,l)
);
}
);
width = 318;
}
);
},
{
color = (153, 255, 154, 255);
glyphname = l.6;
layers = (
{
layerId = "90448605-A80E-4A32-AE33-B790A1EB0DF1";
shapes = (
{
closed = 1;
nodes = (
(302,-192,l),
(436,-314,o),
(616,-389,o),
(813,-389,cs),
(1255,-389,o),
(1611,-29,o),
(1611,421,cs),
(1611,878,o),
(1250,1243,o),
(800,1243,cs),
(404,1243,o),
(73,923,o),
(73,517,cs),
(73,118,ls),
(73,34,o),
(102,-9,o),
(167,-9,cs),
(207,-9,o),
(240,7,o),
(251,26,c),
(247,31,l),
(244,26,o),
(228,22,o),
(203,22,cs),
(156,22,o),
(140,50,o),
(140,122,cs),
(140,617,ls),
(140,975,o),
(471,1228,o),
(803,1228,cs),
(1243,1228,o),
(1599,869,o),
(1599,421,cs),
(1599,-23,o),
(1247,-380,o),
(813,-380,cs),
(621,-380,o),
(443,-307,o),
(310,-186,c)
);
}
);
width = 242;
},
{
layerId = "97E2145D-66CE-4726-B996-40A38D9C79F6";
shapes = (
{
closed = 1;
nodes = (
(326,-192,l),
(460,-314,o),
(640,-389,o),
(837,-389,cs),
(1279,-389,o),
(1635,-29,o),
(1635,421,cs),
(1635,878,o),
(1274,1243,o),
(824,1243,cs),
(355,1243,o),
(60,923,o),
(60,517,cs),
(60,118,ls),
(60,34,o),
(104,-9,o),
(196,-9,cs),
(253,-9,o),
(300,9,o),
(316,32,c),
(310,39,l),
(308,35,o),
(296,31,o),
(283,31,cs),
(259,31,o),
(253,57,o),
(253,122,cs),
(253,617,ls),
(253,975,o),
(498,1228,o),
(827,1228,cs),
(1267,1228,o),
(1623,869,o),
(1623,421,cs),
(1623,-23,o),
(1271,-380,o),
(837,-380,cs),
(645,-380,o),
(467,-307,o),
(334,-186,c)
);
}
);
width = 321;
}
);
},
{
color = (153, 255, 154, 255);
glyphname = l.6.more;
layers = (
{
layerId = "90448605-A80E-4A32-AE33-B790A1EB0DF1";
shapes = (
{
closed = 1;
nodes = (
(-680,-326,l),
(-578,-216,o),
(-430,-152,o),
(-262,-152,cs),
(117,-152,o),
(383,-388,o),
(813,-388,cs),
(1255,-388,o),
(1611,-29,o),
(1611,421,cs),
(1611,878,o),
(1250,1243,o),
(800,1243,cs),
(404,1243,o),
(73,923,o),
(73,517,cs),
(73,118,ls),
(73,34,o),
(102,-9,o),
(167,-9,cs),
(207,-9,o),
(240,7,o),
(251,26,c),
(247,31,l),
(244,26,o),
(228,22,o),
(203,22,cs),
(156,22,o),
(140,50,o),
(140,122,cs),
(140,617,ls),
(140,977,o),
(471,1231,o),
(803,1231,cs),
(1243,1231,o),
(1599,871,o),
(1599,421,cs),
(1599,-22,o),
(1247,-378,o),
(813,-378,cs),
(391,-378,o),
(120,-140,o),
(-262,-140,cs),
(-433,-140,o),
(-587,-205,o),
(-690,-318,c)
);
}
);
width = 242;
},
{
layerId = "97E2145D-66CE-4726-B996-40A38D9C79F6";
shapes = (
{
closed = 1;
nodes = (
(-657,-326,l),
(-555,-216,o),
(-407,-152,o),
(-239,-152,cs),
(140,-152,o),
(406,-388,o),
(836,-388,cs),
(1276,-388,o),
(1634,-28,o),
(1634,421,cs),
(1634,878,o),
(1273,1243,o),
(823,1243,cs),
(351,1243,o),
(55,923,o),
(55,517,cs),
(55,118,ls),
(55,34,o),
(99,-9,o),
(191,-9,cs),
(248,-9,o),
(295,9,o),
(311,32,c),
(305,39,l),
(303,35,o),
(291,31,o),
(278,31,cs),
(254,31,o),
(248,57,o),
(248,122,cs),
(248,617,ls),
(248,977,o),
(497,1231,o),
(826,1231,cs),
(1266,1231,o),
(1622,871,o),
(1622,421,cs),
(1622,-22,o),
(1270,-378,o),
(836,-378,cs),
(414,-378,o),
(143,-140,o),
(-239,-140,cs),
(-410,-140,o),
(-564,-205,o),
(-667,-318,c)
);
}
);
width = 316;
}
);
},
{
color = (153, 255, 154, 255);
glyphname = l.6.more.acc;
layers = (
{
layerId = "90448605-A80E-4A32-AE33-B790A1EB0DF1";
shapes = (
{
closed = 1;
nodes = (
(-678,-324,l),
(-577,-215,o),
(-429,-152,o),
(-262,-152,cs),
(117,-152,o),
(383,-418,o),
(813,-418,cs),
(1255,-418,o),
(1611,-29,o),
(1611,421,cs),
(1611,878,o),
(1250,1243,o),
(800,1243,cs),
(404,1243,o),
(73,923,o),
(73,517,cs),
(73,118,ls),
(73,34,o),
(102,-9,o),
(167,-9,cs),
(207,-9,o),
(240,7,o),
(251,26,c),
(247,31,l),
(244,26,o),
(228,22,o),
(203,22,cs),
(156,22,o),
(140,50,o),
(140,122,cs),
(140,617,ls),
(140,975,o),
(471,1228,o),
(803,1228,cs),
(1243,1228,o),
(1599,869,o),
(1599,421,cs),
(1599,-24,o),
(1247,-348,o),
(813,-348,cs),
(391,-348,o),
(120,-140,o),
(-262,-140,cs),
(-433,-140,o),
(-587,-205,o),
(-690,-318,c)
);
}
);
width = 242;
},
{
layerId = "97E2145D-66CE-4726-B996-40A38D9C79F6";
shapes = (
{
closed = 1;
nodes = (
(-655,-324,l),
(-554,-215,o),
(-406,-152,o),
(-239,-152,cs),
(140,-152,o),
(406,-459,o),
(836,-459,cs),
(1276,-459,o),
(1634,-28,o),
(1634,421,cs),
(1634,878,o),
(1273,1243,o),
(823,1243,cs),
(351,1243,o),
(55,923,o),
(55,517,cs),
(55,118,ls),
(55,34,o),
(99,-9,o),
(191,-9,cs),
(248,-9,o),
(295,9,o),
(311,32,c),
(305,39,l),
(303,35,o),
(291,31,o),
(278,31,cs),
(254,31,o),
(248,57,o),
(248,122,cs),
(248,617,ls),
(248,975,o),
(497,1228,o),
(826,1228,cs),
(1266,1228,o),
(1622,869,o),
(1622,421,cs),
(1622,-24,o),
(1270,-299,o),
(836,-299,cs),
(414,-299,o),
(143,-140,o),
(-239,-140,cs),
(-410,-140,o),
(-564,-205,o),
(-667,-318,c)
);
}
);
width = 316;
}
);
},
{
color = (153, 255, 154, 255);
glyphname = l.9;
layers = (
{
layerId = "90448605-A80E-4A32-AE33-B790A1EB0DF1";
shapes = (
{
closed = 1;
nodes = (
(-10,684,l),
(11,684,o),
(70,686,o),
(70,634,cs),
(70,187,ls),
(70,10,o),
(164,-125,o),
(356,-125,cs),
(545,-125,o),
(642,5,o),
(642,139,cs),
(642,193,o),
(612,242,o),
(559,242,cs),
(521,242,o),
(495,216,o),
(495,185,cs),
(495,155,o),
(519,128,o),
(556,128,cs),
(585,128,o),
(609,145,o),
(618,166,c),
(623,150,o),
(625,136,o),
(625,118,cs),
(625,1,o),
(526,-93,o),
(384,-93,cs),
(261,-93,o),
(140,-22,o),
(140,187,cs),
(140,721,l),
(-10,692,l)
);
}
);
width = 672;
},
{
layerId = "97E2145D-66CE-4726-B996-40A38D9C79F6";
shapes = (
{
closed = 1;
nodes = (
(-20,682,l),
(20,682,o),
(60,686,o),
(60,634,cs),
(60,178,ls),
(60,-25,o),
(199,-152,o),
(397,-152,cs),
(602,-152,o),
(719,-14,o),
(719,124,cs),
(719,216,o),
(667,301,o),
(577,301,cs),
(512,301,o),
(468,256,o),
(468,203,cs),
(468,152,o),
(509,105,o),
(572,105,cs),
(621,105,o),
(662,134,o),
(678,171,c),
(686,144,o),
(690,120,o),
(690,94,cs),
(690,-25,o),
(596,-111,o),
(469,-111,cs),
(357,-111,o),
(253,-48,o),
(253,160,cs),
(253,721,l),
(-20,691,l)
);
}
);
width = 760;
}
);
},
{
color = (154, 153, 255, 255);
glyphname = m;
layers = (
{
layerId = "90448605-A80E-4A32-AE33-B790A1EB0DF1";
shapes = (
{
closed = 1;
nodes = (
(80,0,l),
(148,0,l),
(148,259,ls),
(148,364,o),
(206,467,o),
(296,467,cs),
(356,467,o),
(385,419,o),
(385,342,cs),
(385,0,l),
(453,0,l),
(453,259,ls),
(453,335,o),
(496,467,o),
(598,467,cs),
(663,467,o),
(690,419,o),
(690,342,cs),
(690,101,ls),
(690,26,o),
(722,-9,o),
(775,-9,cs),
(817,-9,o),
(838,12,o),
(849,35,c),
(842,45,l),
(833,29,o),
(824,18,o),
(805,18,cs),
(770,18,o),
(760,53,o),
(760,109,cs),
(760,330,ls),
(760,431,o),
(720,497,o),
(630,497,cs),
(550,497,o),
(481,430,o),
(453,348,c),
(448,437,o),
(413,497,o),
(334,497,cs),
(247,497,o),
(182,444,o),
(149,348,cs),
(136,310,o),
(145,367,o),
(145,378,cs),
(145,497,l),
(104,484,o),
(59,481,o),
(3,481,c),
(3,470,l),
(59,470,o),
(80,465,o),
(80,413,cs)
);
}
);
width = 844;
},
{
layerId = "97E2145D-66CE-4726-B996-40A38D9C79F6";
shapes = (
{
closed = 1;
nodes = (
(70,0,l),
(267,0,l),
(267,258,ls),
(267,359,o),
(303,447,o),
(350,447,cs),
(382,447,o),
(387,416,o),
(387,326,cs),
(387,0,l),
(588,0,l),
(588,258,ls),
(588,358,o),
(624,447,o),
(671,447,cs),
(703,447,o),
(708,416,o),
(708,326,cs),
(708,184,ls),
(708,47,o),
(756,-9,o),
(851,-9,cs),
(912,-9,o),
(940,14,o),
(952,47,c),
(945,57,l),
(940,42,o),
(933,35,o),
(925,35,cs),
(912,35,o),
(909,63,o),
(909,109,cs),
(909,277,l),
(910,402,o),
(880,497,o),
(753,497,cs),
(624,497,o),
(594,382,o),
(586,350,c),
(576,441,o),
(538,497,o),
(432,497,cs),
(300,497,o),
(272,376,o),
(264,348,c),
(261,348,o),
(254,348,o),
(253,348,c),
(253,497,l),
(178,484,o),
(97,481,o),
(-7,481,c),
(-7,470,l),
(49,470,o),
(70,465,o),
(70,413,cs)
);
}
);
width = 972;
}
);
unicode = 109;
},
{
color = (153, 255, 154, 255);
glyphname = m.5;
layers = (
{
layerId = "90448605-A80E-4A32-AE33-B790A1EB0DF1";
shapes = (
{
closed = 1;
nodes = (
(80,0,l),
(148,0,l),
(148,259,ls),
(148,370,o),
(206,467,o),
(296,467,cs),
(356,467,o),
(385,419,o),
(385,342,cs),
(385,0,l),
(453,0,l),
(453,259,ls),
(453,340,o),
(492,467,o),
(598,467,cs),
(663,467,o),
(690,419,o),
(690,342,cs),
(690,69,ls),
(690,-108,o),
(783,-230,o),
(943,-230,cs),
(1019,-230,o),
(1103,-202,o),
(1126,-139,c),
(1119,-132,l),
(1096,-189,o),
(1021,-219,o),
(957,-219,cs),
(848,-219,o),
(760,-144,o),
(760,31,cs),
(760,327,ls),
(760,428,o),
(720,497,o),
(630,497,cs),
(544,497,o),
(481,435,o),
(452,348,c),
(448,437,o),
(413,497,o),
(334,497,cs),
(247,497,o),
(182,444,o),
(149,348,cs),
(147,343,o),
(145,341,o),
(145,345,cs),
(145,497,l),
(104,484,o),
(59,481,o),
(3,481,c),
(3,470,l),
(59,470,o),
(80,465,o),
(80,413,cs)
);
}
);
width = 820;
},
{
layerId = "97E2145D-66CE-4726-B996-40A38D9C79F6";
shapes = (
{
closed = 1;
nodes = (
(70,0,l),
(267,0,l),
(267,258,ls),
(267,361,o),
(303,447,o),
(350,447,cs),
(382,447,o),
(387,416,o),
(387,326,cs),
(387,0,l),
(588,0,l),
(588,258,ls),
(588,360,o),
(624,447,o),
(671,447,cs),
(703,447,o),
(708,416,o),
(708,326,cs),
(708,129,ls),
(708,-52,o),
(750,-239,o),
(1064,-239,cs),
(1152,-239,o),
(1249,-208,o),
(1276,-139,c),
(1269,-132,l),
(1246,-190,o),
(1170,-220,o),
(1105,-220,cs),
(997,-220,o),
(909,-145,o),
(909,31,cs),
(909,292,ls),
(909,417,o),
(880,497,o),
(753,497,cs),
(624,497,o),
(594,382,o),
(586,350,c),
(576,441,o),
(538,497,o),
(432,497,cs),
(300,497,o),
(273,376,o),
(264,348,cs),
(260,335,o),
(253,340,o),
(253,348,cs),
(253,497,l),
(178,484,o),
(97,481,o),
(-7,481,c),
(-7,470,l),
(49,470,o),
(70,465,o),
(70,413,cs)
);
}
);
width = 972;
}
);
},
{
color = (153, 255, 154, 255);
glyphname = m.4;
layers = (
{
layerId = "90448605-A80E-4A32-AE33-B790A1EB0DF1";
shapes = (
{
closed = 1;
nodes = (
(80,0,l),
(148,0,l),
(148,259,ls),
(148,370,o),
(206,467,o),
(296,467,cs),
(356,467,o),
(385,419,o),
(385,342,cs),
(385,0,l),
(453,0,l),
(453,295,l),
(463,372,o),
(507,467,o),
(596,467,cs),
(661,467,o),
(688,419,o),
(688,342,cs),
(688,173,ls),
(688,-192,o),
(952,-413,o),
(1266,-413,cs),
(1611,-413,o),
(1890,-136,o),
(1890,207,cs),
(1890,544,o),
(1615,817,o),
(1276,817,cs),
(1118,817,o),
(974,757,o),
(866,659,c),
(875,655,l),
(981,749,o),
(1122,805,o),
(1276,805,cs),
(1608,805,o),
(1878,537,o),
(1878,207,cs),
(1878,-123,o),
(1608,-390,o),
(1276,-390,cs),
(1005,-390,o),
(758,-227,o),
(758,138,cs),
(758,327,ls),
(758,428,o),
(718,497,o),
(628,497,cs),
(550,497,o),
(482,437,o),
(452,353,c),
(447,440,o),
(412,497,o),
(334,497,cs),
(247,497,o),
(182,444,o),
(149,348,cs),
(136,310,o),
(145,346,o),
(145,357,cs),
(145,497,l),
(104,484,o),
(59,481,o),
(3,481,c),
(3,470,l),
(59,470,o),
(80,465,o),
(80,413,cs)
);
}
);
width = 824;
},
{
layerId = "97E2145D-66CE-4726-B996-40A38D9C79F6";
shapes = (
{
closed = 1;
nodes = (
(70,0,l),
(267,0,l),
(267,258,ls),
(267,361,o),
(303,447,o),
(350,447,cs),
(382,447,o),
(387,416,o),
(387,326,cs),
(387,0,l),
(588,0,l),
(588,260,ls),
(588,361,o),
(624,447,o),
(671,447,cs),
(703,447,o),
(708,419,o),
(708,342,cs),
(708,173,l),
(710,-192,o),
(1032,-413,o),
(1418,-413,cs),
(1763,-413,o),
(2042,-136,o),
(2042,207,cs),
(2042,544,o),
(1767,817,o),
(1428,817,cs),
(1270,817,o),
(1126,757,o),
(1018,659,c),
(1027,655,l),
(1133,749,o),
(1274,805,o),
(1428,805,cs),
(1760,805,o),
(2030,537,o),
(2030,207,cs),
(2030,-123,o),
(1760,-390,o),
(1428,-390,cs),
(1157,-390,o),
(910,-227,o),
(910,138,cs),
(910,292,ls),
(910,417,o),
(880,497,o),
(753,497,cs),
(624,497,o),
(594,382,o),
(586,350,c),
(576,441,o),
(538,497,o),
(432,497,cs),
(300,497,o),
(272,376,o),
(264,348,cs),
(260,336,o),
(253,341,o),
(253,348,cs),
(253,497,l),
(178,484,o),
(97,481,o),
(-7,481,c),
(-7,470,l),
(49,470,o),
(70,465,o),
(70,413,cs)
);
}
);
width = 970;
}
);
},
{
color = (153, 255, 154, 255);
glyphname = m.7;
layers = (
{
layerId = "90448605-A80E-4A32-AE33-B790A1EB0DF1";
shapes = (
{
closed = 1;
nodes = (
(80,0,l),
(148,0,l),
(148,259,ls),
(148,370,o),
(206,467,o),
(296,467,cs),
(356,467,o),
(385,419,o),
(385,342,cs),
(385,0,l),
(453,0,l),
(453,259,ls),
(453,340,o),
(496,467,o),
(598,467,cs),
(663,467,o),
(690,419,o),
(690,342,cs),
(690,134,ls),
(690,-208,o),
(1008,-408,o),
(1329,-408,cs),
(1681,-408,o),
(1978,-173,o),
(1978,201,cs),
(1978,526,o),
(1713,789,o),
(1386,789,cs),
(1135,789,o),
(914,643,o),
(710,446,c),
(716,438,l),
(922,633,o),
(1138,779,o),
(1386,779,cs),
(1707,779,o),
(1968,520,o),
(1968,201,cs),
(1968,-141,o),
(1705,-396,o),
(1338,-396,cs),
(1122,-396,o),
(760,-239,o),
(760,134,cs),
(760,327,ls),
(760,411,o),
(728,497,o),
(630,497,cs),
(550,497,o),
(481,435,o),
(452,348,c),
(448,437,o),
(413,497,o),
(334,497,cs),
(247,497,o),
(182,444,o),
(149,348,c),
(157,371,o),
(147,357,o),
(145,342,c),
(145,497,l),
(104,484,o),
(59,481,o),
(3,481,c),
(3,470,l),
(59,470,o),
(80,465,o),
(80,413,cs)
);
},
{
closed = 1;
nodes = (
(395,117,l),
(72,-242,o),
(-271,-610,o),
(-743,-610,cs),
(-1216,-610,o),
(-1600,-226,o),
(-1600,247,cs),
(-1600,720,o),
(-1216,1104,o),
(-743,1104,cs),
(-533,1104,o),
(-339,1029,o),
(-189,905,c),
(-183,911,l),
(-334,1039,o),
(-530,1116,o),
(-743,1116,cs),
(-1223,1116,o),
(-1612,727,o),
(-1612,247,cs),
(-1612,-233,o),
(-1223,-622,o),
(-743,-622,cs),
(-271,-622,o),
(71,-257,o),
(395,100,c)
);
}
);
width = 821;
},
{
layerId = "97E2145D-66CE-4726-B996-40A38D9C79F6";
shapes = (
{
closed = 1;
nodes = (
(70,0,l),
(267,0,l),
(267,258,ls),
(267,359,o),
(303,447,o),
(350,447,cs),
(382,447,o),
(387,416,o),
(387,326,cs),
(387,0,l),
(588,0,l),
(588,258,ls),
(588,360,o),
(624,447,o),
(671,447,cs),
(703,447,o),
(708,416,o),
(708,326,cs),
(708,184,ls),
(708,-186,o),
(1017,-396,o),
(1404,-396,cs),
(1737,-396,o),
(2006,-130,o),
(2006,201,cs),
(2006,526,o),
(1741,789,o),
(1414,789,cs),
(1179,789,o),
(977,662,o),
(784,483,c),
(795,480,l),
(987,654,o),
(1184,779,o),
(1414,779,cs),
(1735,779,o),
(1996,520,o),
(1996,201,cs),
(1996,-120,o),
(1735,-380,o),
(1414,-380,cs),
(1142,-380,o),
(909,-273,o),
(909,134,cs),
(909,292,ls),
(909,411,o),
(884,497,o),
(753,497,cs),
(624,497,o),
(594,382,o),
(586,350,c),
(576,441,o),
(538,497,o),
(432,497,cs),
(300,497,o),
(272,376,o),
(264,348,c),
(260,337,o),
(253,340,o),
(253,348,cs),
(253,497,l),
(178,484,o),
(97,481,o),
(-7,481,c),
(-7,470,l),
(49,470,o),
(70,465,o),
(70,413,cs)
);
},
{
closed = 1;
nodes = (
(398,19,l),
(100,-306,o),
(-224,-610,o),
(-655,-610,cs),
(-1126,-610,o),
(-1508,-226,o),
(-1508,247,cs),
(-1508,720,o),
(-1126,1104,o),
(-655,1104,cs),
(-445,1104,o),
(-251,1029,o),
(-101,905,c),
(-95,911,l),
(-246,1039,o),
(-442,1116,o),
(-655,1116,cs),
(-1135,1116,o),
(-1524,727,o),
(-1524,247,cs),
(-1524,-233,o),
(-1135,-622,o),
(-655,-622,cs),
(-222,-622,o),
(102,-315,o),
(403,12,c)
);
}
);
width = 972;
}
);
},
{
color = (153, 255, 154, 255);
glyphname = m.7.more;
layers = (
{
layerId = "90448605-A80E-4A32-AE33-B790A1EB0DF1";
shapes = (
{
closed = 1;
nodes = (
(80,0,l),
(148,0,l),
(148,259,ls),
(148,370,o),
(206,467,o),
(296,467,cs),
(356,467,o),
(385,419,o),
(385,342,cs),
(385,0,l),
(453,0,l),
(453,259,ls),
(453,340,o),
(496,467,o),
(598,467,cs),
(663,467,o),
(690,419,o),
(690,342,cs),
(690,134,ls),
(690,-208,o),
(1008,-408,o),
(1329,-408,cs),
(1681,-408,o),
(1978,-173,o),
(1978,201,cs),
(1978,526,o),
(1713,789,o),
(1386,789,cs),
(1135,789,o),
(914,643,o),
(710,446,c),
(715,439,l),
(921,633,o),
(1138,777,o),
(1386,777,cs),
(1706,777,o),
(1966,519,o),
(1966,201,cs),
(1966,-141,o),
(1704,-394,o),
(1338,-394,cs),
(1122,-394,o),
(760,-239,o),
(760,134,cs),
(760,327,ls),
(760,411,o),
(743,497,o),
(630,497,cs),
(550,497,o),
(481,435,o),
(452,348,c),
(448,437,o),
(413,497,o),
(334,497,cs),
(247,497,o),
(182,444,o),
(149,348,cs),
(136,310,o),
(145,352,o),
(145,363,cs),
(145,497,l),
(104,484,o),
(59,481,o),
(3,481,c),
(3,470,l),
(59,470,o),
(80,465,o),
(80,413,cs)
);
},
{
closed = 1;
nodes = (
(395,117,l),
(72,-242,o),
(-271,-610,o),
(-743,-610,cs),
(-1216,-610,o),
(-1600,-226,o),
(-1600,247,cs),
(-1600,720,o),
(-1216,1104,o),
(-743,1104,cs),
(-321,1104,o),
(-50,862,o),
(332,862,cs),
(503,862,o),
(657,929,o),
(760,1046,c),
(752,1048,l),
(650,938,o),
(500,874,o),
(332,874,cs),
(-47,874,o),
(-313,1116,o),
(-743,1116,cs),
(-1223,1116,o),
(-1612,727,o),
(-1612,247,cs),
(-1612,-233,o),
(-1223,-622,o),
(-743,-622,cs),
(-271,-622,o),
(71,-257,o),
(395,100,c)
);
}
);
width = 821;
},
{
layerId = "97E2145D-66CE-4726-B996-40A38D9C79F6";
shapes = (
{
closed = 1;
nodes = (
(70,0,l),
(267,0,l),
(267,258,ls),
(267,361,o),
(303,447,o),
(350,447,cs),
(382,447,o),
(387,416,o),
(387,326,cs),
(387,0,l),
(588,0,l),
(588,258,ls),
(588,360,o),
(624,447,o),
(671,447,cs),
(703,447,o),
(708,416,o),
(708,326,cs),
(708,184,ls),
(708,-186,o),
(1017,-396,o),
(1404,-396,cs),
(1737,-396,o),
(2006,-130,o),
(2006,201,cs),
(2006,526,o),
(1741,789,o),
(1414,789,cs),
(1179,789,o),
(977,662,o),
(784,483,c),
(794,481,l),
(986,655,o),
(1184,779,o),
(1414,779,cs),
(1734,779,o),
(1994,520,o),
(1994,201,cs),
(1994,-120,o),
(1734,-380,o),
(1414,-380,cs),
(1142,-380,o),
(909,-273,o),
(909,134,cs),
(909,292,ls),
(909,411,o),
(884,497,o),
(753,497,cs),
(624,497,o),
(594,382,o),
(586,350,c),
(576,441,o),
(538,497,o),
(432,497,cs),
(300,497,o),
(272,376,o),
(264,348,cs),
(260,336,o),
(253,341,o),
(253,348,cs),
(253,497,l),
(178,484,o),
(97,481,o),
(-7,481,c),
(-7,470,l),
(49,470,o),
(70,465,o),
(70,413,cs)
);
},
{
closed = 1;
nodes = (
(398,19,l),
(100,-306,o),
(-224,-610,o),
(-655,-610,cs),
(-1129,-610,o),
(-1514,-226,o),
(-1514,247,cs),
(-1514,720,o),
(-1129,1104,o),
(-655,1104,cs),
(-233,1104,o),
(38,862,o),
(420,862,cs),
(591,862,o),
(745,929,o),
(848,1046,c),
(840,1048,l),
(738,938,o),
(588,874,o),
(420,874,cs),
(41,874,o),
(-225,1116,o),
(-655,1116,cs),
(-1135,1116,o),
(-1524,727,o),
(-1524,247,cs),
(-1524,-233,o),
(-1135,-622,o),
(-655,-622,cs),
(-222,-622,o),
(102,-315,o),
(403,12,c)
);
}
);
width = 972;
}
);
},
{
color = (153, 255, 154, 255);
glyphname = m.7.acc;
layers = (
{
layerId = "90448605-A80E-4A32-AE33-B790A1EB0DF1";
shapes = (
{
closed = 1;
nodes = (
(80,0,l),
(148,0,l),
(148,259,ls),
(148,370,o),
(206,467,o),
(296,467,cs),
(356,467,o),
(385,419,o),
(385,342,cs),
(385,0,l),
(453,0,l),
(453,259,ls),
(453,340,o),
(496,467,o),
(598,467,cs),
(663,467,o),
(690,419,o),
(690,342,cs),
(690,134,ls),
(690,-208,o),
(1008,-408,o),
(1329,-408,cs),
(1681,-408,o),
(1978,-173,o),
(1978,201,cs),
(1978,526,o),
(1713,804,o),
(1386,804,cs),
(1135,804,o),
(915,644,o),
(710,446,c),
(715,438,l),
(920,637,o),
(1138,758,o),
(1386,758,cs),
(1706,758,o),
(1966,522,o),
(1966,201,cs),
(1966,-141,o),
(1704,-396,o),
(1338,-396,cs),
(1122,-396,o),
(760,-239,o),
(760,134,cs),
(760,327,ls),
(760,411,o),
(728,497,o),
(630,497,cs),
(550,497,o),
(481,435,o),
(452,348,c),
(448,437,o),
(413,497,o),
(334,497,cs),
(247,497,o),
(182,444,o),
(149,348,cs),
(136,310,o),
(145,354,o),
(145,365,cs),
(145,497,l),
(104,484,o),
(59,481,o),
(3,481,c),
(3,470,l),
(59,470,o),
(80,465,o),
(80,413,cs)
);
},
{
closed = 1;
nodes = (
(396,113,l),
(71,-268,o),
(-271,-597,o),
(-743,-597,cs),
(-1217,-597,o),
(-1602,-256,o),
(-1602,247,cs),
(-1602,720,o),
(-1217,1104,o),
(-743,1104,cs),
(-532,1104,o),
(-338,1030,o),
(-188,907,c),
(-183,911,l),
(-334,1039,o),
(-530,1116,o),
(-743,1116,cs),
(-1224,1116,o),
(-1614,727,o),
(-1614,247,cs),
(-1614,-258,o),
(-1224,-667,o),
(-743,-667,cs),
(-271,-667,o),
(71,-281,o),
(395,98,c)
);
}
);
width = 821;
},
{
layerId = "97E2145D-66CE-4726-B996-40A38D9C79F6";
shapes = (
{
closed = 1;
nodes = (
(70,0,l),
(267,0,l),
(267,258,ls),
(267,361,o),
(303,447,o),
(350,447,cs),
(382,447,o),
(387,416,o),
(387,326,cs),
(387,0,l),
(588,0,l),
(588,258,ls),
(588,360,o),
(624,447,o),
(671,447,cs),
(703,447,o),
(708,416,o),
(708,326,cs),
(708,184,ls),
(708,-186,o),
(1017,-396,o),
(1404,-396,cs),
(1737,-396,o),
(2006,-130,o),
(2006,201,cs),
(2006,526,o),
(1741,820,o),
(1414,820,cs),
(1179,820,o),
(977,665,o),
(783,483,c),
(794,481,l),
(985,654,o),
(1184,760,o),
(1414,760,cs),
(1734,760,o),
(1994,522,o),
(1994,201,cs),
(1994,-120,o),
(1734,-380,o),
(1414,-380,cs),
(1142,-380,o),
(909,-273,o),
(909,134,cs),
(909,292,ls),
(909,407,o),
(886,497,o),
(753,497,cs),
(624,497,o),
(594,382,o),
(586,350,c),
(576,441,o),
(538,497,o),
(432,497,cs),
(300,497,o),
(272,376,o),
(264,348,cs),
(260,336,o),
(253,341,o),
(253,348,cs),
(253,497,l),
(178,484,o),
(97,481,o),
(-7,481,c),
(-7,470,l),
(49,470,o),
(70,465,o),
(70,413,cs)
);
},
{
closed = 1;
nodes = (
(398,19,l),
(99,-294,o),
(-224,-538,o),
(-655,-538,cs),
(-1129,-538,o),
(-1514,-229,o),
(-1514,247,cs),
(-1514,720,o),
(-1129,1104,o),
(-655,1104,cs),
(-444,1104,o),
(-250,1030,o),
(-100,907,c),
(-95,911,l),
(-246,1039,o),
(-442,1116,o),
(-655,1116,cs),
(-1136,1116,o),
(-1526,727,o),
(-1526,247,cs),
(-1526,-233,o),
(-1136,-698,o),
(-655,-698,cs),
(-221,-698,o),
(103,-329,o),
(405,12,c)
);
}
);
width = 972;
}
);
},
